<svg width="393" height="263" viewBox="0 0 393 263" fill="none" xmlns="http://www.w3.org/2000/svg">
<g clip-path="url(#clip0_266_335)">
<path d="M328.481 79.9707C248.071 79.9707 167.661 79.9707 87.251 79.9707C74.5095 79.9707 61.7679 79.9707 49.0249 79.9707C49.0568 73.1877 49.0798 66.4039 49.082 59.6209H328.481C328.481 66.4047 328.481 73.1869 328.481 79.9707ZM300.794 107.844C300.827 107.758 300.879 107.68 300.941 107.609C300.802 107.606 300.664 107.604 300.525 107.609C300.605 107.748 300.466 107.935 299.921 108.135C299.879 108.151 299.844 108.17 299.804 108.185C299.833 108.178 299.861 108.167 299.89 108.161C300.176 108.024 300.482 107.923 300.794 107.844ZM279.09 119.474C272.212 120.978 265.826 126.608 260.578 131.187L260.375 123.279C260.586 115.639 260.811 107.996 260.839 100.35C285.042 100.35 309.246 100.35 333.449 100.35C333.36 100.438 333.303 100.535 333.303 100.642C333.303 110.662 333.303 120.684 333.303 130.705C328.756 126.323 323.53 123.879 316.881 124.928C309.47 126.098 302.041 130.718 294.996 125.786C292.513 124.047 290.548 121.57 287.771 120.246C284.949 118.9 282.12 118.81 279.09 119.474ZM295.408 115.12C296.977 118.293 300.926 120.063 304.328 119.08C307.908 118.046 311.325 115.24 309.705 111.2C308.156 107.338 303.426 106.104 299.707 106.783C299.044 106.904 298.372 107.49 298.622 107.7C295.508 109.045 293.731 111.73 295.408 115.12ZM300.031 117.328C299.97 117.312 299.913 117.288 299.853 117.271C301.268 118.322 303.022 118.782 304.697 118.057C305.782 117.585 306.66 116.868 307.237 116.007C307.17 116.061 307.111 116.123 307.04 116.176C305.713 118.137 303.212 118.745 300.699 117.465C300.469 117.426 300.243 117.383 300.031 117.328ZM283.43 120.715C282.891 120.623 282.336 120.581 281.762 120.599C282.313 120.618 282.873 120.657 283.43 120.715ZM339.935 205.41C339.723 205.37 339.59 205.273 339.623 205.104C338.734 204.226 337.901 203.335 337.147 202.391C337.196 203.663 337.311 204.929 337.51 206.179L338.936 211.401C339.311 212.352 339.732 213.264 340.193 214.146C341.568 212.779 342.141 210.873 343.133 209.238C343.724 208.263 340.577 206.008 339.935 205.41ZM314.803 250.611C314.672 250.662 314.531 250.699 314.385 250.713C304.721 251.628 298.727 248.302 295.245 242.53C294.571 241.502 293.945 240.277 293.426 238.785C293.391 238.688 293.361 238.576 293.33 238.471C289.937 229.118 290.906 215.798 293.193 203.249C290.885 201.96 288.417 200.73 286.495 198.904C284.782 197.276 283.577 195.119 282.366 193.083C275.04 198.068 268.054 203.466 261.484 209.417C267.145 213.766 272.178 218.713 277.557 223.4C277.951 223.744 277.853 224.127 277.557 224.416C278.006 224.414 278.39 224.595 278.37 225.035C277.61 240.732 294.684 250.496 294.496 266.181C294.496 266.217 294.486 266.251 294.479 266.286H337.373C337.283 259.566 336.359 252.896 336.274 246.177C329.626 249.338 321.322 250.305 314.803 250.611ZM83.209 256.621C83.0964 255.956 82.9801 255.29 82.8616 254.625C82.6378 254.456 82.5482 254.196 82.7223 253.865C81.5118 247.235 79.9664 240.64 77.7521 234.396C75.9933 229.435 73.8798 224.502 71.3595 219.881C68.994 215.546 66.0507 210.018 61.2597 208.003C61.1175 207.943 61.0153 207.87 60.9375 207.794C59.5892 207.967 58.2401 208.132 56.8859 208.26C56.9785 208.859 57.0726 209.458 57.1622 210.059C62.8621 217.699 69.2622 227.532 69.843 237.273C69.883 237.936 68.8473 238.368 68.2006 238.28C68.1131 238.299 68.022 238.313 67.9242 238.315C59.2684 238.406 50.7533 240.063 42.1241 240.528C41.6204 240.629 41.104 240.514 41.0062 240.071C38.8297 230.241 34.4469 218.663 26.0489 212.584C26.0452 212.581 26.0437 212.579 26.0407 212.576C24.5783 213.112 23.1167 213.642 21.678 214.202C35.0314 227.005 40.1654 249.364 32.783 266.473H84.7085C84.2558 263.23 83.7713 259.946 83.2157 256.663C83.2127 256.647 83.2098 256.633 83.209 256.621Z" fill="#F4D955"/>
<path d="M62.2025 172.767C62.2032 173.576 62.2944 174.257 62.8692 174.865C63.4115 175.439 61.3728 176.223 60.8727 175.694C60.2259 175.008 60.057 174.257 60.0563 173.343C60.0548 172.531 62.2025 172.132 62.2025 172.767ZM72.7445 172.232C72.7452 173.144 72.9141 173.898 73.5609 174.582C74.0617 175.111 76.1004 174.327 75.5574 173.754C74.9818 173.146 74.8921 172.464 74.8914 171.656C74.8907 171.02 72.7437 171.418 72.7445 172.232ZM69.9108 182.16C68.9544 182.917 71.105 182.895 71.6243 182.485C72.9949 181.401 73.9261 180.185 73.7327 178.37C73.5186 176.362 71.6977 174.448 70.7287 172.767C70.322 172.062 68.2625 172.79 68.5825 173.343C70.2383 176.214 73.4186 179.382 69.9108 182.16ZM58.2635 186.762C59.7896 188.266 61.4461 189.374 63.5812 189.772C64.0657 189.862 64.6435 189.692 65.0791 189.49C65.2325 189.42 65.8348 189.05 65.3495 188.96C63.3041 188.578 61.7446 187.476 60.2882 186.041C59.9022 185.659 57.9583 186.461 58.2635 186.762ZM57.902 169.483C58.6421 168.77 59.3947 168.185 60.4608 168.407C60.9505 168.509 61.5972 168.31 61.9788 168C62.3336 167.712 62.2173 167.41 61.7972 167.323C59.7481 166.897 57.6656 167.802 56.2018 169.213C55.3261 170.058 57.4464 169.922 57.902 169.483ZM70.7561 167.322C71.3599 167.134 72.0325 167.159 72.6578 167.159C73.1675 167.157 73.735 167.004 74.1758 166.75C74.5247 166.55 74.4691 166.347 74.0676 166.347C72.6837 166.349 71.3628 166.513 70.0382 166.924C69.9693 166.946 69.0752 167.306 69.3826 167.476C69.75 167.681 70.4012 167.432 70.7561 167.322ZM358.354 220.709C360.963 224.95 362.679 230.229 361.048 235.161C359.535 239.735 356.318 242.958 352.3 245.239C352.505 245.257 352.644 245.317 352.645 245.424C352.719 252.298 353.69 259.12 353.757 265.997C353.764 266.661 351.615 267.001 351.611 266.573C351.61 266.476 351.605 266.38 351.604 266.284C351.513 259.566 350.589 252.895 350.504 246.176C343.858 249.337 335.554 250.305 329.036 250.61C328.905 250.66 328.764 250.698 328.618 250.713C318.953 251.627 312.959 248.301 309.478 242.529C308.803 241.501 308.177 240.276 307.658 238.784C307.624 238.686 307.594 238.574 307.562 238.469C304.169 229.117 305.139 215.797 307.426 203.248C305.117 201.959 302.65 200.728 300.728 198.902C299.014 197.275 297.81 195.118 296.599 193.082C289.273 198.067 282.287 203.464 275.716 209.415C281.378 213.765 286.411 218.711 291.789 223.398C292.183 223.742 292.085 224.127 291.789 224.414C292.239 224.413 292.623 224.594 292.603 225.033C291.842 240.73 308.916 250.496 308.728 266.18C308.728 266.216 308.719 266.249 308.711 266.285C308.535 267.066 306.554 267.381 306.566 266.389C306.618 261.99 305.302 258.061 303.402 254.331C303.113 254.512 302.767 254.649 302.5 254.649C243.257 254.649 184.015 254.649 124.771 254.649C121.923 258.255 118.373 261.432 114.018 262.692C108.676 264.238 104.059 262.664 100.145 259.397C100.494 261.675 100.819 263.943 101.131 266.184C101.283 267.275 99.1321 267.821 98.9847 266.76C98.9713 266.664 98.9572 266.567 98.9439 266.472C98.4913 263.228 98.0068 259.945 97.4511 256.662C97.4489 256.647 97.4467 256.635 97.4445 256.621C97.3319 255.956 97.2156 255.29 97.097 254.625C96.8733 254.456 96.7836 254.196 96.9577 253.865C95.7472 247.235 94.2019 240.64 91.9875 234.396C90.2288 229.435 88.1152 224.502 85.5949 219.881C83.2294 215.546 80.2861 210.018 75.4952 208.003C75.3529 207.943 75.2507 207.87 75.1729 207.794C73.8246 207.967 72.4756 208.132 71.1213 208.26C71.2139 208.859 71.308 209.458 71.3977 210.059C77.0976 217.699 83.4976 227.532 84.0784 237.273C84.1184 237.936 83.0827 238.368 82.436 238.28C82.3486 238.299 82.2575 238.313 82.1597 238.315C73.5038 238.406 64.9887 240.063 56.3596 240.528C55.8558 240.629 55.3394 240.514 55.2417 240.071C53.0651 230.241 48.6824 218.663 40.2843 212.584C40.2806 212.581 40.2791 212.579 40.2762 212.576C38.8138 213.112 37.3521 213.642 35.9134 214.202C49.2669 227.005 54.4008 249.364 47.0185 266.473C46.997 266.522 46.9784 266.574 46.957 266.623C46.5458 267.564 44.3796 267.489 44.8893 266.323C52.145 249.7 47.134 227.582 33.9947 215.223C33.931 215.163 33.8821 215.101 33.8428 215.039C28.0977 217.464 22.9363 220.645 19.9619 226.899C14.908 237.523 12.4914 249.441 10.843 261.033C20.0226 262.37 29.3645 263.53 38.6523 263.696C39.6065 257.162 39.6687 250.585 39.6709 243.987C39.6709 243.251 41.8215 242.8 41.8208 243.732C41.8193 250.557 41.7615 257.36 40.7088 264.12C40.6147 264.726 39.2212 265.083 38.7271 264.76C30.3276 264.674 21.888 263.776 13.5478 262.63C13.5478 264.37 13.5478 266.108 13.5478 267.847C13.5478 268.636 11.4016 269.024 11.4016 268.423C11.4016 266.574 11.4016 264.725 11.4016 262.877C11.4016 262.683 11.532 262.514 11.7276 262.376C11.1838 262.299 10.6393 262.221 10.0963 262.144C9.41841 262.42 8.50793 262.288 8.61165 261.553C10.3607 249.13 12.7173 235.047 19.2359 224.114C25.4625 213.67 38.6982 212.613 48.5897 207.352C48.6409 204.15 48.7898 200.944 48.7298 197.741C48.7038 196.34 49.1935 193.882 47.2763 193.899C46.2961 193.91 45.3264 193.904 44.3485 193.828C40.4577 193.529 39.7339 190.383 40.1487 186.932C40.151 186.913 40.1554 186.895 40.1576 186.877C39.8146 186.94 39.5005 186.928 39.3686 186.779C35.2756 182.179 33.1553 176.856 31.9893 170.89C30.0453 170.78 28.0317 170.254 27.1405 168.582C26.07 166.573 26.533 164.252 27.5391 162.294C29.7964 157.9 34.1962 153.942 39.2509 153.453C38.3633 142.608 51.216 143.938 58.0457 148.515C58.6621 147.032 59.6303 145.724 60.8068 144.663C60.8194 123.46 61.0142 102.257 61.1157 81.0545C60.9994 80.9671 61.0179 80.8352 61.1164 80.6937C61.149 73.7655 61.1727 66.8381 61.1742 59.9084C61.1742 59.7357 61.3824 59.5876 61.6683 59.4757C61.6587 59.4757 61.6491 59.4757 61.6395 59.4757C60.1889 59.4757 61.6965 58.2845 62.4818 58.2845C75.4841 58.2845 88.4871 58.2845 101.489 58.2845C182.397 58.2845 263.305 58.2845 344.213 58.2845C344.643 58.2845 344.808 58.3904 344.815 58.5371C344.845 58.5527 344.865 58.5697 344.865 58.5927C344.865 70.5837 344.865 82.5732 344.865 94.5635C349 94.5635 353.136 94.5635 357.271 94.5635C357.899 94.5635 357.484 94.8769 356.937 95.1369C357.035 95.1687 357.099 95.2176 357.099 95.2902C357.099 105.486 357.099 115.679 357.099 125.874C364.439 150.878 370.51 180.87 356.118 204.556C357.325 205.737 358.593 206.876 359.811 208.069C359.882 208.129 359.902 208.201 359.87 208.288C358.545 210.471 357.759 212.982 355.749 214.659C355.598 214.785 355.227 214.892 354.854 214.946C355.912 216.872 357.127 218.719 358.354 220.709ZM300.964 195.992C299.52 192.353 299.737 187.848 300.39 184.129C301.433 178.204 303.414 171.612 307.281 166.822C306.073 165.278 305.205 163.507 304.903 161.481C304.86 161.193 305.126 160.945 305.48 160.78C305.531 160.732 305.581 160.684 305.632 160.636C309.699 156.792 314.191 152.891 319.753 151.483C326.473 149.78 333.332 151.223 339.689 153.683C340.722 154.082 341.733 154.473 342.714 154.893C342.714 153.429 342.714 151.967 342.714 150.503C321.153 150.503 299.592 150.503 278.032 150.503C277.991 150.503 277.965 150.499 277.933 150.497C277.424 151.206 276.923 151.922 276.45 152.652C276.352 152.803 276.118 152.914 275.84 152.991C275.879 153.027 275.907 153.068 275.911 153.122C277.038 168.649 280.92 183.098 293.335 193.356C294.282 192.697 295.236 192.046 296.196 191.401C296.645 190.903 297.697 190.704 298.061 191.293C298.98 192.792 299.869 194.501 300.964 195.992ZM276.486 206.468C281.368 202.194 286.471 198.215 291.763 194.465C291.712 194.448 291.664 194.424 291.626 194.394C278.919 184.081 274.906 169.448 273.764 153.695C273.746 153.444 274.003 153.232 274.343 153.084C274.333 153.074 274.329 153.065 274.337 153.053C275.854 150.713 277.71 148.538 279.227 146.175C278.635 146.167 279.038 145.861 279.577 145.603C279.987 144.929 280.374 144.242 280.704 143.524C281.894 140.953 283.034 136.064 280.158 133.93C280.144 133.922 280.137 133.916 280.126 133.912C280.017 134.043 279.914 134.179 279.82 134.323C279.538 134.759 279.268 135.198 279.027 135.658C278.459 136.736 277.943 137.837 277.382 138.918C276.548 140.521 275.687 142.134 274.221 143.22C274.096 143.578 273.365 143.822 272.793 143.873C272.882 143.97 272.972 144.066 273.068 144.143C273.408 144.416 271.513 145.255 271.046 144.88C268.499 142.828 268.18 137.24 267.527 134.309C266.84 131.226 266.281 124.446 263.351 122.481C261.645 121.337 261.154 135.119 261.197 136.379C261.354 140.996 261.511 145.821 262.566 150.339C262.572 150.366 262.569 150.393 262.563 150.42C262.949 150.469 263.229 150.685 263.136 151.107C261.016 160.697 261.514 171.193 263.329 180.785C265.053 189.887 268.077 200.7 276.217 206.158C276.362 206.255 276.444 206.36 276.486 206.468ZM302.001 120.245C304.778 121.569 306.744 124.047 309.227 125.786C316.271 130.717 323.7 126.097 331.111 124.928C337.76 123.879 342.986 126.322 347.533 130.704C347.533 120.684 347.533 110.661 347.533 100.641C347.533 100.534 347.591 100.438 347.68 100.349C323.477 100.349 299.273 100.349 275.069 100.349C275.041 107.995 274.816 115.637 274.605 123.279C274.528 126.035 274.456 128.79 274.395 131.547C274.532 131.428 274.67 131.308 274.809 131.186C280.057 126.607 286.443 120.978 293.321 119.472C296.352 118.81 299.181 118.9 302.001 120.245ZM274.257 141.158C276.232 137.715 277.256 132.409 281.51 132.865C284.248 133.158 284.34 138.937 283.772 140.699C283.245 142.331 282.477 143.827 281.594 145.255C303.573 145.255 325.554 145.255 347.534 145.255C347.534 141.382 347.534 137.509 347.534 133.635C347.465 133.596 347.401 133.552 347.348 133.492C344.264 130.062 340.381 126.603 335.532 126.26C332.399 126.038 329.413 126.769 326.427 127.638C321.662 129.023 315.505 131.051 310.664 128.806C306.049 126.665 302.6 121.567 297.663 120.712C297.125 120.62 296.57 120.578 295.995 120.596C295.271 120.617 294.517 120.727 293.721 120.953C286.844 122.919 280.856 128.16 275.553 132.77C275.223 133.058 274.746 133.104 274.368 132.998C274.31 135.719 274.274 138.439 274.257 141.158ZM354.167 205.41C353.954 205.37 353.822 205.273 353.855 205.104C352.965 204.226 352.133 203.335 351.379 202.391C351.428 203.663 351.543 204.929 351.742 206.179L353.168 211.401C353.543 212.352 353.964 213.264 354.425 214.146C355.8 212.779 356.372 210.873 357.364 209.238C357.956 208.263 354.809 206.008 354.167 205.41ZM306.615 200.602C307.007 200.826 307.402 201.048 307.798 201.265C309.976 190.043 313.092 179.652 314.914 173.572C314.968 173.39 315.162 173.236 315.41 173.119C314.863 172.816 313.974 172.301 312.944 171.605C311.275 170.595 309.665 169.404 308.319 168.007C305.309 172.335 303.55 177.959 302.669 182.972C301.651 188.76 301.221 196.588 306.978 200.095C307.161 200.205 306.958 200.415 306.615 200.602ZM357.094 134.095C357.094 139.325 357.094 144.554 357.094 149.784C357.094 150.46 354.949 150.795 354.949 150.36C354.949 150.34 354.949 150.317 354.949 150.297C354.643 150.414 354.348 150.5 354.211 150.5C351.094 150.5 347.978 150.5 344.861 150.5C344.861 152.3 344.861 154.098 344.861 155.899C346.819 156.921 348.597 158.196 350.073 160.081C352.044 162.597 353.114 165.938 353.588 169.061C354.823 177.183 353.013 184.698 351.967 192.702C351.717 194.617 351.51 196.573 351.412 198.536C352.318 200.336 353.531 201.874 354.882 203.306C366.797 182.427 363.13 156.718 357.094 134.095ZM268.126 95.4836C268.126 105.12 268.126 114.755 268.126 124.391C268.126 124.602 267.915 124.778 267.626 124.91C269.717 130.005 270.161 139.098 272.102 142.856C272.153 128.583 272.907 114.327 272.93 100.056C272.931 99.4092 274.894 99.0774 275.06 99.43C299.96 99.43 324.86 99.43 349.76 99.43C350.331 99.43 350.04 99.6893 349.572 99.9323C349.639 99.9641 349.68 100.008 349.68 100.066C349.68 115.13 349.68 130.195 349.68 145.258C349.706 145.258 349.733 145.258 349.759 145.258C350.357 145.258 350.012 145.542 349.505 145.795C349.072 146.179 347.947 146.358 347.622 146.18C325.416 146.18 303.211 146.18 281.006 146.18C280.141 147.488 279.198 148.752 278.273 150.027C278.69 149.828 279.225 149.645 279.428 149.645C300.658 149.645 321.888 149.645 343.118 149.645C343.739 149.367 344.861 149.269 344.861 149.462C344.861 149.523 344.861 149.584 344.861 149.645C348.224 149.645 351.586 149.645 354.948 149.645C354.948 141.913 354.948 134.184 354.948 126.452C354.948 126.404 354.948 126.354 354.948 126.306C354.948 116.16 354.948 106.014 354.948 95.8696C354.948 95.7244 355.051 95.5962 355.208 95.4851C326.18 95.4836 297.152 95.4836 268.126 95.4836ZM63.3152 59.4765C63.3152 59.5246 63.3152 59.5728 63.3152 59.6209C63.313 66.4032 63.29 73.1877 63.2582 79.9707C76.0004 79.9707 88.7419 79.9707 101.484 79.9707C181.895 79.9707 262.305 79.9707 342.714 79.9707C342.714 73.1877 342.714 66.4039 342.714 59.6209C342.714 59.5728 342.714 59.5246 342.714 59.4765C329.929 59.4765 317.145 59.4765 304.36 59.4765C224.011 59.4765 143.663 59.4765 63.3152 59.4765ZM50.3329 193.002C50.4055 193.002 50.7026 193.022 50.7107 193.156C50.9982 197.712 50.7848 202.267 50.7256 206.826C50.9115 206.899 51.0493 207.031 51.0826 207.242C52.1672 214.079 65.6592 216.819 69.287 210.906C68.6981 206.967 67.2305 202.217 69.956 198.826C72.84 195.237 79.3245 196.901 81.0188 191.849C82.5457 187.292 81.2099 181.875 80.115 177.359C79.0941 173.148 77.7643 169.022 76.739 164.816C76.7101 164.699 76.7161 164.589 76.7413 164.486C75.5493 163.972 74.4973 163.066 73.7061 161.682C70.5872 165.202 64.6117 165.029 61.1646 161.95C60.9542 162.438 60.7008 162.897 60.4112 163.328C60.0793 164.023 59.5955 164.675 58.8902 165.062C57.0367 166.713 54.5438 167.671 52.0472 167.868C52.082 167.924 52.1183 167.986 52.1546 168.048C52.3413 168.088 52.4917 168.171 52.5665 168.316C55.2439 173.604 53.3859 178.704 51.8227 184.03C51.7857 184.156 51.6842 184.268 51.5457 184.364C51.6442 184.569 51.7383 184.781 51.8242 184.997C51.9879 185.411 49.8847 186.094 49.678 185.572C48.8402 183.457 46.7866 181.63 44.9738 182.275C44.9323 182.299 44.893 182.319 44.8508 182.343C44.57 182.508 44.2937 182.691 44.024 182.883C43.6951 183.201 43.3825 183.616 43.1032 184.173C42.2386 185.897 41.8089 188.068 42.329 189.979C43.3395 193.697 47.2496 193.022 50.3329 193.002ZM42.4431 211.77C50.59 217.988 55.0313 229.198 57.2612 238.971C65.474 238.467 73.5912 236.97 81.83 236.821C80.9499 228.053 75.5945 219.4 70.4138 212.309C65.2717 217.788 51.5182 216.253 49.1883 208.851C47.0303 209.969 44.7523 210.899 42.4431 211.77ZM83.6813 206.96C81.9219 207.008 80.1772 207.174 78.4363 207.379C82.0315 209.618 84.5726 213.6 86.5869 217.173C89.2198 221.842 91.3674 226.731 93.341 231.71C95.8183 237.957 97.4941 244.651 98.7787 251.402C100.697 248.85 102.639 246.306 104.705 243.876C104.831 243.727 105.005 243.622 105.198 243.556C106.225 239.631 108.251 235.978 110.561 232.514C105.586 226.565 102.369 219.318 97.2052 213.494C93.9559 209.831 90.3777 207.419 85.6216 207.017C85.2223 207.081 84.8556 207.069 84.7444 206.962C84.3962 206.951 84.0421 206.951 83.6813 206.96ZM86.8543 205.643C87.9352 205.767 89.0012 205.97 90.0488 206.271C90.2006 206.216 90.3495 206.182 90.4792 206.182C102.145 206.188 113.81 206.322 125.476 206.271C126.143 204.427 126.806 202.582 127.51 200.754C125.353 197.201 121.338 194.076 120.027 190.009C119.909 190.046 119.792 190.067 119.68 190.068C108.738 190.121 97.7964 190.083 86.8551 190.078C86.8543 195.266 86.8543 200.455 86.8543 205.643ZM119.294 163.969C119.326 163.966 119.357 163.96 119.387 163.96C126.307 163.96 133.227 163.96 140.146 163.96C140.323 163.96 140.454 163.977 140.548 164.007C141.341 159.143 146.533 155.323 151.333 153.97C151.211 153.97 151.088 153.972 150.966 153.972C150.279 153.973 150.272 153.718 150.532 153.45C142.593 152.498 134.596 152.202 126.603 152.178C122.236 154.967 119.35 158.586 119.294 163.969ZM242.872 152.863C213.381 152.893 183.901 153.868 154.412 153.959C154.344 154.3 153.881 154.718 153.298 154.787C148.784 155.317 143.252 159.289 142.648 164.036C142.618 164.268 142.403 164.463 142.122 164.601C143.237 166.459 143.257 168.452 142.539 170.249C175.985 170.237 209.427 169.557 242.872 169.528C242.872 163.974 242.872 158.418 242.872 152.863ZM119.666 165.098C119.67 165.132 119.678 165.163 119.678 165.2C119.626 171.444 127.575 173.584 127.475 179.641C128.853 181.602 128.223 184.256 127.301 186.427C127.607 186.505 127.832 186.7 127.828 187.05C127.786 190.835 126.363 200.162 132.296 200.417C136.036 200.578 135.505 192.716 135.309 190.398C135.284 190.103 135.463 189.85 135.725 189.665C133.812 188.054 131.855 185.913 132.397 183.814C132.648 182.841 133.408 182.363 134.304 182.177C133.629 181.385 133.245 180.428 133.498 179.36C131.881 177.775 130.431 175.281 130.84 172.941C131.124 171.315 132.548 170.185 134.236 170.266C136.11 170.354 137.606 171.526 138.866 173.079C141.005 170.872 141.585 167.644 139.845 164.964C139.648 165.045 139.45 165.101 139.289 165.101C132.748 165.098 126.207 165.098 119.666 165.098ZM142.477 197.351C142.631 197.496 142.694 197.712 142.596 198.007C141.706 200.659 140.933 203.344 140.221 206.045C174.439 205.836 208.655 205.524 242.872 205.51C242.872 200.296 242.872 195.083 242.872 189.872C210.68 189.88 178.49 190.187 146.301 190.427C146.174 190.427 146.08 190.418 145.998 190.406C145.866 193.008 143.989 195.268 142.477 197.351ZM143.861 185.947C143.55 184.082 142.476 182.137 141.182 180.58C141.075 180.55 140.989 180.502 140.94 180.426C140.849 180.287 140.761 180.141 140.672 180C140.084 179.365 139.469 178.812 138.871 178.39C137.674 177.546 136.012 177.483 135.659 178.727C135.722 178.828 135.694 178.938 135.601 179.047C135.579 179.276 135.593 179.535 135.651 179.833C135.883 181.042 136.594 181.865 137.529 182.463C139.369 183.08 142.015 184.287 143.861 185.947ZM138.559 176.502C137.674 175.076 136.713 173.706 135.488 172.582C135.208 172.326 133.704 170.88 133.302 171.592C132.899 172.308 132.872 173.216 133.027 174.007C133.286 175.327 133.821 176.503 134.607 177.539C135.463 176.783 136.645 176.434 137.859 176.435C138.092 176.434 138.326 176.465 138.559 176.502ZM121.723 185.601C121.43 189.312 123.485 192.252 125.76 195.064C125.476 192.724 125.583 190.209 125.637 188.257C125.033 188.37 124.429 188.317 124.566 188.046C125.469 186.262 126.931 182.964 125.792 180.869C125.484 180.777 125.264 180.559 125.284 180.185C123.313 178.31 121.819 184.381 121.723 185.601ZM115.323 225.839C116.034 224.863 116.736 223.885 117.419 222.899C113.731 222.877 110.046 222.729 106.359 222.675C108.081 225.419 109.816 228.154 111.817 230.68C112.977 229.03 114.172 227.417 115.323 225.839ZM122.527 213.96C123.436 211.817 124.25 209.639 125.046 207.454C125 207.46 124.955 207.466 124.914 207.466C114.249 207.514 103.584 207.412 92.9187 207.388C94.3515 208.103 95.742 209.052 97.0792 210.312C100.549 213.583 103.133 217.55 105.659 221.563C109.827 221.588 113.993 221.779 118.163 221.808C119.827 219.32 121.342 216.752 122.527 213.96ZM130.42 239.488C134.118 225.798 135.958 211.64 140.426 198.155C140.113 197.968 139.976 197.632 140.294 197.177C141.499 195.452 143.543 193.352 143.806 191.175C144.139 188.42 141.483 186.634 139.378 185.407C138.916 185.138 133.843 182.395 134.569 184.584C135.37 186.999 137.763 188.741 139.712 190.196C140.726 190.952 138.877 192.079 138.069 191.477C137.91 191.359 137.73 191.225 137.542 191.086C137.786 195.361 137.439 201.527 132.272 201.919C131.049 202.013 130.045 201.836 129.223 201.451C127.715 205.5 126.406 209.641 124.645 213.585C122.725 217.886 120.216 221.677 117.439 225.463C115.908 227.552 114.296 229.706 112.794 231.939C112.939 232.316 112.626 232.668 112.185 232.861C108.832 238.016 106.209 243.61 106.686 249.874C106.731 250.465 104.57 250.85 104.539 250.45C104.448 249.255 104.469 248.086 104.583 246.94C102.751 249.226 100.995 251.579 99.2387 253.92C99.3639 254.63 99.4855 255.34 99.604 256.05C102.33 259.04 106.07 262.137 110.416 261.835C114.177 261.572 117.556 259.692 120.214 257.063C125.042 252.283 128.645 246.054 130.42 239.488ZM302.935 253.455C298.017 244.305 289.903 236.251 290.436 225.242C290.444 225.092 290.518 224.957 290.632 224.842C290.445 224.827 290.272 224.768 290.137 224.651C284.564 219.795 279.369 214.654 273.455 210.195C273.017 209.865 273.135 209.469 273.471 209.18C273.502 209.145 273.53 209.11 273.568 209.075C274.131 208.56 274.701 208.056 275.269 207.548C275.012 207.578 274.76 207.544 274.569 207.415C266.247 201.835 262.849 190.718 261.184 181.357C259.445 171.573 258.799 161.03 260.96 151.257C260.973 151.202 260.993 151.149 261.017 151.098C260.703 151.118 260.456 151.069 260.419 150.912C259.009 144.863 258.833 138.15 259.028 131.974C259.134 128.635 258.753 122.535 262.892 121.426C264.15 121.089 265.154 121.436 265.979 122.242C265.979 113.321 265.979 104.401 265.979 95.4814C265.922 95.4814 265.865 95.4814 265.807 95.4814C264.732 95.4814 266.71 94.5613 267.186 94.5613C267.236 94.5613 267.287 94.5613 267.337 94.5613C267.547 94.5368 267.739 94.5353 267.882 94.5613C292.826 94.5613 317.769 94.5613 342.714 94.5613C342.714 90.0956 342.714 85.6276 342.714 81.1612C329.929 81.1612 317.144 81.1612 304.36 81.1612C223.991 81.1612 143.623 81.1612 63.2545 81.1612C63.1537 101.812 62.9692 122.461 62.9515 143.113C67.4913 140.564 73.3972 141.179 75.1781 147.558C75.1907 147.602 75.1922 147.643 75.1959 147.686C78.3303 146.061 82.2812 145.757 85.3956 147.636C88.6938 149.625 91.3867 153.939 89.8428 157.902C88.2923 161.882 83.3457 165.216 79.0823 165.013C80.1594 169.262 81.5322 173.432 82.479 177.715C83.3628 181.715 84.5451 186.573 83.508 190.664C82.6197 194.168 80.2246 196.21 76.845 197.326C74.0291 198.256 70.6694 198.91 70.5953 202.583C70.5679 203.951 70.6968 205.296 70.8783 206.636C75.5752 206.229 80.2535 205.356 84.7081 205.493C84.7081 200.215 84.7081 194.938 84.7081 189.661C84.7081 189.529 84.8007 189.412 84.943 189.311C85.2215 188.983 85.7394 188.671 86.1742 188.671C97.3504 188.673 108.527 188.716 119.703 188.664C119.221 185.724 119.886 181.639 122.273 179.721C122.97 179.161 124.087 178.614 125.148 178.532C124.558 176.061 122.286 174.367 120.569 172.487C118.66 170.397 117.474 168.228 117.498 165.342V165.341C117.289 165.33 117.147 165.282 117.144 165.186C116.945 158.749 120.616 154.619 125.92 151.518C125.923 151.515 125.931 151.512 125.935 151.51C126.232 151.215 126.766 150.932 127.158 150.934C135.912 150.953 144.66 151.307 153.347 152.443C153.747 152.495 153.816 152.651 153.706 152.832C183.933 152.775 214.148 151.745 244.375 151.729C244.746 151.729 244.917 151.804 244.957 151.914C244.993 151.939 245.018 151.968 245.018 152.006C245.018 157.814 245.018 163.622 245.018 169.429C245.018 169.511 244.983 169.588 244.922 169.66C245.184 169.957 244.102 170.655 243.517 170.655C209.67 170.666 175.828 171.364 141.982 171.38C141.429 172.303 140.687 173.148 139.806 173.856C139.75 173.901 139.658 173.942 139.547 173.983C140.641 175.539 141.554 177.303 142.397 178.733C144.8 181.162 146.447 184.99 146.028 187.55C145.996 187.745 145.792 187.913 145.524 188.039C145.758 188.505 145.923 188.989 145.979 189.497C145.995 189.637 145.998 189.775 146.003 189.912C146.331 189.675 146.883 189.44 147.197 189.438C179.196 189.2 211.194 188.897 243.194 188.884C243.793 188.533 245.019 188.42 245.019 188.715C245.019 194.276 245.019 199.836 245.019 205.397C245.019 205.481 244.981 205.559 244.918 205.631C245.195 205.919 244.087 206.605 243.513 206.606C208.987 206.611 174.463 206.928 139.938 207.142C138.719 211.901 137.696 216.712 136.684 221.521C136.844 221.457 137.008 221.416 137.159 221.416C172.662 221.416 208.164 221.416 243.667 221.416C244.278 221.232 245.019 221.214 245.019 221.443C245.019 226.757 245.019 232.071 245.019 237.384C245.019 238.028 242.874 238.351 242.874 237.96C242.874 232.903 242.874 227.847 242.874 222.789C207.388 222.789 171.902 222.789 136.417 222.789C136.185 223.887 135.954 224.985 135.719 226.081C134.89 229.944 134.113 233.886 133.053 237.733C170.161 237.744 207.267 238.213 244.376 238.219C245.824 238.219 244.263 239.348 243.518 239.348C206.589 239.344 169.663 238.878 132.733 238.864C131.62 242.674 130.197 246.371 128.121 249.78C127.379 250.999 126.562 252.24 125.673 253.453C184.759 253.455 243.846 253.455 302.935 253.455ZM309.64 115.12C307.963 111.73 309.739 109.045 312.854 107.699C312.605 107.49 313.275 106.904 313.939 106.783C317.659 106.104 322.388 107.338 323.937 111.2C325.558 115.239 322.139 118.045 318.56 119.08C315.158 120.063 311.208 118.293 309.64 115.12ZM314.756 107.607C314.837 107.746 314.698 107.933 314.153 108.134C314.111 108.15 314.075 108.168 314.035 108.184C309.561 109.929 311.017 114.99 314.085 117.271C315.499 118.321 317.254 118.782 318.929 118.057C320.014 117.585 320.892 116.868 321.469 116.006C322.419 114.588 322.545 112.782 321.409 111.051C320 108.9 317.662 107.663 315.173 107.609C315.034 107.604 314.896 107.603 314.756 107.607ZM245.018 117.355C245.018 122.916 245.018 128.476 245.018 134.038C245.018 134.118 244.983 134.196 244.923 134.267C245.183 134.566 244.102 135.262 243.517 135.262C191.917 135.268 140.32 135.974 88.7197 135.987C88.0937 136.291 87.0047 136.375 87.0047 136.097C87.0047 130.042 87.0047 123.987 87.0047 117.932C87.0047 117.288 89.1509 116.965 89.1509 117.357C89.1509 117.388 89.1509 117.419 89.1509 117.451C140.547 117.451 191.942 117.451 243.338 117.451C243.968 117.159 245.018 117.082 245.018 117.355ZM89.1501 134.855C140.392 134.847 191.631 134.152 242.872 134.131C242.872 128.948 242.872 123.764 242.872 118.58C191.631 118.58 140.391 118.58 89.1501 118.58C89.1501 124.005 89.1501 129.429 89.1501 134.855ZM96.8214 108.416C96.8022 108.455 96.7829 108.493 96.7636 108.531C96.694 108.67 96.8274 108.752 97.0541 108.78C97.5815 109.166 99.3077 108.519 99.0876 108.081C99.0661 108.036 99.0439 107.993 99.0224 107.949C100.809 104.376 102.595 100.803 104.382 97.2297C106.255 100.978 108.129 104.723 110.002 108.47C110.169 108.804 110.828 108.756 111.376 108.566C111.265 108.991 113.221 108.791 113.515 108.205C115.739 103.756 117.964 99.3077 120.188 94.8591C120.424 94.3857 118.359 94.5828 118.057 95.1858C116.013 99.2737 113.969 103.36 111.926 107.447C109.776 103.148 107.626 98.8492 105.477 94.5494C105.162 93.919 103.09 94.6472 103.331 95.125C103.354 95.171 103.377 95.2169 103.4 95.2636C101.614 98.8358 99.827 102.41 98.0408 105.983C96.1665 102.233 94.2908 98.4847 92.4172 94.7354C92.1023 94.1042 90.031 94.8324 90.2718 95.3102C92.452 99.6796 94.6367 104.048 96.8214 108.416ZM129.092 108.418C129.073 108.455 129.054 108.494 129.035 108.531C128.965 108.67 129.098 108.752 129.325 108.78C129.852 109.166 131.579 108.519 131.359 108.081C131.337 108.036 131.315 107.994 131.294 107.949C133.081 104.376 134.867 100.803 136.654 97.2297C138.527 100.978 140.401 104.723 142.274 108.47C142.441 108.804 143.1 108.756 143.648 108.566C143.536 108.991 145.493 108.791 145.787 108.205C148.011 103.756 150.236 99.3077 152.46 94.8591C152.696 94.3857 150.631 94.5828 150.329 95.1858C148.285 99.2737 146.241 103.36 144.198 107.447C142.048 103.148 139.898 98.8492 137.749 94.5494C137.434 93.919 135.362 94.6472 135.602 95.125C135.625 95.171 135.648 95.2162 135.671 95.2621C133.884 98.8351 132.098 102.409 130.311 105.983C128.437 102.233 126.562 98.4847 124.688 94.7354C124.373 94.1042 122.302 94.8324 122.542 95.3102C124.723 99.6796 126.907 104.048 129.092 108.418ZM161.363 108.416C161.344 108.455 161.325 108.493 161.305 108.531C161.236 108.67 161.369 108.752 161.596 108.78C162.123 109.166 163.849 108.519 163.629 108.081C163.608 108.036 163.586 107.993 163.564 107.949C165.351 104.376 167.137 100.803 168.923 97.2297C170.797 100.978 172.67 104.723 174.544 108.47C174.711 108.804 175.369 108.756 175.918 108.566C175.806 108.991 177.763 108.791 178.056 108.205C180.281 103.756 182.505 99.3077 184.729 94.8591C184.965 94.3857 182.9 94.582 182.598 95.1858C180.555 99.2737 178.511 103.36 176.468 107.447C174.318 103.148 172.168 98.8492 170.018 94.5494C169.703 93.919 167.632 94.6472 167.872 95.125C167.895 95.171 167.918 95.2169 167.941 95.2636C166.155 98.8358 164.368 102.41 162.582 105.983C160.708 102.233 158.832 98.4847 156.958 94.7354C156.643 94.1042 154.572 94.8324 154.812 95.3102C156.994 99.6796 159.179 104.048 161.363 108.416Z" fill="#040610"/>
</g>
<defs>
<clipPath id="clip0_266_335">
<rect width="393" height="263" fill="white"/>
</clipPath>
</defs>
</svg>
