<svg width="43" height="60" viewBox="0 0 43 60" fill="none" xmlns="http://www.w3.org/2000/svg">
<path d="M29.9382 23.7224L30.0966 23.8025C29.1886 24.1229 28.3252 24.6641 27.3104 24.7585C26.8529 24.4096 28.5531 24.1746 29.9382 23.7241V23.7224Z" fill="#EBC981"/>
<path d="M41.8021 31.9243C42.2615 37.0089 41.7149 41.9921 39.6515 46.6957C34.9639 57.3865 22.8862 62.4 12.3787 56.5302C3.74942 51.7091 -0.615946 40.6372 1.19109 31.1285C1.17862 31.5896 1.31037 33.523 1.66821 33.6762C1.66109 33.7456 1.59522 33.7118 1.66821 34.034C1.93348 35.2055 7.29049 43.6495 8.3569 45.0222C10.7087 48.0505 14.1608 50.6266 17.6342 52.2289C18.6828 52.7132 22.5835 54.1481 23.5271 54.2193C25.756 54.3885 31.357 50.8901 33.2423 49.4409C37.9317 45.8393 38.14 43.6638 39.3346 38.1733C39.4236 37.7673 39.2491 37.6053 39.2545 37.5768C39.5037 36.3929 40.1179 35.1983 40.4491 34.034C40.7268 33.053 40.8123 32.0098 41.1666 31.0484C41.366 31.3404 41.5102 31.6982 41.8039 31.9243H41.8021Z" fill="#A26B14"/>
<path d="M32.4858 56.5284C25.863 61.1519 17.5435 60.8137 10.9064 56.4483C3.36852 51.4901 -0.612294 42.1149 0.076693 33.2364C0.144345 32.3587 0.416737 29.8146 1.23213 29.3749C2.0849 28.9138 1.36387 29.7452 1.27129 30.2508C1.22501 30.5072 1.1983 30.8614 1.19118 31.1267C-0.615853 40.6354 3.74951 51.7073 12.3788 56.5284C22.8862 62.3982 34.964 57.3865 39.6516 46.6939C41.7132 41.9903 42.2616 37.0071 41.8022 31.9225C41.6954 30.7475 41.0812 29.4212 41.6028 29.0562C42.347 28.944 42.6657 34.2494 42.6782 34.8298C42.8562 43.2597 39.5412 51.6023 32.4858 56.5284Z" fill="#161617"/>
<path d="M12.2613 24.041C12.9663 24.2244 13.6108 24.3437 14.3318 24.4398L13.6143 24.5983C13.3918 24.5715 13.1514 24.4078 13.0179 24.4398C12.742 24.5021 11.5367 26.9501 11.3462 26.9875L8.08105 24.7585L7.04668 28.1037L4.33881 26.1934C3.73884 27.0533 3.7602 28.0752 3.82073 29.0598C3.9044 30.4288 5.43371 34.9224 6.12981 36.2256C6.185 36.3306 6.22595 36.7063 6.40933 36.7027L9.35577 33.7563C9.43588 33.7723 9.69047 34.6571 9.95218 35.2695C10.2353 35.9283 10.5895 36.206 10.5895 36.2647C10.5895 36.3555 9.54449 37.1727 10.0715 37.8172C11.1806 36.9502 10.7694 37.5359 11.5847 37.4184C13.0838 37.2048 13.9312 34.7265 15.6457 35.9852C16.3347 37.1353 15.4908 36.2665 14.6505 36.1437C13.9241 36.0386 14.2926 36.1437 13.8547 36.4624C13.4541 36.7543 12.6173 37.5216 12.2221 37.657C11.6025 37.8688 11.2821 37.7424 10.869 37.8154C10.8014 37.8279 10.837 37.9739 10.8299 37.9739C8.03654 38.3851 10.0252 36.117 10.0341 35.9425C10.0376 35.8606 9.64774 35.5384 9.35755 34.4702C9.22581 34.4203 7.53805 36.1668 7.28703 36.3805C6.93452 36.6813 6.48054 36.9021 6.1316 37.1763C4.98863 34.9598 4.36195 32.5171 3.543 30.1689C3.34716 30.1351 1.71104 33.2987 1.67188 33.6726C1.31403 33.5195 1.1805 31.5843 1.19475 31.1249C1.20187 30.8597 1.22858 30.5054 1.27486 30.249C1.48494 30.4965 1.67009 29.8217 1.8321 30.0906C1.48316 30.4662 1.73419 31.8851 1.79294 32.7183C2.06711 31.9937 3.28485 29.7452 3.34538 29.4942C3.41125 29.2218 3.3436 26.9892 4.18214 25.9513C4.99931 25.8997 5.3892 26.8575 6.13337 26.9857C7.70718 27.2598 7.08585 25.492 7.92439 24.0392C10.6465 25.7359 11.4014 27.6497 12.2648 24.0392L12.2613 24.041Z" fill="#FCFDFD"/>
<path d="M6.12989 26.9874C5.38572 26.8575 4.99761 25.8997 4.17866 25.9531C3.34012 26.9928 3.40777 29.2253 3.3419 29.4959C3.28137 29.7469 2.06363 31.9955 1.78946 32.7201C1.73071 31.8869 1.47968 30.468 1.82862 30.0923C2.555 32.0934 2.11348 29.7398 2.46598 29.4158C3.63031 29.0865 2.87902 30.1974 3.26179 28.2212C3.73001 25.8053 4.03267 24.9846 6.12811 26.9874H6.12989Z" fill="#0E1D2A"/>
<path d="M6.12992 37.1798C5.24866 37.8742 4.58638 37.7406 6.04981 40.3257C10.5523 48.2695 24.8269 51.3316 32.5268 46.9752C36.1534 44.9225 37.6969 40.6693 37.9016 36.7027C38.4446 37.1175 39.228 37.7834 39.2547 37.5786C39.2494 37.6089 39.422 37.7691 39.3348 38.175C38.142 43.6656 37.9337 45.8411 33.2425 49.4427C31.3572 50.8901 25.7563 54.3902 23.5273 54.2211C22.5855 54.1499 18.6848 52.715 17.6344 52.2307C14.161 50.6284 10.7107 48.0523 8.35711 45.0239C7.2907 43.6513 1.93369 35.2072 1.66842 34.0358C1.59543 33.7135 1.6613 33.7474 1.66842 33.6779C1.70759 33.3041 3.34371 30.1404 3.53954 30.1742C4.35849 32.5225 4.98339 34.9651 6.12814 37.1816L6.12992 37.1798Z" fill="#D69F37"/>
<path d="M16.2421 24.9169C15.359 24.8813 14.4902 24.7015 13.6143 24.5982L14.3318 24.4398C15.0332 24.5324 15.7418 24.4932 16.4414 24.5982C16.6088 24.7175 16.251 24.8991 16.2421 24.9169Z" fill="#EADEB2"/>
<path d="M13.6144 24.5983C14.4903 24.7015 15.3591 24.8795 16.2422 24.9169C15.1437 27.0836 15.1348 27.0391 14.3319 29.3767C13.5699 29.3037 13.237 28.6699 12.9788 29.8538C12.0406 29.6544 11.1291 29.8413 10.3902 30.4911C9.14578 31.586 9.28643 32.8661 9.2348 32.9996C9.16002 33.199 8.80752 33.2898 8.67755 33.4376C7.89955 31.8424 7.37614 30.1475 6.24919 28.7393C5.89668 28.6414 5.035 30.6781 4.61663 30.8098C4.03802 28.2141 4.64867 28.5898 3.82082 29.058C3.76029 28.0735 3.73893 27.0498 4.3389 26.1916L7.04677 28.1019L8.08114 24.7567L11.3463 26.9857C11.5368 26.9483 12.7438 24.5003 13.018 24.438C13.1515 24.4078 13.3919 24.5716 13.6144 24.5965V24.5983Z" fill="#D69F37"/>
<path d="M4.61627 30.8098C4.8673 31.9332 5.21268 33.1011 5.57231 34.1942C5.75212 34.7408 6.11175 35.8161 6.36811 36.0653C6.29868 36.1187 6.22391 36.206 6.12955 36.2238C5.43344 34.9206 3.90414 30.4253 3.82047 29.058C4.64832 28.5897 4.03767 28.2141 4.61627 30.8098Z" fill="#1D1811"/>
<path d="M8.67729 33.4376C8.08266 34.1141 6.89162 35.6541 6.36821 36.0654C6.11184 35.8161 5.75043 34.7408 5.5724 34.1942C5.21277 33.1011 4.86739 31.9332 4.61636 30.8098C5.03474 30.6781 5.89642 28.6414 6.24893 28.7393C7.37765 30.1476 7.90107 31.8424 8.67729 33.4376Z" fill="#875F17"/>
<path d="M14.3299 29.3767C14.2748 29.5387 14.0949 30.2971 13.9721 30.3327C13.9187 30.3469 13.2439 29.9125 12.9769 29.8556C13.235 28.6717 13.568 29.3037 14.3299 29.3784V29.3767Z" fill="#9A741E"/>
<path d="M41.1652 31.0483C40.8109 32.0115 40.7273 33.0548 40.4477 34.034C40.1166 35.2001 39.5024 36.3947 39.2531 37.5768C39.2247 37.7815 38.4431 37.1157 37.9001 36.7009C36.9013 35.9389 35.9008 35.2161 34.8344 34.5502L34.635 34.7496C34.5335 36.53 33.7751 37.9347 32.8831 39.4088C32.1229 39.2485 30.5687 38.2284 29.618 37.6569C29.1498 37.3756 28.2685 36.4267 27.6668 36.5424C27.0704 36.6582 21.7899 42.3516 20.7395 43.0727C20.3016 43.0353 14.8929 37.1335 14.7273 36.6635C14.7024 36.5905 14.7434 36.4196 14.7273 36.3056C15.3273 36.7739 16.9492 38.5667 17.6738 39.3322C18.6743 40.3879 19.6001 41.5167 20.6594 42.5172C21.7134 41.6021 22.6373 40.5393 23.645 39.5708C24.245 38.9939 27.049 36.2113 27.5867 36.1472C28.5071 36.0368 31.4731 38.353 32.4434 38.9334C32.7817 38.9761 32.8529 38.5364 32.9615 38.3762C33.3086 37.8581 33.9033 36.5335 34.0759 35.9478C34.7364 33.701 33.8356 33.5034 35.2705 34.3954C35.9275 34.8048 36.6254 35.2321 37.261 35.6701C37.5796 35.8908 37.8948 36.1561 38.217 36.3875C38.3274 36.4677 38.3772 36.5229 38.5357 36.6261C38.5802 36.6546 38.9149 37.0765 39.0128 36.984C39.376 35.7805 40.875 31.7516 40.8447 30.8917C41.1563 30.7599 41.0495 30.8828 41.1634 31.0501L41.1652 31.0483Z" fill="#F2EAE0"/>
<path d="M10.8283 37.9756C10.8692 39.423 13.2157 37.283 14.0133 36.5816L13.8548 36.4623C14.2928 36.1436 13.9243 36.0386 14.6506 36.1436C14.4797 36.1828 14.6506 36.2415 14.7308 36.3021C14.7468 36.416 14.7058 36.5869 14.7308 36.6599C14.8963 37.1317 20.3032 43.0335 20.7429 43.0691C21.7933 42.3481 27.0738 36.6546 27.6702 36.5389C28.2719 36.4231 29.1514 37.3721 29.6214 37.6533C29.6054 37.7477 29.4754 37.7726 29.5823 37.8919C29.7193 38.0468 32.0765 39.5547 32.6088 39.9624C32.8723 39.9535 32.8652 39.4426 32.8883 39.4052C33.7803 37.9329 34.5387 36.5264 34.6402 34.7461L34.8396 34.5467C35.906 35.2107 36.9065 35.9353 37.9053 36.6973C37.7005 40.6639 36.157 44.9171 32.5305 46.9698C24.8306 51.328 10.5559 48.2659 6.05345 40.3203C4.58824 37.7352 5.2523 37.8688 6.13356 37.1744C6.4825 36.9003 6.93471 36.6795 7.289 36.3786C7.54002 36.165 9.22777 34.4167 9.35952 34.4683C9.64971 35.5365 10.0414 35.8588 10.036 35.9407C10.0271 36.1151 8.04029 38.3833 10.8318 37.972L10.8283 37.9756Z" fill="#F0E359"/>
<path d="M10.8283 37.9756C10.8283 37.9756 10.7998 37.8278 10.8674 37.8171C11.2805 37.7424 11.6009 37.8706 12.2205 37.6587C12.6157 37.5234 13.4507 36.7561 13.8531 36.4641L14.0115 36.5834C13.2139 37.2848 10.8674 39.4248 10.8265 37.9774L10.8283 37.9756Z" fill="#D69F37"/>
<path d="M32.8848 39.4088C32.8616 39.4462 32.8705 39.9571 32.6053 39.966C32.0747 39.5583 29.7176 38.0504 29.5787 37.8955C29.4737 37.7762 29.6036 37.7495 29.6179 37.6569C30.5686 38.2284 32.1228 39.2485 32.883 39.4088H32.8848Z" fill="#DCB42D"/>
<path d="M31.9286 22.5277C31.6758 22.793 31.1702 23.0903 31.1328 23.2043C31.0866 23.3467 31.2735 26.5495 31.7293 25.8712C34.5849 23.2915 33.0396 25.2018 31.2521 26.5085L30.8943 23.4428C30.7981 23.2149 30.4172 23.5657 29.9382 23.7223C28.5531 24.1745 26.8529 24.4078 27.3105 24.7567C27.9585 26.9874 29.041 29.147 31.4106 29.852C31.9678 29.69 33.5683 25.5365 33.8389 24.7959C33.8834 24.673 33.9369 24.4843 33.8389 24.3579C34.0597 24.025 34.1345 23.6298 34.4763 23.0049C35.1599 22.9141 34.3054 24.3526 35.1137 23.6422C35.0834 23.7205 35.062 23.8078 35.0335 23.8808C34.9445 24.1104 34.884 24.365 34.795 24.5982C34.6561 24.9632 34.5404 25.3549 34.3962 25.7127C34.2306 26.1258 34.2484 26.3198 34.2377 26.3501C33.8443 27.3311 33.3689 28.3957 32.8847 29.3357C32.3862 30.2989 31.9251 30.1796 32.3274 30.7297L32.0088 31.2068C31.0385 30.4484 30.1163 30.3042 30.0184 30.2508C29.1585 29.7772 28.3217 29.1933 27.7894 28.3405C26.8921 26.902 26.5378 24.657 26.4363 24.479C26.3082 24.2564 25.1474 24.5609 24.6845 24.5982C22.5552 24.2279 24.5225 24.2956 24.6845 23.8024C26.5645 23.6493 28.1775 23.5229 29.94 22.7681C29.8884 23.0618 30.2836 22.8642 30.4581 22.9265C30.6272 22.9888 30.2534 23.9021 31.8913 22.3693L31.9304 22.5277H31.9286Z" fill="#161617"/>
<path d="M17.2767 23.8025C17.1699 24.1354 17.7004 24.0214 17.8339 24.3205C17.9425 24.5644 17.6933 24.2689 17.3568 24.8386C16.7444 25.873 16.1658 26.9198 15.6851 28.0236C15.6388 28.1322 15.5694 28.2337 15.5266 28.3423C14.8572 28.9601 14.9107 30.3131 14.2929 31.1285C13.1873 30.6229 12.509 30.0621 11.3856 30.7297C9.9738 31.57 9.73168 33.0762 10.1109 34.5521C10.1661 34.7657 10.1821 34.8227 10.2693 35.0292C10.3708 35.266 10.426 35.4547 10.588 35.6666C10.1857 35.6559 10.2782 34.8013 9.95066 35.2678C9.68717 34.6553 9.43259 33.7723 9.35425 33.7545L6.40781 36.7009C6.22443 36.7027 6.18527 36.3271 6.1283 36.2238C6.22265 36.206 6.29743 36.1188 6.36686 36.0653C6.89028 35.6541 8.08132 34.1141 8.67595 33.4376C8.80591 33.2898 9.15841 33.199 9.23319 32.9996C9.28304 32.8661 9.14239 31.586 10.3886 30.4911C11.1275 29.8431 12.039 29.6544 12.9772 29.8538C13.2443 29.9108 13.919 30.3469 13.9724 30.3309C14.0953 30.2971 14.2751 29.5387 14.3303 29.3749C15.135 27.0391 15.1421 27.0818 16.2406 24.9152C16.2495 24.8991 16.6073 24.7175 16.44 24.5965C15.7403 24.4914 15.0317 24.5288 14.3303 24.438C13.611 24.3437 12.9648 24.2226 12.2597 24.0392C11.6242 23.8737 11.1008 23.6867 10.5079 23.4019L10.5471 23.2434L10.6272 23.4019C11.3073 23.0547 9.64622 23.2345 10.2693 22.4458C12.3968 23.5942 14.9196 23.6458 17.2767 23.7989V23.8025Z" fill="#161617"/>
<path d="M36.2282 27.3061C35.2437 27.2438 35.703 27.3595 35.0336 28.3405C34.2912 28.1429 33.1251 27.7637 34.0776 28.7393C33.8782 29.487 34.1542 29.5814 34.2361 30.1725C34.2521 30.2882 33.6753 31.0306 35.5108 31.7659C36.3048 32.5955 38.3824 32.5599 39.5717 33.0406C39.6518 33.215 39.6803 33.4162 39.7301 33.5978C39.7658 33.7972 39.5023 33.9005 39.4916 33.9165C39.2085 33.5658 38.4465 33.9022 38.0192 33.9165C37.4887 33.9343 36.9831 33.8435 36.4668 33.8364C35.5962 33.8257 35.4858 33.9948 35.4324 33.9948C34.4052 33.9948 33.8729 32.3907 33.6005 32.0436C33.1892 31.5202 32.4041 30.8365 32.3258 30.7297C31.9252 30.1814 32.3845 30.3006 32.883 29.3357C33.369 28.3957 33.8444 27.3311 34.2361 26.3501C34.8147 26.8361 35.5037 27.1281 36.2265 27.3061H36.2282Z" fill="#086372"/>
<path d="M35.0335 28.3405C35.9984 28.5968 36.0928 28.6289 37.104 28.7393C38.3075 28.8692 38.749 28.8123 38.8558 28.8194C40.3424 28.9084 40.0469 29.6294 38.9359 29.7754C37.8428 29.9196 34.8537 29.5315 34.0792 28.7411C33.125 27.7672 34.2929 28.1464 35.0353 28.3423L35.0335 28.3405Z" fill="#C1E0EA"/>
<path d="M34.5566 30.1725C34.7275 30.2383 35.2972 30.9255 36.6663 31.1285C38.3362 31.376 38.6674 31.0146 39.1748 30.8899C39.9688 30.6941 39.6074 31.789 38.8561 32.0044C38.0852 32.2252 36.2835 32.0756 35.5109 31.7659C33.6771 31.0306 34.2522 30.2882 34.2361 30.1725C34.3341 30.1885 34.4907 30.1475 34.5548 30.1725H34.5566Z" fill="#A9DAE3"/>
<path d="M35.5909 26.1899C36.1446 26.3447 36.6965 26.4231 37.2626 26.5085C37.9409 26.6118 38.5907 26.5388 38.856 26.5886C39.5165 26.7133 39.4293 27.3773 39.294 27.4646C38.637 27.6373 37.9997 27.5269 37.3427 27.4646C36.951 27.4272 36.6146 27.4005 36.2282 27.3061C35.5054 27.1281 34.8164 26.8361 34.2378 26.3501C34.2503 26.3198 34.2325 26.1258 34.3963 25.7127C34.7737 25.9335 35.1707 26.0724 35.5909 26.1899Z" fill="#A9DAE3"/>
<path d="M38.5372 36.6226C38.3788 36.5193 38.3289 36.4624 38.2185 36.384C39.4398 35.047 38.6102 35.5099 37.2625 35.6665C36.6269 35.2286 35.929 34.8013 35.2721 34.3918L35.4305 33.993C35.4857 33.993 35.5943 33.8221 36.4649 33.8346C34.4585 34.7123 38.1242 35.1218 39.212 34.3918C39.4648 34.2209 39.4754 33.9378 39.4915 33.9147C39.5022 33.8987 39.7656 33.7972 39.73 33.596C39.7354 33.6138 39.9917 33.6726 39.9686 33.8755C39.949 34.0447 38.847 37.3525 38.5354 36.6226H38.5372Z" fill="#042731"/>
<path d="M39.0161 30.4911C39.0482 30.6353 38.9396 30.8223 39.1746 30.8899C38.6672 31.0146 38.336 31.376 36.6661 31.1285C35.297 30.9255 34.7273 30.2383 34.5564 30.1725C35.4519 29.1238 35.119 29.7559 36.0287 29.9339C37.0221 30.1297 38.0814 30.0158 39.0143 30.4911H39.0161Z" fill="#14798C"/>
<path d="M38.6174 24.6784C38.7206 24.7033 38.9521 24.6285 39.0162 24.7175C38.9645 25.305 39.2957 25.4546 38.6174 25.5543C38.1705 25.6201 37.7076 25.524 37.2643 25.4742C36.7089 25.4118 36.3599 25.3495 35.8312 25.1555C35.4876 25.0291 35.1137 24.787 34.7968 24.5982C34.8858 24.365 34.9481 24.1122 35.0354 23.8808C36.4365 24.6623 37.9017 24.4968 38.6191 24.6766L38.6174 24.6784Z" fill="#A9DAE3"/>
<path d="M37.7414 23.6422C37.8838 23.8986 38.6031 23.879 38.6173 24.6766C37.8999 24.4968 36.4347 24.6606 35.0335 23.8808C35.062 23.8078 35.0834 23.7206 35.1137 23.6422C35.2258 23.352 35.313 23.0529 35.4323 22.7663C36.0911 23.2897 36.9118 23.5443 37.7414 23.6422Z" fill="#086372"/>
<path d="M39.0163 22.9265C38.9735 23.174 39.1142 23.6262 38.897 23.7223C38.5018 23.7722 38.1297 23.6885 37.7415 23.6422C36.9119 23.5443 36.0912 23.2897 35.4325 22.7663C35.5161 22.5651 35.5785 22.323 35.671 22.1289C36.7517 22.5544 37.868 22.7805 39.0163 22.9247V22.9265Z" fill="#A9DAE3"/>
<path d="M36.3083 21.253C36.4561 21.2548 37.9462 22.1503 39.0945 22.1289C39.0482 22.355 39.0536 22.6933 39.0144 22.9248C37.8661 22.7788 36.7516 22.5527 35.6692 22.1289C35.8098 21.8352 35.9914 21.2477 36.3065 21.253H36.3083Z" fill="#086372"/>
<path d="M39.2548 21.3331C39.1889 21.5752 39.1462 21.8779 39.0963 22.1289C37.9462 22.1503 36.4561 21.2548 36.3101 21.253C36.0876 20.9468 36.6199 20.5871 36.7089 20.4572L39.2565 21.3331H39.2548Z" fill="#A9DAE3"/>
<path d="M38.9362 29.7736C38.8507 30.2526 38.9682 30.2775 39.0163 30.4911C38.0816 30.0158 37.0241 30.1279 36.0307 29.9339C35.121 29.7558 35.4521 29.1238 34.5584 30.1724C34.4943 30.1475 34.3376 30.1885 34.2397 30.1724C34.1578 29.5796 33.8801 29.487 34.0812 28.7393C34.8557 29.5315 37.8449 29.9178 38.938 29.7736H38.9362Z" fill="#042731"/>
<path d="M36.2284 27.3061C36.6147 27.4005 36.9512 27.429 37.3429 27.4646C37.2129 27.6088 37.3393 27.6444 37.5013 27.7032C37.0011 27.5892 37.115 28.2497 37.1025 28.7375C36.0913 28.6289 35.9987 28.5951 35.032 28.3387C35.6996 27.356 35.2421 27.2403 36.2266 27.3044L36.2284 27.3061Z" fill="#14798C"/>
<path d="M39.2548 19.7415C39.4382 19.8341 39.6073 19.9997 39.812 20.0602C39.7052 20.2934 39.5824 20.5373 39.4934 20.7777L37.1843 19.7433C37.4406 19.4656 37.5795 19.3249 37.9017 19.1059C38.329 19.3623 38.815 19.5208 39.2548 19.7433V19.7415Z" fill="#C1E0EA"/>
<path d="M37.503 27.7031C38.0033 27.8812 39.4346 27.7975 38.856 28.8176C38.7492 28.8105 38.3077 28.8675 37.1042 28.7375C37.1167 28.2497 37.0027 27.5892 37.503 27.7031Z" fill="#14798C"/>
<path d="M38.8559 32.0026C39.1337 31.8869 39.4167 32.6988 39.5734 33.037C38.3824 32.5563 36.3065 32.5919 35.5125 31.7623C36.2851 32.0721 38.0851 32.2216 38.8577 32.0009L38.8559 32.0026Z" fill="#042731"/>
<path d="M39.4934 20.7759C39.3883 21.0607 39.2619 21.3047 39.2548 21.3331L36.7072 20.4572C36.8763 20.2062 36.9689 19.9747 37.1843 19.7397L39.4934 20.7741V20.7759Z" fill="#055268"/>
<path d="M38.6173 25.5543C38.7811 25.7875 39.1318 26.4712 38.8558 26.5887C38.5924 26.5388 37.9425 26.6118 37.2625 26.5086V25.4742C37.7058 25.524 38.1686 25.6184 38.6155 25.5543H38.6173Z" fill="#086372"/>
<path d="M40.1308 19.4229L38.6976 18.7054C38.5196 18.5558 39.4863 17.9416 39.7729 18.068C41.1367 19.0347 40.4245 18.8745 40.1308 19.4211V19.4229Z" fill="#C1E0EA"/>
<path d="M40.1307 19.4228C40.0452 19.5813 39.8868 19.8982 39.812 20.0602C39.6073 19.9997 39.4381 19.8341 39.2548 19.7415L38.6975 18.8656V18.7071L40.1307 19.4246V19.4228Z" fill="#033548"/>
<path d="M38.6976 18.8656L39.2548 19.7415C38.8133 19.519 38.3273 19.3623 37.9018 19.1042C38.1706 18.9208 38.4181 18.5469 38.6976 18.8656Z" fill="#14798C"/>
<path d="M40.8464 30.8881C40.8785 31.7463 39.3777 35.7769 39.0145 36.9804C38.9148 37.073 38.5801 36.6511 38.5374 36.6226C38.8489 37.3525 39.9509 34.0447 39.9705 33.8755C39.9937 33.6744 39.7373 33.6138 39.732 33.596C39.6821 33.4144 39.6518 33.2132 39.5735 33.0388C39.4186 32.6987 39.1355 31.8887 38.856 32.0044C39.6073 31.789 39.9687 30.6941 39.1747 30.8899C38.9397 30.8241 39.0483 30.6353 39.0163 30.4911C38.9682 30.2775 38.8507 30.2543 38.9361 29.7737C40.0471 29.6277 40.3426 28.9066 38.856 28.8176C39.4329 27.7975 38.0033 27.8812 37.503 27.7031C37.3392 27.6444 37.2146 27.6088 37.3445 27.4646C38.0015 27.5269 38.6388 27.6373 39.2958 27.4646C39.4311 27.3773 39.5183 26.7133 38.8578 26.5887C39.1338 26.4712 38.783 25.7875 38.6192 25.5543C39.2958 25.4546 38.9664 25.3068 39.018 24.7175C38.954 24.6285 38.7225 24.7033 38.6192 24.6784C38.605 23.8808 37.8858 23.9004 37.7433 23.644C38.1314 23.6903 38.5017 23.7722 38.8988 23.7241C39.116 23.628 38.9753 23.1758 39.018 22.9283C39.0572 22.6969 39.0519 22.3568 39.0982 22.1325C39.1498 21.8815 39.1925 21.5788 39.2566 21.3367C39.2637 21.3082 39.3901 21.0643 39.4952 20.7794C39.5842 20.5391 39.707 20.297 39.8139 20.062C39.8886 19.9 40.0471 19.5831 40.1325 19.4246C40.4263 18.8781 41.1384 19.0383 39.7747 18.0716C39.4881 17.9434 38.5213 18.5594 38.6994 18.7089V18.8674C38.4199 18.5487 38.1706 18.9243 37.9036 19.1059C37.5831 19.3249 37.4442 19.4656 37.1861 19.7433C36.9689 19.9765 36.8763 20.2097 36.709 20.4608C36.6199 20.5925 36.0876 20.9504 36.3102 21.2566C35.995 21.2512 35.8152 21.8387 35.6728 22.1325C35.5802 22.3265 35.5161 22.5687 35.4342 22.7698C35.315 23.0565 35.2277 23.3556 35.1156 23.6458C34.3073 24.3561 35.1619 22.9176 34.4782 23.0084C35.0479 21.9687 35.4253 20.8257 36.1499 19.8626C38.3273 16.9749 42.7051 16.0456 42.9971 17.3149C43.0558 18.0271 42.2832 18.0039 41.9218 18.3101C38.5124 21.2049 39.9135 26.1774 40.5278 29.9748C40.5545 30.1368 40.8286 30.427 40.8464 30.8899V30.8881Z" fill="#0E1D2A"/>
<path d="M40.5686 17.5108C41.133 17.4182 41.7952 18.1107 40.8873 18.3066C40.5276 17.995 39.8048 17.6354 40.5686 17.5108Z" fill="#DDF0F7"/>
<path d="M41.6032 17.1921C42.529 17.2277 41.9877 18.3315 41.0068 17.3915C41.0103 17.3577 41.5729 17.1903 41.6032 17.1921Z" fill="#FCFDFD"/>
<path d="M27.7878 28.3405C27.0187 27.8385 26.4312 27.0088 25.598 26.5887C23.4687 25.5116 18.6939 25.4724 16.7587 26.9875C16.237 27.3952 16.0679 28.0877 15.6833 28.0218C16.164 26.9162 16.7426 25.8712 17.3551 24.8368C17.4744 24.8172 17.5794 24.6107 17.6346 24.5983C17.9782 24.5146 21.2789 24.8724 24.6811 24.5983C25.144 24.5609 26.3048 24.2547 26.433 24.479C26.5362 24.657 26.8905 26.902 27.786 28.3405H27.7878Z" fill="#086372"/>
<path d="M32.0089 31.2068C33.8284 32.6293 33.8604 34.6695 33.1234 36.7009C33.102 36.6956 33.0682 36.7009 33.0433 36.7009C32.9311 36.7062 32.972 36.9199 32.1673 36.8593C32.2706 35.3087 32.5465 33.742 31.9679 32.2412C31.8896 32.2536 31.9323 33.6548 31.9288 33.8346C31.7133 34.4666 31.6457 35.1004 30.9727 35.428C30.8962 34.9526 30.3923 33.9147 30.0968 33.5177C30.3069 33.4518 30.3229 33.1385 30.3354 33.1189C30.8481 32.3996 30.9353 31.9795 30.4938 31.1285C30.3763 30.9024 29.7675 30.5054 30.0167 30.2525C30.1146 30.306 31.0368 30.4502 32.0071 31.2086L32.0089 31.2068Z" fill="#3999AC"/>
<path d="M35.4324 33.9948L35.274 34.3936C33.8391 33.5017 34.7399 33.6993 34.0794 35.9461C33.9067 36.5336 33.3121 37.8581 32.9649 38.3744C32.9649 37.8902 33.9138 36.8985 33.1234 36.7027C33.8586 34.6713 33.8284 32.6311 32.0089 31.2086L32.3276 30.7315C32.4059 30.8383 33.1892 31.5219 33.6023 32.0454C33.8747 32.3925 34.407 33.9966 35.4342 33.9966L35.4324 33.9948Z" fill="#0E1D2A"/>
<path d="M35.8313 25.1555C35.4397 25.419 35.8224 25.8249 35.5928 26.1899C35.1726 26.0724 34.7756 25.9335 34.3982 25.7127C34.5406 25.3549 34.6581 24.9632 34.797 24.5983C35.1139 24.787 35.4877 25.0291 35.8313 25.1555Z" fill="#086372"/>
<path d="M23.5683 39.2503C23.96 39.2664 23.4651 39.521 23.6485 39.569C22.6408 40.5375 21.7168 41.5986 20.6629 42.5155C19.6036 41.5149 18.6778 40.3862 17.6772 39.3305C17.0915 38.6361 17.0755 38.2712 17.0399 38.216C17.6826 39.6563 21.407 39.9981 22.5731 39.8094C22.9986 39.7399 23.2479 39.5281 23.5683 39.2521V39.2503Z" fill="#161617"/>
<path d="M38.2185 36.3822C37.8962 36.1526 37.5829 35.8855 37.2625 35.6648C38.6102 35.5063 39.4398 35.0452 38.2185 36.3822Z" fill="#086372"/>
<path d="M39.4934 33.9147C39.4773 33.9379 39.4684 34.2227 39.2138 34.3918C38.1261 35.1218 34.4604 34.7123 36.4668 33.8346C36.9849 33.8417 37.4905 33.9325 38.0192 33.9147C38.4483 33.9005 39.2085 33.564 39.4916 33.9147H39.4934Z" fill="#A9DAE3"/>
<path d="M37.2643 25.4742V26.5085C36.6981 26.4231 36.1444 26.3447 35.5925 26.1899C35.8222 25.8249 35.4394 25.419 35.8311 25.1555C36.3616 25.3495 36.7088 25.4119 37.2643 25.4742Z" fill="#086372"/>
<path d="M24.6027 33.4376C24.6027 33.4376 24.5849 33.4946 24.5226 33.596C23.465 34.3438 22.9434 36.2683 21.537 36.4624C19.3347 36.7668 18.3466 34.3829 18.1917 34.2334C18.1525 34.196 17.7644 34.1942 17.2766 33.6761C17.1502 33.5408 17.0861 33.3308 16.958 33.199C17.2232 32.907 18.1009 33.507 18.1525 33.2382L16.7995 30.6905H18.0742C17.6327 30.2366 17.0986 29.8378 16.9597 29.1773C18.0653 28.4847 19.7139 30.3291 18.6315 28.7785C18.2879 27.648 23.109 26.1222 23.4099 27.9827C22.5464 30.3113 21.6313 29.414 24.8039 29.058C26.059 29.957 22.7796 30.8312 23.5291 31.1285C24.6454 31.2585 25.6424 30.2793 26.0376 30.849C26.278 32.1522 24.2804 32.1842 24.6045 33.4376H24.6027Z" fill="#87C6D2"/>
<path d="M16.9581 33.1972C17.0862 33.3307 17.1503 33.5408 17.2767 33.6744C17.1147 34.0358 17.8393 34.4007 16.8779 34.7087C16.8566 34.5236 15.71 32.9676 14.9677 31.5237C15.7919 31.408 16.4649 32.6791 16.9581 33.1954V33.1972Z" fill="#14798C"/>
<path d="M30.3371 33.1189L30.4955 31.1285C30.9371 31.9795 30.8498 32.3996 30.3371 33.1189Z" fill="#042731"/>
<path d="M27.7878 28.3405C28.3201 29.195 29.1586 29.7772 30.0167 30.2508C29.7693 30.5036 30.3781 30.9006 30.4939 31.1267L30.3354 33.1171C30.3212 33.1367 30.3069 33.45 30.0968 33.5159C28.523 31.4027 25.5784 32.0436 24.6028 33.4358C24.2787 32.1824 26.2763 32.1522 26.0359 30.8472C25.6407 30.2775 24.6437 31.2567 23.5274 31.1267C22.7761 30.8294 26.0573 29.9552 24.8021 29.0562C21.6296 29.4122 22.5447 30.3095 23.4082 27.9809C23.1091 26.1204 18.2861 27.6462 18.6298 28.7767C19.7122 30.3273 18.0636 28.4811 16.958 29.1755C17.0969 29.8342 17.631 30.233 18.0725 30.6887H16.7978L18.1508 33.2364C18.0992 33.5034 17.2233 32.9052 16.9562 33.1972C16.4613 32.6809 15.7884 31.4098 14.9658 31.5255C14.8964 31.3902 14.6525 31.1961 14.6472 31.1677C14.5653 30.7333 15.3023 28.8853 15.5231 28.3405C15.5676 28.2319 15.6352 28.1304 15.6815 28.0218C16.0661 28.0859 16.2352 27.3951 16.7568 26.9874C18.6921 25.4724 23.4669 25.5133 25.5962 26.5886C26.4294 27.0088 27.0169 27.8384 27.786 28.3405H27.7878Z" fill="#3999AC"/>
<path d="M28.5442 30.6496L28.6635 30.9291C27.889 32.3213 27.4333 31.4614 28.5442 30.6496Z" fill="#044854"/>
<path d="M31.7702 36.781L31.4515 37.8955C31.318 37.8136 30.5222 37.4255 30.4954 37.3774C30.4296 37.2546 31.1916 36.7828 30.9726 35.4262C31.6455 35.1004 31.7132 34.4666 31.9286 33.8328C31.9072 34.828 31.7684 35.7876 31.7702 36.7792V36.781Z" fill="#086372"/>
<path d="M31.4517 37.8955L31.7704 36.781C32.0659 37.0694 32.1478 36.8594 32.1692 36.8611C32.9739 36.9199 32.933 36.7063 33.0451 36.7027C32.4131 38.9904 32.3935 38.483 31.4517 37.8973V37.8955Z" fill="#086372"/>
<path d="M32.1673 36.8612C32.1477 36.8612 32.064 37.0695 31.7685 36.781C31.7685 35.7894 31.9056 34.8298 31.9269 33.8346C31.9305 33.6566 31.8878 32.2555 31.9661 32.2412C32.5447 33.7438 32.2688 35.3087 32.1655 36.8594L32.1673 36.8612Z" fill="#044854"/>
<path d="M23.3298 37.3383C23.3939 38.3976 24.8608 38.1394 23.5683 39.2486C23.2479 39.5245 22.9986 39.7364 22.5731 39.8058C21.407 39.9945 17.6826 39.6545 17.0399 38.2124C16.3527 37.146 16.082 37.438 16.4025 35.9425C16.4648 35.6559 16.7906 35.0755 16.8013 35.0274C17.8072 37.495 20.9993 38.337 23.3315 37.3365L23.3298 37.3383Z" fill="#086372"/>
<path d="M24.5225 33.596C24.3534 33.8791 23.3154 37.1175 23.3279 37.3383C20.9957 38.3388 17.8053 37.4967 16.7977 35.0292C16.8297 34.8885 16.8867 34.796 16.8778 34.7105C17.8392 34.4007 17.1146 34.0375 17.2766 33.6761C17.7644 34.1942 18.1543 34.196 18.1917 34.2334C18.3448 34.3847 19.3346 36.7668 21.5369 36.4624C22.9451 36.2683 23.465 34.3438 24.5225 33.596Z" fill="#3999AC"/>
<path d="M15.5247 28.3405C15.304 28.8853 14.5669 30.7315 14.6488 31.1677C14.6542 31.1979 14.8981 31.392 14.9675 31.5255C15.7117 32.9693 16.8582 34.5254 16.8778 34.7105C16.8867 34.796 16.8297 34.8885 16.7977 35.0292C16.787 35.0773 16.4612 35.6576 16.3989 35.9443C16.0784 37.4398 16.349 37.146 17.0362 38.2142C17.0718 38.2694 17.0879 38.6344 17.6736 39.3287C16.949 38.5649 15.3271 36.7721 14.7271 36.3021C14.647 36.2398 14.4761 36.1811 14.647 36.1437C15.4873 36.2665 16.3312 37.1335 15.6422 35.9852C13.9278 34.7265 13.0803 37.2047 11.5813 37.4184C10.7659 37.5341 11.1772 36.9484 10.068 37.8172C9.53927 37.1727 10.5861 36.3555 10.5861 36.2647C10.5861 36.206 10.2318 35.9283 9.94875 35.2695C10.2763 34.8013 10.1837 35.6559 10.5861 35.6683C11.4834 36.8362 12.7634 36.384 13.1337 35.7876C13.4133 35.3372 13.8566 31.5487 13.8512 33.199C13.8441 35.1307 13.3171 35.2589 15.7223 35.5882C16.0375 35.2624 15.7401 34.8601 15.6832 34.5538C15.3182 32.6382 13.6963 29.9036 11.3837 30.7315C12.5071 30.0639 13.1836 30.6247 14.291 31.1303C14.9087 30.3149 14.8571 28.9601 15.5247 28.3441V28.3405Z" fill="#0E1D2A"/>
<path d="M15.6853 34.5521C13.8426 33.9842 14.2379 33.6246 14.0919 33.3183C14.0759 33.2845 13.9459 33.2578 13.8533 33.1991C13.8587 31.5469 13.4171 35.3354 13.1358 35.7876C12.7655 36.3841 11.4837 36.8363 10.5882 35.6684C10.4262 35.4565 10.371 35.2678 10.2695 35.031C12.5893 36.4784 12.9418 33.0192 13.216 31.4882C12.9614 30.7511 10.4386 31.1232 10.1111 34.5539C9.73007 33.078 9.97397 31.5718 11.3858 30.7315C13.6984 29.9037 15.3203 32.6383 15.6853 34.5539V34.5521Z" fill="#3999AC"/>
<path d="M10.2695 35.0292C10.1805 34.8227 10.1663 34.7657 10.1111 34.5521C10.4387 31.1214 12.9614 30.7493 13.216 31.4864C12.9418 33.0174 12.5893 36.4784 10.2695 35.0292Z" fill="#87C6D2"/>
<path d="M15.6853 34.5521C15.7441 34.8583 16.0396 35.2624 15.7245 35.5865C13.3193 35.2571 13.8463 35.1289 13.8534 33.1973C13.946 33.256 14.0759 33.2827 14.0919 33.3165C14.2379 33.6245 13.8427 33.9824 15.6853 34.5503V34.5521Z" fill="#14798C"/>
<path d="M30.0968 33.5159C30.3923 33.9147 30.8961 34.9509 30.9727 35.4262C31.1917 36.7828 30.4279 37.2546 30.4956 37.3774C30.5205 37.4255 31.3181 37.8118 31.4516 37.8955C32.3934 38.4813 32.413 38.9886 33.045 36.7009C33.0681 36.7009 33.102 36.6956 33.1251 36.7009C33.9156 36.8968 32.9667 37.8884 32.9667 38.3727C32.8598 38.5329 32.7869 38.9726 32.4486 38.9299C31.4783 38.3477 28.5123 36.0315 27.5919 36.1437C27.0542 36.2078 24.2502 38.9922 23.6502 39.5672C23.4686 39.5192 23.9635 39.2646 23.5701 39.2486C24.8626 38.1394 23.3956 38.3976 23.3315 37.3383C23.3191 37.1175 24.357 33.8773 24.5261 33.596C24.5867 33.4928 24.6009 33.4447 24.6062 33.4376C25.5819 32.0436 28.5283 31.4044 30.1003 33.5177L30.0968 33.5159Z" fill="#042731"/>
<path d="M27.8679 35.9051C26.8941 35.8926 25.7582 37.5483 25.0016 37.737C24.6473 36.9252 24.3892 35.6398 24.5245 34.7906C24.6847 33.7776 25.7743 32.8945 26.7534 32.7201C28.3183 33.2666 28.1902 34.4862 27.8679 35.9051Z" fill="#87C6D2"/>
<path d="M27.8681 35.9051C28.1904 34.4862 28.3186 33.2666 26.7537 32.7201C29.1553 32.2928 31.1315 34.6517 29.7393 36.781C29.5043 36.8415 28.4379 35.9122 27.8681 35.9051Z" fill="#3999AC"/>
<path d="M25.0015 37.7371C24.9784 37.7424 24.9642 37.9115 24.5244 37.7762C24.3286 37.6267 23.9066 35.2161 24.5244 34.7906C24.3909 35.6398 24.6473 36.9252 25.0015 37.7371Z" fill="#679FAB"/>
<path d="M31.9285 22.5277L31.8893 22.3693C30.2514 23.9021 30.6235 22.9888 30.4561 22.9265C30.2834 22.8624 29.8864 23.06 29.9381 22.7681C32.7688 21.5539 33.8993 19.154 32.8845 16.1987C32.7741 15.8764 32.2827 15.1714 32.167 14.8456C30.9475 11.3473 32.5747 7.90768 28.4248 4.05683C27.6895 3.37497 27.2533 3.02958 26.3543 2.54355C25.2006 1.91866 23.9971 1.4807 22.6921 1.26884C22.6405 1.25994 22.5835 1.27596 22.5337 1.26884C21.7414 1.15312 21.0275 1.07122 20.2246 1.11039C19.8525 1.12819 19.4769 1.21721 19.1101 1.26884C17.3387 1.52165 16.4841 1.88839 14.9691 2.78212C14.4189 3.10614 14.0219 3.27349 13.5359 3.73815C13.4131 3.85566 13.3223 3.90907 13.2172 4.05683C12.1027 4.79389 11.558 5.68761 10.9883 6.84305C9.45005 9.95862 10.3545 11.4933 9.39486 13.9697C9.12959 14.6569 8.36227 15.5951 8.12014 16.1987C7.14096 18.652 7.93143 21.1871 10.2708 22.4494C9.64767 23.2381 11.3087 23.0583 10.6286 23.4054L10.5485 23.247L10.5093 23.4054C8.13439 22.2678 6.62823 20.2008 6.92555 17.4734C7.09468 15.9227 8.42102 14.7263 8.83584 13.2522C9.48922 10.936 8.6489 8.87262 10.7461 5.6075C15.0759 -1.13282 26.8919 -1.31976 30.9724 6.00629C32.8293 9.34085 31.9979 11.1105 32.5658 13.5709C33.1551 16.131 36.041 18.2015 31.9285 22.5295V22.5277Z" fill="#0E1D2A"/>
<path d="M29.9381 22.7663C28.1756 23.5212 26.5626 23.6476 24.6826 23.8007C21.9267 24.0268 20.0182 23.9787 17.2764 23.8007C14.9193 23.6476 12.3966 23.5942 10.2691 22.4476C7.92973 21.1854 7.14104 18.6502 8.11844 16.1969C8.36057 15.5916 9.12611 14.6533 9.39316 13.9679C10.3528 11.4915 9.44834 9.95684 10.9865 6.84127C10.9189 8.32962 11.0969 8.16583 12.101 8.43466C12.3966 8.513 12.0921 8.50588 12.2595 8.59311C12.0369 8.66789 11.4815 9.21445 11.3836 9.42987C10.6429 11.0517 11.6738 9.62748 12.2203 9.46903C14.0932 8.92603 14.4564 10.5871 14.7288 11.9383C14.6896 12.7502 14.5614 11.5805 14.2517 11.1016C13.8173 10.4322 13.0393 10.1331 12.3004 10.5052C11.8358 10.7384 11.9675 11.0339 11.9426 11.0624C11.5367 11.5128 11.5794 11.1105 11.0667 12.4155C10.6714 13.4178 10.2299 14.1371 11.3853 15.2818C10.9848 15.3406 11.0827 15.3619 11.0667 15.3619C11.0133 15.3619 10.4329 15.191 9.99135 15.2818C8.74156 15.5382 8.06681 17.639 9.31482 18.068C9.35043 20.8916 14.873 22.6666 17.556 22.8464C20.1695 23.0209 24.3123 23.028 26.714 22.0506C28.5281 21.3118 31.1505 19.8412 31.293 17.7511C31.3784 16.4853 31.2769 15.9833 30.0182 15.5221C29.8936 15.4759 29.7494 15.3993 29.6195 15.3637C29.283 14.2528 29.3524 13.0101 28.7435 12.0185C28.7328 11.9651 28.9981 11.3295 28.2664 11.2227L28.3056 11.0642C26.0713 9.51888 25.6529 11.5983 25.2398 12.6576C25.1117 9.56695 27.1804 8.40262 29.4201 10.9058C30.328 11.2209 28.4249 9.02929 27.7875 8.83524C29.4129 8.69815 29.2135 7.18665 28.7026 7.24184C28.3536 7.77238 27.7376 7.86496 27.2303 8.11777C28.8379 7.02286 29.0124 5.85853 28.4249 4.05684C32.5748 7.90947 30.9476 11.3473 32.1671 14.8456C32.281 15.1732 32.7724 15.8782 32.8846 16.1987C33.8994 19.154 32.7689 21.5539 29.9381 22.7681V22.7663Z" fill="#3999AC"/>
<path d="M13.2154 4.05327C13.146 4.15119 12.8985 4.38797 12.8968 4.41111C12.8611 4.77608 14.1804 7.15104 12.1009 8.43287C11.0968 8.16404 10.9188 8.32961 10.9865 6.83948C11.5562 5.68405 12.101 4.79032 13.2154 4.05327Z" fill="#A9DAE3"/>
<path d="M19.1086 1.26705C20.8338 3.00821 17.2642 4.07819 17.3176 2.30142L14.9694 2.77855C16.4844 1.88483 17.339 1.51808 19.1104 1.26527L19.1086 1.26705Z" fill="#FCFDFD"/>
<path d="M26.3544 2.54177C25.6796 3.51205 25.1616 2.27294 23.2085 2.78034C22.4946 2.41893 23.1622 1.82964 22.6905 1.26706C23.9954 1.47892 25.1989 1.91688 26.3526 2.54177H26.3544Z" fill="#FCFDFD"/>
<path d="M12.4999 8.59312C12.4216 8.60558 12.3148 8.57532 12.2614 8.59312C12.0923 8.50589 12.3985 8.51301 12.1029 8.43467C14.1841 7.15284 12.8631 4.77788 12.8987 4.41291C12.9005 4.38977 13.1462 4.15298 13.2174 4.05507C13.3225 3.9073 13.4133 3.85389 13.5361 3.73639L13.6945 3.77556C13.4115 4.96838 13.7782 6.61696 13.5361 7.5178C13.3011 8.39372 12.6228 8.20145 12.5017 8.59312H12.4999Z" fill="#87C6D2"/>
<path d="M22.532 1.26705C21.5778 1.51986 20.8336 2.33169 20.223 1.1086C21.0259 1.07122 21.7398 1.15133 22.532 1.26705Z" fill="#FCFDFD"/>
<path d="M24.6828 23.8024C24.5208 24.2974 22.5535 24.2297 24.6828 24.5982C21.2806 24.8724 17.9781 24.5146 17.6362 24.5982C17.5811 24.6125 17.476 24.8172 17.3567 24.8368C17.6932 24.2689 17.9425 24.5626 17.8339 24.3187C17.7003 24.0214 17.1698 24.1336 17.2766 23.8007C20.0183 23.9787 21.9268 24.0268 24.6828 23.8007V23.8024Z" fill="#0E1D2A"/>
<path d="M12.1011 17.8295C11.8341 18.3867 13.7942 19.859 14.3711 20.2187C15.4286 20.8792 16.6303 21.3474 17.8356 21.6518C17.946 21.6803 18.0385 21.707 18.1543 21.7319C19.6942 22.0631 20.2479 22.1022 21.8164 21.812C22.1742 21.7462 22.5072 21.5948 22.8508 21.4934C23.3457 21.3492 23.8495 21.2245 24.3231 21.0162C25.0975 20.6744 28.2042 18.8923 27.9461 18.0698C28.0564 18.0235 28.2006 17.5998 28.5033 17.7511C29.0908 18.3974 30.6753 18.4205 31.2895 17.7511C31.1471 19.843 28.5264 21.3118 26.7105 22.0506C24.3106 23.028 20.1678 23.0227 17.5525 22.8464C14.8696 22.6666 9.34698 20.8916 9.31137 18.068C9.92202 18.2781 11.195 18.0039 11.6205 17.5108C11.7842 17.5998 11.9374 17.7387 12.0976 17.8295H12.1011Z" fill="#87C6D2"/>
<path d="M11.0668 15.3619C11.8698 15.7821 12.2632 16.7719 11.6241 17.5126C11.1986 18.0057 9.92565 18.2799 9.31499 18.0698C8.06698 17.6407 8.74173 15.5382 9.99152 15.2836C10.433 15.1928 11.0134 15.3637 11.0668 15.3637V15.3619Z" fill="#F0D2D9"/>
<path d="M30.0185 15.5204C31.2772 15.9815 31.3786 16.4835 31.2932 17.7493C30.6772 18.4187 29.0945 18.3956 28.507 17.7493C27.729 16.893 28.4375 15.677 29.0642 15.5204C29.2636 15.4705 29.7372 15.556 30.0203 15.5204H30.0185Z" fill="#F0D2D9"/>
<path d="M27.7876 8.83166C27.266 8.67321 26.6696 8.70882 26.1942 8.91178C25.9147 8.58954 26.9277 8.26552 27.2286 8.11597C27.736 7.86316 28.352 7.77059 28.7009 7.24005C29.2119 7.18308 29.4113 8.69458 27.7858 8.83344L27.7876 8.83166Z" fill="#A9DAE3"/>
<path d="M20.2231 1.10861C20.8337 2.33348 21.5779 1.52165 22.5321 1.26706C22.5838 1.27418 22.6407 1.25816 22.6906 1.26706C23.1624 1.82964 22.4948 2.41893 23.2087 2.78034C25.1617 2.27295 25.678 3.51205 26.3545 2.54177C27.2536 3.0278 27.6898 3.37141 28.425 4.05505C29.0143 5.85852 28.8381 7.02108 27.2304 8.11598C26.9278 8.26553 25.9165 8.58955 26.1961 8.91179C24.8786 9.47615 24.5724 12.1253 24.7629 13.3715C25.1457 15.8711 26.0465 16.01 28.1865 15.5221C28.7473 15.394 29.1283 15.1963 29.0624 15.5221C28.4357 15.6788 27.7271 16.8966 28.5051 17.7511C28.2025 17.598 28.0583 18.0235 27.9479 18.0698C27.9337 18.0751 27.882 17.8971 27.6684 17.9897C25.6744 18.8567 24.6276 19.608 21.6972 19.8216C18.0404 20.0869 15.2844 19.6133 12.1012 17.8312C11.941 17.7422 11.7861 17.6016 11.6241 17.5125C12.2632 16.7737 11.8698 15.7821 11.0668 15.3619C11.0829 15.3619 10.9849 15.3405 11.3855 15.2818C11.4923 15.2658 11.5262 15.264 11.6241 15.2017C11.9606 15.5061 12.208 15.4224 12.2614 15.4402C13.3403 15.8195 13.6786 15.7037 14.332 14.7228C15.7242 12.638 15.2488 8.15159 12.5 8.59133C12.6228 8.19965 13.2994 8.39193 13.5344 7.51601C13.7765 6.61516 13.4115 4.96658 13.6928 3.77376L13.5344 3.73459C14.0204 3.27171 14.4174 3.10258 14.9675 2.77856L17.3158 2.30143C17.2642 4.0782 20.8319 3.00822 19.1068 1.26706C19.4735 1.21543 19.851 1.12464 20.2213 1.10861H20.2231Z" fill="#A9DAE3"/>
<path d="M17.3956 14.883C18.5403 14.8171 18.6685 16.9108 17.992 16.4354C18.2555 15.3975 16.9629 15.426 17.3956 14.883Z" fill="#0E1D2A"/>
<path d="M22.4127 14.9631C23.0928 15.5328 21.9409 15.2159 21.7753 16.5565C21.3 16.0616 21.738 15.0859 22.4127 14.9631Z" fill="#0E1D2A"/>
<path d="M27.9477 18.068C28.2059 18.8905 25.0992 20.6726 24.3248 21.0144C23.8512 21.2227 23.3456 21.3474 22.8524 21.4916L17.8355 21.65C16.6302 21.3438 15.4285 20.8774 14.3709 20.2169C13.7941 19.8572 11.834 18.3867 12.101 17.8277C15.2825 19.6098 18.0402 20.0833 21.697 19.8181C24.6274 19.6044 25.676 18.8531 27.6682 17.9861C27.8801 17.8935 27.9335 18.0716 27.9477 18.0662V18.068Z" fill="#161617"/>
<path d="M22.8506 21.4934C22.5052 21.5948 22.1741 21.7462 21.8162 21.812C20.5825 21.8601 19.3754 21.9741 18.1541 21.7319C18.0384 21.707 17.9458 21.6803 17.8354 21.6518L22.8524 21.4934H22.8506Z" fill="#CE6B76"/>
<path d="M21.8165 21.8102C20.2462 22.1004 19.6943 22.0613 18.1543 21.7301C19.3774 21.9705 20.5845 21.8583 21.8165 21.8102Z" fill="#715A69"/>
<path d="M27.7876 8.83167C28.425 9.02573 30.3282 11.2173 29.4202 10.9022C27.1805 8.39905 25.1118 9.56339 25.24 12.654C25.0513 13.1365 25.0174 12.9033 24.7629 13.3715C24.5724 12.1253 24.8786 9.47615 26.196 8.91179C26.6714 8.70883 27.2678 8.67322 27.7894 8.83167H27.7876Z" fill="#042731"/>
<path d="M28.2661 11.2209C26.9842 11.082 27.1071 13.1525 28.5847 12.2962V14.4468C29.0494 14.737 28.9266 12.9941 28.7432 12.0184C29.3521 13.0083 29.2826 14.251 29.6191 15.3637C29.4233 15.3085 29.288 15.5257 29.2203 15.4029C29.1651 15.3014 29.4108 14.9222 29.101 14.3275C28.4476 15.4919 28.615 14.4361 28.0257 15.0041L28.1842 15.5221C26.0442 16.0117 25.1434 15.8711 24.7606 13.3715C25.0152 12.9033 25.0508 13.1365 25.2377 12.654C25.6508 11.5965 26.0691 9.51709 28.3034 11.0606L28.2643 11.2191L28.2661 11.2209Z" fill="#161617"/>
<path d="M29.6194 15.3619C29.7494 15.3993 29.8918 15.4759 30.0182 15.5204C29.7351 15.556 29.2616 15.4705 29.0622 15.5204C29.128 15.1946 28.7471 15.3922 28.1863 15.5204L28.0278 15.0023C28.6171 14.4344 28.4497 15.4901 29.1031 14.3258C29.4129 14.9204 29.1672 15.2996 29.2224 15.4011C29.2901 15.5239 29.4254 15.3049 29.6212 15.3619H29.6194Z" fill="#FCFDFD"/>
<path d="M28.2663 11.2209C28.9998 11.3277 28.7345 11.965 28.7434 12.0167C28.925 12.9923 29.0497 14.7352 28.585 14.445V12.2944C27.1073 13.1507 26.9845 11.0802 28.2663 11.2191V11.2209Z" fill="#FCFDFD"/>
<path d="M26.2348 12.4155H26.5535C27.4099 13.2754 25.4497 13.4481 26.2348 12.4155Z" fill="#E9F0FA"/>
<path d="M14.33 14.7245C14.492 14.064 14.9353 13.3875 14.9674 12.6932C15.0083 11.8244 14.7377 11.9775 14.7288 11.9366C14.4564 10.5853 14.0932 8.92602 12.2203 9.46724C11.6738 9.62569 10.643 11.0482 11.3836 9.42807C11.4815 9.21265 12.037 8.66609 12.2595 8.59131C12.3129 8.57351 12.4215 8.60378 12.4981 8.59131C15.2469 8.15157 15.7222 12.638 14.33 14.7228V14.7245Z" fill="#0E1D2A"/>
<path d="M11.9427 11.0606C13.1159 11.949 11.0169 11.6178 11.3854 13.8878C11.5759 15.0592 12.5979 14.6675 12.2614 15.4402C12.2097 15.4224 11.9605 15.5061 11.624 15.2016C10.8941 14.5411 10.9511 13.286 11.0668 12.4154C11.5795 11.1105 11.5368 11.511 11.9427 11.0624V11.0606Z" fill="#FCFDFD"/>
<path d="M11.624 15.2016C11.526 15.264 11.4922 15.2657 11.3854 15.2818C10.23 14.137 10.6733 13.4178 11.0667 12.4154C10.951 13.286 10.894 14.5411 11.624 15.2016Z" fill="#042731"/>
<path d="M14.7289 11.9365C14.7378 11.9775 15.0084 11.8244 14.9674 12.6932C14.9354 13.3875 14.4939 14.064 14.3301 14.7245C13.6767 15.7037 13.3384 15.8194 12.2596 15.442C12.596 14.6693 11.5741 15.061 11.3836 13.8896C11.0151 11.6196 13.1141 11.9508 11.9409 11.0624C11.9658 11.0339 11.8358 10.7384 12.2987 10.5052C13.0376 10.1331 13.8156 10.4322 14.25 11.1016C14.5598 11.5805 14.6879 12.7501 14.7271 11.9383L14.7289 11.9365Z" fill="#161617"/>
<path d="M13.4954 12.0166C14.8324 12.1466 13.3102 13.6029 13.296 12.216L13.4954 12.0166Z" fill="#C1E0EA"/>
</svg>
