<svg width="50" height="61" viewBox="0 0 50 61" fill="none" xmlns="http://www.w3.org/2000/svg">
<path d="M9.50884 34.4757C9.48745 34.7566 10.6612 36.9958 10.7924 36.5793C10.8138 35.5539 10.9365 34.5156 11.149 33.513C11.3772 32.4362 13.0074 28.2716 12.1474 29.5195C11.9605 29.7891 11.1918 31.6047 10.8638 32.2294C10.55 32.8284 10.0822 33.3547 9.79409 33.9765C9.11378 33.5229 8.15821 33.7255 8.01131 33.0851C8.49337 30.9914 10.105 31.4549 10.2576 31.4093C10.3589 31.3793 11.0706 29.839 11.2203 29.5909C11.5526 29.0432 12.203 28.524 12.2187 28.4499C12.2515 28.3001 11.8165 26.8268 12.8605 25.5261C13.2826 25.0013 13.9658 24.7317 14.0014 24.6704C14.1056 24.4878 14.2981 22.504 14.2154 22.3885C7.79738 21.6468 -1.01666 21.2018 0.0957932 12.4049C0.798919 6.84266 5.86057 5.78297 6.22854 5.13119C6.39683 4.83454 6.67495 0.82258 10.7568 0.959497C11.1176 0.972333 11.5669 1.24474 11.6125 1.24474C11.7166 1.24474 12.7121 0.669975 13.5379 0.46032C15.9996 -0.162938 15.6359 0.551598 15.8199 0.602942C15.9097 0.627188 17.229 0.242109 17.674 0.389009C17.7938 0.428944 17.8636 0.695647 17.9592 0.745564C18.35 0.95094 19.5808 0.0909295 20.7403 0.0324545C22.6543 -0.0631022 22.429 0.896744 22.5231 0.959497C22.6885 1.07074 25.163 0.182208 26.1956 1.70826C26.2955 2.29587 25.2614 2.9234 24.7694 3.9189C25.2643 5.3822 27.6104 3.64935 29.262 6.05823C29.493 6.83695 27.2068 7.71693 27.1227 8.12625C26.8474 9.45692 29.4189 8.49137 30.6169 10.6221C31.0476 12.007 27.4036 11.4679 28.2636 13.0467C28.3464 13.1979 30.3117 14.018 30.6169 15.4C29.861 16.4568 27.4592 16.2172 27.6931 17.1114C28.8569 17.9144 28.9525 19.0896 29.0837 19.1438C29.3732 19.265 30.7224 18.7502 31.6153 20.0352C32.7006 21.5983 31.6153 23.2271 31.6866 23.3868C31.8178 23.682 35.2264 23.5993 35.9652 27.6655C35.6015 32.2679 38.8205 42.0774 30.8665 41.1076C34.549 49.3383 43.9906 41.2431 47.0541 40.4658C50.7323 39.5316 50.4542 43.9044 48.9795 44.5305C47.7258 45.0625 48.6186 43.7347 48.3733 43.2826C47.703 42.1216 45.5309 45.8683 43.8094 47.6325C40.2524 51.278 35.7798 53.4929 31.0091 55.0845C30.6197 55.2143 29.088 55.5138 29.0124 55.5837C28.934 55.6564 28.536 57.5847 28.6558 57.6517C29.9157 57.8657 31.1755 58.0796 32.4353 58.2935C32.8817 57.636 30.3858 58.1324 31.437 56.9386C33.3153 56.7318 34.7372 58.3891 33.1484 59.1493C31.6637 59.8595 25.0004 60.323 23.0936 60.3615C20.4865 60.4143 8.60747 60.0948 6.90599 58.7927C5.30292 57.5662 8.65882 56.0672 8.72442 57.4735C8.636 57.7673 6.84752 58.034 8.47483 58.2935C9.72135 56.1029 11.7452 56.4922 12.3613 55.4054C13.7419 52.9709 9.34626 50.2939 9.8654 43.9957C9.95953 42.8504 10.5528 41.2673 10.5785 41.0719C10.7268 39.9623 10.4787 39.4147 10.2933 41.0006C9.85114 41.9291 7.11707 41.1062 6.58509 40.2875C6.03457 39.4403 6.34691 35.9932 6.87034 35.0818C7.40232 34.1562 8.68449 33.7312 9.50884 34.4757Z" fill="#200E0A"/>
<path d="M18.6008 51.3051C20.8314 52.138 21.4433 51.5689 21.5959 51.5903C21.9068 51.6331 23.45 54.4399 22.9151 55.1202C22.8624 55.1872 21.8269 55.481 21.3106 55.7263C20.7074 56.013 20.9783 56.3724 18.8861 56.6534C19.0501 54.8621 18.8961 53.0793 18.6008 51.3051Z" fill="#FDFDFE"/>
<path d="M45.4482 44.2452C43.6897 45.2108 42.3761 46.8681 40.706 47.9534C37.7937 49.8446 34.2638 50.6105 30.8295 50.4493C31.1304 48.4811 28.4591 41.3757 26.6578 40.8936C26.5922 40.8765 26.4738 40.8751 26.4795 40.9649C26.026 40.674 24.8493 40.4059 24.8393 40.644C24.8351 40.751 25.5738 40.8722 26.2656 41.678C25.8434 41.9091 25.7036 41.7422 25.7664 42.2485C25.8405 42.8547 26.2812 43.6377 26.0873 44.3879C26.0274 44.4349 25.0846 43.8017 24.7324 43.6748C23.3147 43.1642 25.484 44.1868 25.9803 44.7444C26.1372 44.9213 27.2996 46.8524 26.7647 46.4559C26.0402 45.7428 24.7837 45.2208 23.7697 45.2793C24.5284 45.516 24.8807 45.583 25.5524 46.028C25.0476 46.5001 23.7383 47.4414 23.1279 47.8108C22.5503 48.1602 21.907 48.4269 21.3451 48.8091C20.9985 49.1743 20.2555 46.9679 20.2754 46.8481C21.5747 45.1566 22.342 45.091 20.1685 46.0993L19.9189 44.9227C22.1452 43.6619 23.0009 43.2554 19.9545 44.5305C19.7791 44.4734 19.8518 43.5621 19.8476 43.2469C20.6063 42.3869 22.2935 41.2074 22.5574 40.3945C24.072 39.3519 25.0747 37.8729 25.7307 36.1871C26.1329 37.8501 27.0329 40.3431 28.7971 40.9649C29.3091 41.1461 29.8211 40.5898 30.3659 42.2485C27.4037 41.9448 29.7826 43.0743 29.8311 43.2112C29.8639 43.3011 29.64 43.6648 29.8311 43.9957C29.9352 44.1754 30.3445 44.2253 30.3659 44.2452C31.206 45.0126 30.915 45.5616 31.293 45.6715C31.5369 45.7428 31.8364 45.5902 31.8635 45.6002C32.0346 45.6601 31.9433 45.9581 31.9704 45.9924C32.0246 46.0622 32.8091 46.6499 32.8618 46.6698C33.3696 46.8624 33.7218 46.58 33.7889 46.5985C33.9172 46.6342 34.0085 47.2189 34.3594 47.3116C35.0882 47.5042 35.3691 46.9551 35.429 46.9551C35.4903 46.9551 35.7685 47.5526 36.4987 47.3829C36.7326 47.3287 36.8995 47.0307 36.9265 47.0264C37.0307 47.0093 37.1276 47.517 38.7806 46.9551C38.9061 46.9123 39.2156 46.5472 39.2798 46.5272C39.4724 46.4659 39.7804 46.617 39.9929 46.5272C40.7018 46.2234 44.4313 44.0955 44.9134 43.6034C46.4052 42.0788 43.0707 44.1497 43.0236 43.5678C44.39 42.839 49.4388 39.2335 48.9781 42.819C47.6232 40.9321 46.3696 43.177 45.4482 44.2452Z" fill="#3999AC"/>
<path d="M26.267 46.5985C26.9744 47.3459 28.4506 49.9901 28.6203 50.9841C28.8699 52.4489 28.3622 54.9604 27.9785 56.4394C27.1099 56.4195 25.7294 56.5664 24.9121 56.3681C24.4629 56.2583 24.1762 55.9488 23.8425 55.655C24.055 55.0703 23.9879 54.186 23.8425 53.587C24.4001 53.1976 27.2968 52.7883 26.1601 52.0895C25.2929 52.3509 24.4253 52.6124 23.5572 52.8739C23.5187 52.7826 23.4602 52.6842 23.4146 52.5886C24.2903 52.2007 26.7063 50.6019 25.5896 49.6649C25.1546 49.5251 23.078 50.8786 22.4876 51.0911C22.3649 50.8886 22.305 50.8572 22.2736 50.8059C23.3704 50.4122 27.1798 48.0447 25.5183 46.9551C24.9934 46.657 23.7797 47.5327 23.1294 47.9534V47.8108C23.7398 47.4414 25.049 46.5001 25.5539 46.028C25.8078 46.1963 26.0588 46.3775 26.267 46.5985Z" fill="#3E9CAE"/>
<path d="M20.4906 38.3978L21.4889 38.0769C19.488 36.2028 22.8182 38.5375 22.7725 37.3638C21.7186 35.9047 22.8709 37.4436 23.4143 36.6507L22.6656 35.1888L23.7709 36.0802C24.1731 34.9577 23.3145 33.9109 22.416 33.299C22.5201 33.0666 23.7466 34.0892 23.9492 34.7609C24.3186 33.7226 23.7737 32.0882 23.6996 31.231C23.6026 30.1171 24.5111 28.6025 22.1307 28.0577C22.5001 27.9265 24.8677 27.0436 25.0545 27.3089C25.4781 32.9211 26.6048 38.2338 20.241 40.6797L20.134 40.5728C20.5776 40.0094 20.6703 39.0709 20.4906 38.3978Z" fill="#3E9CAE"/>
<path d="M30.831 50.4494C30.7839 50.4465 30.7354 50.4522 30.6884 50.4494C30.3632 50.4308 29.7913 50.2254 29.4761 50.378C29.2893 49.4681 27.5764 46.5529 27.4794 45.7785C27.4623 45.643 27.5593 45.5845 27.5507 45.3863C27.4965 44.0356 27.8502 41.8435 26.481 40.965C26.4753 40.8751 26.5937 40.8766 26.6593 40.8937C28.4606 41.3757 31.1319 48.4812 30.831 50.4494Z" fill="#3E9CAE"/>
<path d="M17.9947 29.983C17.4927 32.2964 16.5243 35.1089 17.3529 37.3994C16.5371 37.7859 15.5687 39.6542 14.2152 40.2162C14.3536 41.785 15.7798 41.6866 15.891 41.7494C15.9937 41.8078 16.1235 42.026 16.1406 42.0346C16.1363 42.163 15.9951 41.9604 15.9267 42.1416C15.8725 42.287 15.8525 44.7615 15.5701 45.2079C15.4988 46.1464 15.4275 47.0853 15.3562 48.0247C10.2732 43.1285 10.8351 36.9943 12.9673 30.7675C13.9728 32.5303 15.9139 30.97 17.9947 29.983Z" fill="#F8E7B8"/>
<path d="M16.1408 42.0346C16.7113 42.3199 17.1178 42.7463 17.8523 42.7477C17.3189 44.9455 17.9863 48.1103 17.9949 49.4866C17.9977 49.8745 17.9036 49.7376 17.8523 49.9501C16.6072 49.2684 16.339 48.9703 15.3564 48.0247C15.4277 47.0863 15.499 46.1473 15.5703 45.2079C15.8527 44.7615 15.8727 42.287 15.9269 42.1416C15.9953 41.9604 16.1365 42.163 16.1408 42.0346Z" fill="#F8E7B8"/>
<path d="M17.852 49.9502C17.9033 49.7377 17.9975 49.8746 17.9946 49.4866C17.9861 48.1103 17.3186 44.947 17.852 42.7478C18.2827 42.7478 18.5722 42.5852 18.9217 42.3555C18.7462 45.3577 19.2825 48.5753 21.2036 50.9842C20.2609 51.2224 18.7363 50.4337 17.852 49.9502Z" fill="#D7C9B7"/>
<path d="M27.1585 19.787C28.7131 19.7271 28.1711 23.3982 30.0466 21.8907C30.165 20.995 29.3606 22.0904 28.8343 20.2505C31.8251 19.2151 31.4714 22.9347 30.4388 23.1386C30.2092 23.1843 28.7274 22.7764 27.3725 23.1386C27.1656 20.948 26.1587 20.6998 27.1585 19.787Z" fill="#FDFDFE"/>
<path d="M18.5296 37.8273C19.518 37.7232 19.9901 38.6246 19.8489 39.5031C19.7818 39.9167 18.3014 42.2201 17.6382 41.6424C17.952 41.487 19.2613 39.9067 18.8862 39.7527C18.2872 39.506 17.2246 42.1644 16.2833 41.2146C16.2434 41.0306 18.3071 39.332 17.6026 39.1822C17.1776 39.0909 15.5431 41.4342 15.285 40.7154C15.981 39.834 17.373 37.9485 18.5296 37.8273Z" fill="#87C6D2"/>
<path d="M19.2429 57.2952C20.1143 57.2039 20.3211 57.6446 20.3839 57.6518C20.5493 57.6703 21.3052 56.7646 22.4163 57.6874C22.633 58.9026 21.7516 57.9213 21.5962 59.4345C20.7447 58.131 21.0285 59.7996 20.2056 59.2563C20.7904 57.4735 19.5496 57.3751 19.2429 59.2919C18.5797 59.3119 19.3271 58.8968 19.029 58.6501C16.9068 60.5113 17.7753 57.4478 19.2429 57.2952Z" fill="#ECDF8D"/>
<path d="M17.9234 23.779L17.1389 27.0236C17.3272 27.172 18.5452 26.1964 18.4939 26.5601C18.0674 26.7498 15.2863 28.2559 15.1066 28.2003C13.9342 26.4104 14.6901 25.9397 15.0709 23.7077C16.008 23.8688 16.9764 23.8945 17.9234 23.779Z" fill="#F8E7B8"/>
<path d="M19.6349 23.3511C19.0986 23.5351 18.4839 23.7105 17.9234 23.779C16.9778 23.8945 16.008 23.8688 15.071 23.7077C15.1566 23.2028 15.0795 22.2857 15.2493 22.2101C15.429 22.1303 18.1844 22.3856 19.0644 21.5683C19.2883 21.7224 19.5821 23.0188 19.6349 23.3511Z" fill="#D7C9B7"/>
<path d="M19.6349 23.3511C19.6392 23.3739 19.6321 23.3996 19.6349 23.4224C19.7847 24.4465 19.7989 25.0455 19.4923 26.0609C19.1571 26.2107 18.8391 26.4075 18.4939 26.5601C18.5453 26.1964 17.3273 27.172 17.139 27.0236L17.9235 23.779C18.484 23.7105 19.0987 23.5351 19.6349 23.3511Z" fill="#F8E7B8"/>
<path d="M27.9785 56.4395C27.9485 56.5564 27.853 56.4851 27.8358 56.5464C27.8102 56.642 27.9342 56.6662 27.9072 56.7604C27.669 57.6075 27.3951 58.4576 26.9445 59.2206C25.4027 59.5215 26.3084 58.6244 25.2686 57.5091C25.4384 57.0713 24.8336 56.7989 24.9121 56.3682C25.7293 56.5664 27.1099 56.4195 27.9785 56.4395Z" fill="#086372"/>
<path d="M23.4146 52.5887C23.2891 52.3234 22.74 51.5105 22.4875 51.0912C23.078 50.8801 25.1546 49.5252 25.5896 49.6649C26.7063 50.602 24.2903 52.2008 23.4146 52.5887Z" fill="#A9DAE3"/>
<path d="M45.4478 44.2452C44.8602 44.9255 44.3496 45.6843 43.7364 46.3489C40.1466 50.2453 35.7438 52.6414 30.6865 54.0861C31.2812 53.9022 30.7464 51.6059 30.6865 50.4493C30.7335 50.4521 30.782 50.4464 30.8291 50.4493C34.2634 50.6104 37.7933 49.8446 40.7057 47.9534C42.3758 46.868 43.6893 45.2108 45.4478 44.2452Z" fill="#E1D2B0"/>
<path d="M30.6879 50.4493C30.7478 51.606 31.2827 53.9022 30.6879 54.0862C30.4783 54.1461 29.3772 54.6424 29.333 54.4071C29.6396 53.2761 29.7067 51.5061 29.4756 50.378C29.7908 50.2254 30.3627 50.4308 30.6879 50.4493Z" fill="#D7C9B7"/>
<path d="M23.5926 57.4378C24.5068 57.2738 25.4096 58.4276 25.1614 59.2919C24.8063 59.289 22.6784 59.5842 22.5586 59.3275C22.58 58.747 22.948 57.5533 23.5926 57.4378Z" fill="#ECDF8D"/>
<path d="M13.1812 57.2238C14.4648 57.0456 14.9412 58.9424 14.7501 59.0779C12.9944 59.0694 10.6112 58.8583 13.1812 57.2238Z" fill="#ECDF8D"/>
<path d="M11.4699 56.9386C11.8165 56.8987 12.2101 56.9115 12.29 57.3308C10.5386 58.3249 12.6451 59.1393 9.43756 58.4718C9.66576 57.8614 10.9094 57.0028 11.4699 56.9386Z" fill="#ECDF8D"/>
<path d="M26.4808 40.9649C27.85 41.8435 27.4963 44.0356 27.5505 45.3862C27.2938 44.7102 27.7958 43.7946 27.1226 43.96C27.0912 43.1271 26.8031 42.3027 26.2669 41.6781C25.5752 40.8722 24.8364 40.751 24.8407 40.644C24.8506 40.4059 26.0273 40.674 26.4808 40.9649Z" fill="#091B1B"/>
<path d="M19.849 43.2469C19.8119 40.5072 19.926 42.2072 22.5588 40.3945C22.2949 41.2074 20.6077 42.3869 19.849 43.2469Z" fill="#A9DAE3"/>
<path d="M27.1225 43.96C27.1952 45.8754 26.6761 44.7045 26.4807 44.6018C26.4636 43.776 26.2497 42.9331 25.7676 42.2485C25.7048 41.7422 25.8446 41.9091 26.2668 41.6781C26.803 42.3027 27.0911 43.1271 27.1225 43.96Z" fill="#3E9CAE"/>
<path d="M27.2296 24.9913C28.0425 24.8672 29.3104 25.1154 29.7611 25.8827C30.3587 26.8981 30.8122 35.6879 30.6881 37.2211C30.1804 43.4566 26.8145 38.6117 26.2669 35.5097C25.9973 33.9822 25.8789 28.4342 25.839 26.3819C26.0415 25.6702 26.4466 25.1097 27.2296 24.9913Z" fill="#AE263A"/>
<path d="M28.8699 24.0643C31.0249 23.9274 33.9258 24.5321 34.753 26.8098C35.0896 27.7354 35.3506 32.7129 35.0739 32.8355L31.1875 32.7286C30.6555 29.5752 32.0988 23.3911 26.9088 24.5278C27.515 24.3124 28.2295 24.1042 28.8699 24.0643Z" fill="#E7A30D"/>
<path d="M13.5025 30.2683C13.8091 30.3183 13.3969 29.9346 13.4312 29.8048C13.4611 29.6936 13.9289 29.6194 14.073 29.5552C17.891 27.8466 21.5649 25.6317 25.6967 24.7417C25.2331 25.3664 25.1076 26.3106 25.0549 26.3819C24.9779 26.4832 23.0168 26.9353 22.6659 27.0594C19.8706 28.0477 15.7559 30.4894 15.0357 30.6962C14.2855 30.9116 13.9346 31.0071 13.5025 30.2683Z" fill="#E7A30D"/>
<path d="M34.7158 33.5486C35.4888 33.0223 35.1694 37.2169 35.0367 37.8629C34.5618 40.1663 32.7263 40.597 30.6868 40.0736C31.2772 38.7843 31.33 37.3252 31.3286 35.9375C31.8249 36.5508 33.3595 36.5251 33.9314 36.1871C34.8228 35.6608 34.4377 33.6756 34.7158 33.5486Z" fill="#E9960C"/>
<path d="M31.5798 33.406C32.0362 33.4873 34.1855 33.2263 34.3253 33.5843C34.8444 36.4852 31.778 36.016 31.5441 35.2244C31.517 35.1317 31.3701 33.3732 31.5798 33.406Z" fill="#E7A30D"/>
<path d="M14.0729 29.5552C13.9288 29.6194 13.461 29.6936 13.4311 29.8048C13.3969 29.9346 13.809 30.3183 13.5024 30.2683C13.1059 29.5909 12.9975 27.9465 13.0745 27.1663C13.2557 25.3465 13.3769 26.6158 14.0729 28.5925C13.7106 28.8607 13.6293 29.4968 14.0729 29.5552Z" fill="#EEBA1C"/>
<path d="M23.8426 53.587C23.8341 53.5499 23.6044 52.9894 23.5574 52.8739C24.4245 52.6124 25.2921 52.351 26.1602 52.0895C27.2969 52.7883 24.4003 53.1977 23.8426 53.587Z" fill="#A9DAE3"/>
<path d="M24.9119 56.3681C24.8335 56.7989 25.4382 57.0713 25.2685 57.5091C24.5796 56.7703 23.5727 56.632 22.6656 57.0099C22.1222 56.6947 23.5028 56.5906 23.8423 55.655C24.176 55.9488 24.4627 56.2583 24.9119 56.3681Z" fill="#A9DAE3"/>
<path d="M25.9458 21.6411C26.0286 22.2943 26.1118 22.948 26.1954 23.6022C24.4683 24.2226 25.1315 23.5708 25.9458 21.6411Z" fill="#FDFDFE"/>
<path d="M26.4807 44.6018C26.4551 44.5876 25.9017 44.5048 25.9816 44.7445C25.4852 44.1868 23.316 43.1642 24.7336 43.6748C25.0859 43.8017 26.0286 44.435 26.0885 44.3879C26.2825 43.6377 25.8418 42.8547 25.7676 42.2486C26.2497 42.9332 26.4636 43.776 26.4807 44.6018Z" fill="#091B1B"/>
<path d="M26.7659 46.4559C26.5206 46.4317 26.3866 46.2263 26.2668 46.5985C26.0585 46.3775 25.8075 46.1963 25.5536 46.028C24.8819 45.583 24.5296 45.516 23.7709 45.2793C24.7849 45.2208 26.0414 45.7428 26.7659 46.4559Z" fill="#091B1B"/>
<path d="M9.68721 31.6945L9.86548 31.8015C8.86713 33.8824 7.7504 32.8811 9.68721 31.6945Z" fill="#3A1311"/>
<path d="M22.2736 50.8059C21.8101 50.05 21.2324 49.4895 21.4892 49.1657C21.5519 49.0859 22.9211 48.0875 23.1293 47.9535C23.7797 47.5327 24.9919 46.657 25.5182 46.9551C27.1798 48.0447 23.3703 50.4123 22.2736 50.8059Z" fill="#87C6D2"/>
<path d="M23.1293 47.8108V47.9534C22.9211 48.0875 21.5533 49.0859 21.4891 49.1657C21.6346 48.802 21.3408 49.0816 21.3465 48.8092C21.9084 48.4284 22.5517 48.1602 23.1293 47.8108Z" fill="#091B1B"/>
<path d="M28.2991 58.5074C30.4627 58.7114 29.925 58.8626 28.1565 59.0066L28.2991 58.5074Z" fill="#FDFDFE"/>
<path d="M15.5703 59.0067C16.4745 58.9781 16.4945 59.1906 16.9252 58.6145C17.4244 57.947 17.8651 56.2755 17.8522 55.4055L13.3596 55.3698C13.6363 54.621 13.6106 54.2973 13.5023 53.5157C16.2877 53.0536 15.7814 51.9298 13.3596 52.9452C13.3126 52.7584 13.2156 52.4874 13.1457 52.3034C14.676 51.9126 13.9358 50.9713 12.8605 51.6616C12.8462 51.6274 12.7164 51.5105 12.5039 51.0198C14.01 49.692 14.1555 49.2114 12.076 50.1641C12.019 50.0357 11.9848 49.9302 11.9334 49.8075C12.2885 49.6721 13.7447 48.8235 13.8588 48.6666C14.077 48.3642 13.9344 48.35 14.0727 48.0961C15.9454 50.2126 17.5228 50.8145 17.6383 51.0555C17.9264 51.6559 18.0733 55.1159 17.9948 55.9046C17.8936 56.9173 17.0036 60.0863 15.5703 59.0067Z" fill="#3E9CAE"/>
<path d="M15.57 59.0067C15.6042 58.7314 15.4687 58.4832 15.4274 58.2223C15.2633 57.1997 15.6556 56.2641 13.3593 55.4411C13.3679 55.4212 13.3522 55.3912 13.3593 55.3698L17.8519 55.4055C17.8648 56.2755 17.4241 57.947 16.9249 58.6145C16.4942 59.1907 16.4742 58.9781 15.57 59.0067Z" fill="#3E9CAE"/>
<path d="M13.5025 47.4542C13.4597 47.5341 13.3641 47.5484 13.2885 47.5969C12.7979 47.4899 12.3429 47.6996 11.8623 47.8108C11.6113 47.8693 11.279 48.1346 11.1492 47.9178C10.6072 46.0993 10.573 44.1625 11.0422 42.3199C11.5357 44.1953 12.3059 45.9225 13.5025 47.4542Z" fill="#3999AC"/>
<path d="M15.4273 58.2222C14.4175 55.6935 12.5235 57.0513 12.6462 56.3325C12.9214 56.0658 13.2038 55.8034 13.3593 55.4411C15.6555 56.264 15.2633 57.1996 15.4273 58.2222Z" fill="#A9DAE3"/>
<path d="M13.5022 53.5157C13.4737 53.3103 13.4095 53.142 13.3596 52.9452C15.7813 51.9297 16.2876 53.0536 13.5022 53.5157Z" fill="#A9DAE3"/>
<path d="M12.5038 51.0198C12.4154 50.8159 12.2271 50.5049 12.0759 50.1641C14.1554 49.2114 14.0099 49.692 12.5038 51.0198Z" fill="#87C6D2"/>
<path d="M13.1455 52.3034C13.0656 52.0924 12.9515 51.8727 12.8602 51.6616C13.9356 50.9713 14.6758 51.9127 13.1455 52.3034Z" fill="#87C6D2"/>
<path d="M14.0727 48.0961C13.9344 48.3499 14.077 48.3642 13.8588 48.6666L13.1457 47.7395C13.1557 47.7367 13.2726 47.6069 13.2883 47.5969C13.3639 47.5484 13.4595 47.5341 13.5022 47.4543C13.6777 47.6782 13.8845 47.8821 14.0727 48.0961Z" fill="#086372"/>
<path d="M13.1454 47.7395L13.8585 48.6666C13.7444 48.8234 12.2882 49.672 11.9331 49.8075C11.8503 49.6079 11.2727 48.4241 11.2913 48.3457C11.4239 48.1959 11.6193 48.1731 11.7904 48.0961C12.2968 47.8665 13.0584 47.7709 13.1454 47.7395Z" fill="#3999AC"/>
<path d="M13.2878 47.5969C13.2721 47.6069 13.1551 47.7367 13.1451 47.7395C13.0581 47.7709 12.2965 47.8664 11.7902 48.0961L11.8615 47.8108C12.3422 47.6996 12.7971 47.4899 13.2878 47.5969Z" fill="#3999AC"/>
<path d="M27.5149 18.2895C28.288 18.8072 28.1653 19.3962 27.3367 18.6817L27.5149 18.2895Z" fill="#FDFDFE"/>
<path d="M40.3492 44.6018C41.1051 44.6432 40.161 46.1878 39.6005 44.9227L40.3492 44.6018Z" fill="#059098"/>
<path d="M37.4971 45.4576C38.3414 46.2006 37.6525 46.8709 37.1049 45.7071L37.4971 45.4576Z" fill="#A9DAE3"/>
<path d="M30.1534 42.5338C30.5684 42.4625 30.945 42.6194 31.0448 43.0686C30.935 43.3296 30.0036 43.0786 30.1534 42.5338Z" fill="#3A1311"/>
<path d="M41.4901 44.1739H41.704C41.8053 45.2921 39.9127 44.7245 41.4901 44.1739Z" fill="#A9DAE3"/>
<path d="M35.928 45.8141C36.9463 45.7157 36.2788 47.1533 35.7497 46.135L35.928 45.8141Z" fill="#A9DAE3"/>
<path d="M38.7804 45.101C39.3323 45.0368 39.3224 46.3875 38.3882 45.3506L38.7804 45.101Z" fill="#A9DAE3"/>
<path d="M34.6446 45.7428C35.2979 45.8484 34.9342 46.6684 34.4664 46.135L34.6446 45.7428Z" fill="#87C6D2"/>
<path d="M42.7025 43.6748L42.8808 43.7104C42.7567 44.5419 41.5616 44.0456 42.7025 43.6748Z" fill="#3999AC"/>
<path d="M31.6509 44.2453L31.9718 44.3523C31.9747 45.1153 31.0904 44.783 31.6509 44.2453Z" fill="#503233"/>
<path d="M33.5037 45.3862C34.0029 45.3263 33.6919 46.212 33.2541 45.6358L33.5037 45.3862Z" fill="#3999AC"/>
<path d="M32.5764 44.7444C33.1141 44.8899 32.5194 45.5474 32.3268 44.994L32.5764 44.7444Z" fill="#3999AC"/>
<path d="M31.1515 43.3895C31.5237 43.6049 31.1016 44.0641 30.9019 43.7104L31.1515 43.3895Z" fill="#A9DAE3"/>
<path d="M9.7227 38.8256C9.78117 38.1524 9.33477 36.9116 8.79565 36.401C9.42176 34.8507 9.01244 35.0975 9.93663 36.6506C10.5285 37.6433 10.7638 37.03 10.5784 38.9326C10.4116 39.2121 10.3388 38.4035 9.7227 38.8256Z" fill="#3999AC"/>
<path d="M8.04686 35.0461L8.29645 35.1531C8.09963 36.7376 6.63062 36.2285 8.04686 35.0461Z" fill="#FDFDFE"/>
<path d="M9.72256 38.8256C9.71543 38.9026 9.39453 40.065 9.33035 40.3232C8.62294 40.0222 7.53759 40.4287 7.22667 39.4318C7.06551 38.9169 7.23238 37.1769 7.29798 37.0785C7.49052 36.7947 8.01822 37.3252 8.79551 36.401C9.33462 36.9116 9.78103 38.1524 9.72256 38.8256Z" fill="#A9DAE3"/>
<path d="M8.26098 38.3977L8.51057 38.576C8.686 40.8094 7.24979 39.543 8.26098 38.3977Z" fill="#19110C"/>
<path d="M8.9024 38.683L9.2233 38.7899C9.54277 40.5399 8.02813 40.1078 8.9024 38.683Z" fill="#19110C"/>
<path d="M14.0727 19.0026L14.358 21.0706C14.2638 21.0635 14.1669 21.0777 14.0727 21.0706C11.8122 20.8909 8.74864 20.3775 6.58507 19.7157C4.50992 19.081 3.1493 18.4464 1.87854 16.578C3.78254 15.4542 5.98177 17.5236 7.69039 18.2182C9.60152 18.9955 12.0489 19.4462 14.0727 19.0026Z" fill="#A9DAE3"/>
<path d="M12.6463 5.23958C12.5279 5.23244 12.4081 5.24243 12.2898 5.23958C9.62844 5.16826 4.80639 7.14928 3.09065 9.26865C2.25346 10.3041 2.40892 10.5166 2.37754 10.5879C2.22494 10.9416 1.95395 11.1356 1.94968 11.5863C1.20662 12.7586 1.22943 14.5799 1.37919 15.9362C0.697455 15.8977 1.15527 12.0227 1.30788 11.408C2.38325 7.07655 8.81407 4.63628 12.8246 4.45515L12.6463 5.23958Z" fill="#FDFDFE"/>
<path d="M24.3415 23.1372C22.7984 23.5508 21.2138 23.3968 19.635 23.4224C19.6322 23.3996 19.6393 23.3739 19.635 23.3511C19.5823 23.0188 19.2885 21.7224 19.0645 21.5683C18.9818 21.5113 18.9975 21.4985 18.9932 21.497C19.2129 21.5298 19.1587 21.2917 19.0645 21.1405C28.238 18.6503 25.029 9.16594 21.917 2.95618C25.695 5.19534 27.6418 9.99315 27.4079 14.259C27.3837 14.6982 27.0357 16.7948 26.9087 17.254C26.6278 18.2695 24.9434 21.8322 24.3415 23.1372Z" fill="url(#paint0_linear_207_2166)"/>
<path d="M24.3418 23.1372C24.1778 23.4938 24.1379 24.0771 23.807 24.3495C23.2493 24.8102 20.3384 25.683 19.4927 26.061C19.7993 25.0455 19.7851 24.4465 19.6353 23.4225C21.2141 23.3968 22.7987 23.5508 24.3418 23.1372Z" fill="#A9DAE3"/>
<path d="M14.0729 21.0706L13.5737 21.5698C12.1931 21.4386 10.794 21.2175 9.43767 20.928C8.97273 20.4502 5.90778 20.2591 6.58524 19.7157C8.74881 20.3775 11.8123 20.8909 14.0729 21.0706Z" fill="#D8EDEC"/>
<path d="M19.0647 21.1419C19.1589 21.2931 19.2131 21.5313 18.9934 21.4985C18.7281 21.4386 17.3718 21.9321 13.5738 21.5698L14.073 21.0706C14.1671 21.0778 14.2641 21.0635 14.3582 21.0706C15.1712 21.1262 15.9242 21.2361 16.7471 21.2132C17.58 21.1904 19.1346 20.7355 19.0647 21.1419Z" fill="#DFECDE"/>
<path d="M1.87865 16.578C3.14941 18.4464 4.51002 19.081 6.58517 19.7157C5.90772 20.2591 8.97267 20.4502 9.43761 20.928C6.75632 20.3561 2.94689 19.3591 1.52209 16.8276C1.52352 16.6137 1.82731 16.608 1.87865 16.578Z" fill="#FDFDFE"/>
<path d="M14.6433 1.6027C14.0129 1.78668 11.2489 3.35552 10.8638 3.17154C11.6411 2.18888 14.6362 0.594362 14.6433 1.6027Z" fill="#FDFDFE"/>
<path d="M17.6381 3.59945C14.4192 3.37125 13.6376 5.4792 13.3951 5.52484C13.3695 5.52912 13.2283 5.38365 13.2169 5.38222C14.0954 3.49818 15.6571 2.83927 17.6381 3.59945Z" fill="#DFE8C7"/>
<path d="M10.7925 1.95931C10.7925 2.19464 10.3148 2.16469 10.1151 2.24456C9.7186 2.40144 8.33659 3.1659 8.15403 3.4925C8.07559 3.63227 8.22962 3.66222 8.22534 3.67078C7.98859 4.12859 7.87735 4.82459 7.22699 4.70478C7.61635 3.09886 9.09391 1.80671 10.7925 1.95931Z" fill="#C6E4E0"/>
<path d="M27.8715 10.0175C29.6785 10.394 29.9267 10.548 28.0855 11.2297L27.8715 10.0175Z" fill="#3999AC"/>
<path d="M28.2993 14.1535C29.426 14.9179 29.7726 15.3287 28.121 15.4727L28.2993 14.1535Z" fill="#086372"/>
<path d="M26.4094 6.38057C26.7421 6.16664 27.0749 5.9527 27.4077 5.73877C28.5687 6.14382 27.8527 6.25791 26.7303 7.02237C26.6647 7.00811 26.4678 6.47042 26.4094 6.38057Z" fill="#87C6D2"/>
<path d="M23.1294 2.60109C23.6371 2.38002 23.9295 1.88085 24.4843 1.81667C25.2516 2.00493 24.7182 2.31727 24.0208 3.24289C23.7313 3.01754 23.426 2.81787 23.1294 2.60109Z" fill="#87C6D2"/>
<path d="M24.4842 1.81664C23.9294 1.88082 23.637 2.37999 23.1293 2.60106C22.8526 2.39854 22.3776 2.28301 22.5231 2.10188C23.048 1.91647 23.9622 1.68828 24.4842 1.81664Z" fill="#82C8B4"/>
<path d="M27.4077 5.73879C27.0749 5.95273 26.7422 6.16666 26.4094 6.38059C25.8018 5.43643 25.5964 5.43073 27.4077 5.73879Z" fill="#3999AC"/>
<path d="M21.0968 0.889632C22.0096 0.939549 21.3051 1.98354 19.8489 1.21053C19.8289 1.0565 20.9728 0.882501 21.0968 0.889632Z" fill="#3999AC"/>
<path d="M12.2902 5.2396C10.1622 6.33779 7.85747 7.17926 6.05045 8.80515C5.19899 9.57103 4.65132 10.5466 3.80415 11.301C3.807 10.3968 3.09817 9.94327 2.37793 10.5879C2.40931 10.5166 2.25385 10.3041 3.09104 9.26867C4.80678 7.14931 9.62883 5.16829 12.2902 5.2396Z" fill="#82C6B1"/>
<path d="M3.80375 11.301C3.79947 12.8527 1.9354 13.031 1.94967 11.5862C1.95395 11.1356 2.22493 10.9416 2.37753 10.5879C3.09777 9.94323 3.8066 10.3968 3.80375 11.301Z" fill="#19110C"/>
<path d="M21.9171 2.95764C25.0291 9.1674 28.2381 18.6503 19.0647 21.1419C19.1346 20.7355 17.58 21.1904 16.7471 21.2132C15.9242 21.2361 15.1711 21.1262 14.3582 21.0706L14.0729 19.0026C16.2351 18.5291 18.8436 16.8476 18.7438 14.3674C18.905 14.2333 21.1726 16.7891 22.2024 14.403C23.0153 12.5204 21.02 14.7011 20.8118 14.7239C20.3126 14.7796 18.2403 12.7329 17.9237 13.9752C17.8553 14.2419 18.5669 16.6394 14.893 18.0043C8.53634 20.3661 4.81248 13.8753 1.37957 15.9362C1.22982 14.5799 1.207 12.7586 1.95006 11.5863C1.93579 13.031 3.79986 12.8527 3.80414 11.301C4.65132 10.5466 5.19899 9.57102 6.05044 8.80514C7.85746 7.17925 10.1622 6.33778 12.2901 5.23959C12.4085 5.24244 12.5283 5.23246 12.6467 5.23959C12.7223 5.24387 13.0931 5.36367 13.2172 5.38221C13.2286 5.38364 13.3698 5.52911 13.3955 5.52483C13.6379 5.47919 14.4181 3.37124 17.6385 3.59944C18.6083 3.97168 18.6996 4.5821 19.1003 4.52648C20.3683 3.66504 17.677 2.58397 16.961 2.45846C14.1556 1.96499 13.3113 3.60229 13.1102 3.67075C12.9191 3.73636 10.3876 3.68073 9.11681 4.16992C8.80019 4.06153 9.50189 2.71946 8.22542 3.67075C8.2297 3.66219 8.07567 3.63224 8.15411 3.49247C8.33667 3.16587 9.71868 2.40141 10.1152 2.24453C10.3148 2.16466 10.7926 2.19461 10.7926 1.95929C11.5271 2.11189 10.1423 2.91628 10.8639 3.17157C11.249 3.35698 14.013 1.78671 14.6434 1.60273C15.656 1.58134 16.6544 1.37168 17.6741 1.46011C19.0148 1.57706 20.7576 2.2702 21.9171 2.95764Z" fill="#3999AC"/>
<path d="M16.3904 4.88308C18.4841 4.7319 19.7163 7.34759 18.9576 7.30765C16.088 3.69789 14.5178 7.50162 14.2867 7.69986C13.0915 8.72389 13.8931 5.06421 16.3904 4.88308Z" fill="#19110C"/>
<path d="M8.26098 10.2314C9.7685 9.96466 9.81699 13.0225 7.83311 12.5133C7.07294 11.997 7.47941 10.3697 8.26098 10.2314Z" fill="#200E0A"/>
<path d="M16.4616 6.16668C18.8034 5.96273 20.5391 9.94045 18.3156 11.6576C16.2305 13.2692 13.9628 11.535 14.3579 8.55559C14.4805 7.62427 15.4589 6.25367 16.4616 6.16668Z" fill="#200E0A"/>
<path d="M15.9622 7.59291C16.4114 7.51732 16.7466 7.79686 16.6396 8.27037C16.6154 8.37876 15.7069 9.16888 15.6056 9.16175C14.9267 8.91787 15.3902 7.68989 15.9622 7.59291Z" fill="#FDFDFE"/>
<path d="M18.458 9.01912C18.9315 10.2713 17.4796 11.6491 16.2474 11.515C15.9365 11.2968 16.6111 11.4095 17.0318 11.2298C17.8761 10.8675 18.4609 9.92905 18.458 9.01912Z" fill="#FDFDFE"/>
<path d="M20.4907 38.3978C20.1284 37.0371 18.4169 36.8945 17.353 37.3994C16.5243 35.1103 17.4928 32.2964 17.9948 29.9831C19.4481 29.2942 20.5506 28.6224 22.1308 28.0577C24.5112 28.6025 23.6027 30.1171 23.6997 31.231C23.7738 32.0882 24.3186 33.7226 23.9492 34.7609C23.7467 34.0891 22.5202 33.068 22.4161 33.299C23.3146 33.9109 24.1732 34.9577 23.771 36.0801L22.6657 35.1888L23.4144 36.6506C22.871 37.4436 21.7186 35.9047 22.7726 37.3637C22.8183 38.5375 19.488 36.2028 21.489 38.0769L20.4907 38.3978Z" fill="#87C6D2"/>
<path d="M18.209 36.2584C20.5024 37.3837 20.6522 35.116 20.8119 35.0461C21.0672 34.9349 22.2567 35.1602 21.0615 34.1547C20.6165 32.3363 20.993 33.3503 20.2771 33.6199C20.4824 33.0708 20.3584 32.1965 20.5623 31.5162C20.9674 30.167 22.4392 28.9975 21.3467 31.9441C22.4364 32.3192 20.9217 33.4045 21.2041 34.1547C21.2383 34.2446 22.6132 35.183 20.8832 35.1174C20.6764 36.8973 18.5185 37.0457 18.209 36.2584Z" fill="#19110C"/>
<path d="M19.8134 32.7642C20.1528 32.7827 19.5866 33.9936 19.6351 33.0137L19.8134 32.7642Z" fill="#3999AC"/>
<path d="M18.209 36.2584C17.9281 35.541 18.8024 34.5569 19.3857 34.1904C19.815 33.9208 20.0232 34.3002 20.2771 33.6199C20.993 33.3503 20.6165 32.3363 21.0615 34.1547C22.2567 35.1602 21.0672 34.9349 20.8119 35.0461C20.6522 35.116 20.5024 37.3837 18.209 36.2584Z" fill="#200E0A"/>
<path d="M19.6708 35.0461C19.8577 35.3813 19.1146 35.8091 19.2073 35.4383L19.6708 35.0461Z" fill="#B7A55F"/>
<defs>
<linearGradient id="paint0_linear_207_2166" x1="24.2503" y1="6.36056" x2="22.7428" y2="22.9061" gradientUnits="userSpaceOnUse">
<stop stop-color="#3999AC"/>
<stop offset="1" stop-color="#056A68"/>
</linearGradient>
</defs>
</svg>
