<svg width="47" height="67" viewBox="0 0 47 67" fill="none" xmlns="http://www.w3.org/2000/svg">
<path d="M18.769 65.7577C16.983 66.5676 15.0307 66.3638 13.0927 66.3834L13.2267 66.0259C15.0825 66.1224 16.9633 66.2905 18.769 65.7577Z" fill="#594E52"/>
<path d="M6.70113 43.3204C5.3102 43.0844 4.15705 42.144 3.48303 40.9068L3.70651 40.8174C4.52534 41.7632 7.15167 42.8126 6.70113 43.3204Z" fill="#FDFEFE"/>
<path d="M9.2934 10.8712C8.75884 11.0053 8.55145 10.4528 8.2207 10.156C8.49782 10.1721 8.71415 8.87953 8.75705 8.54699C8.7642 8.49514 8.64621 8.47905 8.75705 8.18942C10.0872 8.35212 9.91557 9.97726 9.2934 10.8712Z" fill="#4CBECF"/>
<path d="M8.75726 8.18945C8.64642 8.47907 8.76442 8.49516 8.75726 8.54701L7.50578 9.44093C6.92473 8.46298 7.84368 8.07681 8.75726 8.18945Z" fill="#D1EBF3"/>
<path d="M8.75704 8.54698C8.71413 8.87952 8.4978 10.1721 8.22069 10.156C7.97397 9.93434 7.67897 9.73232 7.50555 9.4409L8.75704 8.54698Z" fill="#87CED9"/>
<path d="M10.7238 6.84857C10.8507 7.49398 10.4395 8.09648 9.82988 8.36823C9.812 8.2985 9.31499 7.51543 9.29353 7.38492C9.22738 6.99338 9.34538 6.82712 9.47231 6.491C10.2697 6.2711 10.2572 6.36228 10.7238 6.84857Z" fill="#87CED9"/>
<path d="M9.29356 10.8712C10.0784 10.7639 9.98903 8.97252 9.82991 8.36823C10.4396 8.09648 10.8508 7.49398 10.7238 6.84857C11.6517 7.814 10.4914 9.83604 10.8132 11.1841C10.6809 11.4844 9.00393 11.311 9.29356 10.8712Z" fill="#CCD742"/>
<path d="M3.48309 40.9068C4.1571 42.144 5.31025 43.0844 6.70119 43.3204C7.0677 43.383 8.83586 43.5564 9.02537 43.2757C9.96756 39.5749 8.87877 41.0927 8.13146 39.6106C7.14815 37.6619 9.33824 36.582 9.29355 36.3925C9.26137 36.2513 7.62729 35.9295 7.95267 34.0683C8.15112 32.9384 9.59748 32.5684 9.65112 32.4593C9.78341 32.1929 8.78044 31.0433 10.992 29.42C7.21072 24.8199 9.30964 21.9808 9.29355 21.5535C9.28819 21.4337 8.50869 20.2108 8.22085 19.4081C7.80071 18.2406 7.99379 16.771 7.10345 17.3074C6.94791 17.4004 6.9497 19.2383 4.24292 18.8271C2.2763 18.5285 3.467 15.6572 3.93005 14.4022C5.73576 9.50708 7.95982 11.3092 8.04206 10.7371C6.04684 9.08157 6.50989 6.83248 9.29355 7.38492C9.315 7.51543 9.81202 8.2985 9.8299 8.36823C9.98902 8.97252 10.0784 10.7639 9.29355 10.8712C9.91572 9.97728 10.0873 8.35214 8.7572 8.18944C7.84362 8.07681 6.92467 8.46298 7.50571 9.44093C7.67913 9.73235 7.97413 9.93437 8.22085 10.1561C8.5516 10.4528 8.75899 11.0053 9.29355 10.8712C9.00392 11.311 10.6809 11.4844 10.8132 11.1841C10.4914 9.83604 11.6517 7.814 10.7238 6.84857C10.2572 6.36228 10.2697 6.2711 9.47233 6.491C9.54385 6.30149 10.7935 4.24727 10.9026 4.12212C12.163 2.68649 13.5683 3.49996 13.9866 3.45168C14.2458 3.42308 16.958 1.52797 18.5456 0.948716C18.7869 0.861113 21.5992 0.0780412 21.7637 0.0547993C25.6326 -0.499429 30.0592 3.33011 30.5241 3.45168C30.8566 3.53929 31.7827 3.37302 32.8483 3.80925C32.9824 3.86467 35.1528 5.32176 35.2618 5.4183C36.8941 6.86108 35.4388 7.48146 35.3959 7.6084C35.3334 7.79255 36.204 10.848 36.1558 11.4075C38.0991 12.0798 35.412 9.88074 37.2285 7.74249C38.4799 7.14535 38.8983 9.11197 39.1504 9.39623C39.735 10.0559 40.7308 9.27287 39.1057 11.5863C40.2964 11.8438 43.5735 11.0929 43.8881 12.7037C43.9704 13.1239 43.7666 15.3158 43.62 15.743C43.1265 17.1823 41.412 16.7103 41.117 17.1733C40.9686 17.4075 41.117 20.3664 39.5973 22.4474C39.3238 22.8229 38.5515 23.2966 38.5246 23.4307C38.4674 23.7132 39.6456 25.7317 37.5413 28.8836C37.0264 29.656 36.1272 30.3854 36.1111 30.4927C36.0735 30.7376 36.8763 30.9951 35.6641 32.2805C38.4424 33.355 37.3196 35.411 35.1278 36.3925C37.9901 39.4497 36.5097 39.911 36.4686 40.3258C36.4543 40.4759 36.9782 41.8848 36.2898 43.2757C36.5598 43.9855 42.1092 42.6803 43.9775 39.1637C45.5902 36.1279 43.4054 34.6351 45.5419 34.7388C48.794 38.8955 45.9549 46.9837 43.3518 51.0528C40.2874 55.8442 37.2034 56.6183 37.0944 57.042C37.0175 57.337 39.6367 60.4872 39.1504 62.6737C38.6909 64.7404 29.0241 65.3358 27.5742 64.3274C26.2637 63.4174 27.2774 59.6219 26.9484 59.5003C26.5908 59.368 21.8549 60.1064 19.3501 59.5897C19.0891 60.927 20.1171 63.4639 18.8138 64.3274C16.9759 65.545 6.71549 64.955 5.98606 62.8525C5.26735 60.7822 8.22621 57.4479 8.13146 57.1314C2.49442 54.0992 -1.02047 47.402 0.264986 41.0409C0.588584 39.4372 2.3496 35.0713 3.66187 36.1244C3.76914 36.4926 1.93125 38.0552 3.48309 40.9068Z" fill="#090C0B"/>
<path d="M15.1489 10.2454C16.1143 10.0452 17.1745 11.7758 14.3891 11.2734C14.3354 10.9427 14.8772 10.3008 15.1489 10.2454Z" fill="#FDFEFE"/>
<path d="M38.6142 8.90457V11.4969L37.2734 11.4522C36.3687 9.43019 37.3252 6.4606 38.6142 8.90457Z" fill="#87CED9"/>
<path d="M38.6141 11.4969V8.90459C38.9287 9.50172 39.4669 11.1287 38.6141 11.4969Z" fill="#12A2BD"/>
<path d="M12.2437 46.0915C12.4922 46.4205 12.9141 46.9264 13.0482 47.2983C13.218 47.7649 14.8038 56.3751 14.836 57.042C14.8593 57.5319 14.8539 59.0658 14.7466 59.4109C14.6429 59.7452 14.0226 60.1832 13.808 60.8412C12.6388 58.1969 9.90339 57.834 9.07026 60.8412C8.21389 59.4735 7.41651 60.4979 7.77408 59.5897C8.33367 60.4675 8.75918 59.1016 9.7407 58.0253C10.0053 57.7357 11.6126 56.2411 11.6179 56.0587C9.92127 54.9753 9.62449 55.2595 9.51722 55.2095C8.64833 54.8054 9.20077 53.3072 9.20435 53.1982C9.26156 51.2315 9.31698 49.5403 9.56192 47.5665C9.72103 46.2882 10.6757 44.293 9.91948 43.231C9.97133 42.9825 9.83188 42.725 10.0983 43.0075C10.3343 44.4521 11.8217 45.5337 12.2437 46.0915Z" fill="#174340"/>
<path d="M35.4855 55.9246V56.1928C35.4784 56.3126 35.2424 56.3698 35.3067 56.595C35.3496 56.7416 36.6655 57.8787 37.184 59.0086C35.1637 58.0056 34.7972 58.2595 33.6977 60.126C33.7209 59.4985 33.3365 57.0867 32.7591 56.8185C30.7978 56.6773 29.1655 58.6868 28.6917 60.4836C28.6631 60.0009 28.8973 57.1189 28.9599 56.9526C29.2066 56.3054 34.4021 55.6797 34.8151 45.1976C35.4962 44.3359 36.1309 47.1195 36.29 47.924C37.4414 53.7381 35.4337 55.2274 35.3067 55.6117C35.2638 55.744 35.4766 55.8048 35.4855 55.9246Z" fill="#2A5C59"/>
<path d="M12.4225 23.9224C11.5107 24.8199 11.6966 25.5225 11.6179 25.9784C11.6108 26.0177 11.407 25.9426 11.4392 26.6935C11.5303 28.8496 15.7478 28.9247 16.0428 28.8389C16.1179 28.8175 15.9356 28.6101 16.4451 28.4813C17.7484 28.9748 21.5261 30.0582 22.8366 30.2692C26.2675 30.8198 33.6012 30.9289 35.8431 27.7662L36.2901 28.2132C33.5153 31.9301 30.2722 32.681 25.7865 32.504C22.1697 32.3609 12.8372 30.2817 10.8134 27.0511C10.9064 25.5851 11.0065 24.9003 12.0649 23.833C12.2562 23.8723 12.3939 23.9188 12.4225 23.9224Z" fill="#8D4840"/>
<path d="M45.2292 43.1416C44.1744 48.4711 41.6946 51.9753 37.2286 55.0307C37.0749 54.9198 37.6631 53.6326 37.6309 51.2762C39.703 49.9801 41.5284 48.3764 42.905 46.3597C43.1142 46.0522 43.1678 45.9628 43.352 45.6446C43.5665 45.2745 44.2977 44.1034 44.3353 43.9908C44.3746 43.871 44.2226 43.7959 44.3353 43.4098L45.2292 43.1416Z" fill="#2A5C59"/>
<path d="M14.7467 59.4109C14.8539 59.0658 14.8593 57.5319 14.8361 57.042C14.8039 56.3751 13.2181 47.7649 13.0482 47.2983C12.9141 46.9264 12.4922 46.4205 12.2437 46.0915C11.9094 45.5498 13.5953 46.2971 14.3891 46.315C14.3748 48.3496 14.3462 50.4252 14.9254 52.3936C15.7067 55.0468 17.5893 56.1749 18.0542 58.9192C18.8926 63.8644 17.4534 57.2726 14.7467 59.4109Z" fill="#2A5C59"/>
<path d="M14.7466 35.7221C14.0154 37.0397 13.1733 38.2519 13.0482 39.8341C12.46 39.9074 11.6733 40.2918 12.3777 40.8174C13.7311 40.5886 13.2162 41.0945 13.4504 41.175C13.547 41.2072 14.8253 41.2876 15.0148 41.2644C14.6286 41.8186 13.513 42.5409 14.3891 42.6946C13.3235 43.1559 12.0345 43.8746 11.0816 42.6499C10.7043 42.1654 10.6221 41.4003 10.6346 40.8174C10.6346 40.787 10.6328 40.7584 10.6346 40.728C11.9665 38.4164 13.926 36.2638 15.3724 34.2024C15.7407 33.8306 15.022 35.2269 14.7466 35.7221Z" fill="#549285"/>
<path d="M19.4844 42.6052C19.4182 42.5748 18.7817 41.933 18.1882 41.9795C17.5285 42.0313 14.2567 44.722 12.0649 43.8567C11.3211 43.5635 10.05 41.545 10.6346 40.8174C10.6221 41.4002 10.7043 42.1654 11.0815 42.6499C12.0345 43.8746 13.3235 43.1559 14.389 42.6946C15.2418 42.3263 16.1143 41.8365 16.8473 41.2644C17.3032 40.9086 19.1286 39.1547 19.1268 38.672C19.5362 38.3752 19.7561 37.9068 20.2442 37.9569C20.9289 39.1476 18.299 39.1476 19.2609 40.0129C21.0451 39.464 21.5851 40.2042 19.976 40.0129C17.7305 41.5504 20.5231 42.4229 20.5571 42.6499C20.6965 43.2596 19.8133 42.759 19.4844 42.6052Z" fill="#549285"/>
<path d="M7.77411 59.5897C8.03871 58.9174 9.41176 56.9347 10.0089 56.3269H9.20438C10.0733 55.2667 9.29198 55.4044 9.11498 54.986C7.7759 51.8054 9.21332 46.5885 9.91951 43.231C10.6758 44.293 9.72106 46.2882 9.56194 47.5665C9.31701 49.5403 9.26159 51.2315 9.20438 53.1982C9.2008 53.3072 8.64836 54.8054 9.51725 55.2095C9.62452 55.2595 9.9213 54.9753 11.618 56.0587C11.6126 56.2411 10.0053 57.7357 9.74073 58.0253C8.75921 59.1016 8.3337 60.4675 7.77411 59.5897Z" fill="#549285"/>
<path d="M26.5463 57.0867C26.7305 57.6034 27.9051 57.6087 27.3956 58.3382C26.1512 58.887 19.6828 58.9049 18.9927 58.4276C18.3795 58.0021 19.0768 57.126 19.5738 56.9079C21.5189 57.918 24.4993 57.7911 26.5463 57.0867Z" fill="#3B181A"/>
<path d="M27.4403 19.0058C25.7294 18.743 24.603 19.1846 23.0601 19.274C23.1763 18.6965 23.3104 16.948 23.9987 16.771C24.1507 16.7317 26.9844 16.7085 27.1274 16.771C27.3599 16.8747 27.3831 18.6697 27.4403 19.0058Z" fill="#549285"/>
<path d="M33.6977 60.126C33.6352 61.8513 33.2401 59.772 32.1334 59.2321C30.3438 58.3578 28.9367 59.6773 28.6918 61.4669H28.6024C28.6435 61.2077 28.5845 60.8894 28.6918 60.4836C29.1656 58.6868 30.7979 56.6773 32.7591 56.8185C33.3366 57.0867 33.721 59.4985 33.6977 60.126Z" fill="#549285"/>
<path d="M18.5011 9.79849V9.88788C16.7866 6.21209 13.1591 7.51721 12.7801 11.2735L12.3778 11.3181C12.528 5.79374 17.491 3.96836 18.5011 9.79849Z" fill="#F4D666"/>
<path d="M19.4845 42.6052C17.1013 43.1255 13.8903 46.8817 12.0649 43.8567C14.2568 44.722 17.5286 42.0313 18.1883 41.9795C18.7818 41.933 19.4183 42.5748 19.4845 42.6052Z" fill="#2A5C59"/>
<path d="M15.5065 8.27882C17.0351 8.09468 18.1578 9.3694 18.5011 10.7371C16.7419 11.1787 16.1036 8.60421 14.3444 10.0667C13.7455 10.5655 13.7347 11.3664 13.2717 11.3181C13.1269 10.072 14.2174 8.43437 15.5065 8.27882Z" fill="#56232A"/>
<path d="M34.9939 31.6994C35.7305 32.3484 33.4188 32.4253 33.3401 32.9062C33.7674 34.2078 36.4688 33.0743 34.7704 33.9789C34.4146 34.7942 35.3085 34.2203 36.0219 34.6941C34.1625 37.0862 34.6184 34.4187 32.178 33.085L34.9939 31.6994Z" fill="#00908F"/>
<path d="M5.62874 13.3742C5.64483 13.5637 5.55007 13.6674 5.53935 13.9105C5.51432 14.5202 5.33553 15.2728 5.44996 15.8771C5.03518 16.5851 5.07809 17.681 4.19847 18.0225C3.42434 17.2466 5.43029 11.0696 5.62874 13.3742Z" fill="#F8CF9C"/>
<path d="M15.3724 34.2024C13.926 36.2638 11.9666 38.4164 10.6346 40.728C10.7383 39.2817 13.556 35.3091 14.6573 34.1577C15.7711 32.9939 16.8885 32.0427 15.3724 34.2024Z" fill="#EDEFB9"/>
<path d="M20.4677 1.66383C20.8253 2.4326 18.2454 2.95107 17.2496 4.07741C16.9975 3.93974 16.0196 3.81102 15.7747 3.54106C17.2228 2.71329 18.2973 2.18409 19.8867 1.66383C20.019 1.62092 20.3265 1.70674 20.4677 1.66383Z" fill="#F5EBD7"/>
<path d="M35.1279 38.225L34.7257 38.672C34.0374 37.6011 33.83 37.7012 33.7871 37.644C33.737 37.5761 34.1411 37.6279 32.9825 36.2137C32.3193 35.4038 31.3502 34.6136 30.8371 34.0236C29.6196 32.6238 31.7382 34.0755 32.2227 34.4706C33.088 35.1768 34.6989 37.206 35.1279 38.225Z" fill="#2A5C59"/>
<path d="M14.389 42.6946C13.513 42.5409 14.6286 41.8186 15.0148 41.2644C16.0106 41.1428 18.2204 39.3281 19.1268 38.672C19.1286 39.1547 17.3032 40.9086 16.8473 41.2644C16.1143 41.8365 15.2418 42.3263 14.389 42.6946Z" fill="#E6E896"/>
<path d="M12.199 3.89863C14.2533 3.54821 12.0435 4.93915 11.1263 6.93795C9.56913 6.01543 11.1835 4.07205 12.199 3.89863Z" fill="#4CBECF"/>
<path d="M36.2901 28.2132L35.8431 27.7662C35.9343 27.6375 35.9254 27.5106 35.9325 27.498C36.24 27.0135 36.8443 26.2555 36.3795 26.2466C36.8121 25.9087 36.7228 25.4224 36.7371 24.9057C36.7478 24.5088 36.8014 24.1012 36.5583 23.7436C36.7889 23.7329 37.2537 23.4271 37.3628 23.7883C37.5916 25.9534 37.5362 26.5433 36.2901 28.2132Z" fill="#A5614F"/>
<path d="M33.4296 7.02734C33.712 6.84855 32.8092 6.16203 32.8038 6.08873C32.7913 5.93855 33.6173 5.70792 32.7144 4.97133C34.0767 5.13223 35.4176 10.7639 35.128 11.2734L34.9045 11.3181C34.6828 11.2645 34.7919 8.94926 33.4296 7.02734Z" fill="#47686F"/>
<path d="M45.2292 43.1416L44.3353 43.4098C45.2543 40.2811 44.4766 40.8442 44.5141 40.5045C44.5248 40.4098 45.4545 39.5284 45.5868 38.9402C45.905 39.6339 45.4456 42.0528 45.2292 43.1416Z" fill="#8C9C9F"/>
<path d="M16.5345 60.0366C16.6685 62.0694 17.2728 63.3817 14.5678 63.4335C14.0529 61.1898 15.2669 59.2553 16.5345 60.0366Z" fill="#F5EBD7"/>
<path d="M14.5679 63.4335C17.2729 63.3817 16.6686 62.0694 16.5345 60.0366C17.6984 60.7535 17.146 62.1409 18.233 62.8525C18.3671 63.7392 15.3152 63.893 14.702 63.9699C14.4768 63.8322 14.6091 63.6123 14.5679 63.4335Z" fill="#D0B7A9"/>
<path d="M12.2437 60.2154C12.3849 60.4157 12.4493 60.5015 12.5118 60.7518C12.9552 62.5307 11.8396 63.7124 10.0983 63.1653C9.87656 62.865 9.86762 62.7166 9.83008 62.3608C10.1251 62.275 10.5738 61.7762 10.8134 61.5116C11.6394 60.5998 11.8754 59.8453 12.2437 60.2154Z" fill="#F5EBD7"/>
<path d="M10.0983 63.1653C11.8396 63.7124 12.9552 62.5307 12.5118 60.7518C13.1519 61.5259 13.8098 63.1207 13.1823 63.8805C12.2633 63.7982 10.6614 63.9288 10.0983 63.1653Z" fill="#BFA49A"/>
<path d="M12.2437 60.2154C11.8754 59.8453 11.6394 60.5998 10.8134 61.5116C10.5738 61.7762 10.1251 62.275 9.83009 62.3608C9.59767 60.1099 11.2014 58.744 12.2437 60.2154Z" fill="#FDFEFE"/>
<path d="M37.5413 62.0032C36.8047 62.6844 35.5979 62.8542 35.0384 61.9585C34.94 61.8012 34.9382 61.1057 34.6808 61.0199C34.704 60.8125 34.7898 60.5086 34.8596 60.3048C35.5479 60.3656 36.6957 60.3191 37.0944 60.9752C37.3697 61.4293 37.1373 61.8405 37.5413 62.0032Z" fill="#F5EBD7"/>
<path d="M37.8989 61.6457C37.7988 61.8048 37.6718 61.8835 37.5413 62.0032C37.1373 61.8406 37.3697 61.4294 37.0944 60.9752C36.6957 60.3191 35.5479 60.3656 34.8596 60.3048C35.5926 58.163 37.6933 60.1081 37.8989 61.6457Z" fill="#FDFEFE"/>
<path d="M37.5413 62.0032C37.6718 61.8835 37.7987 61.8048 37.8988 61.6457C37.9042 61.6796 38.0437 61.6153 37.9882 62.3161C37.8184 62.7738 34.8989 63.5604 34.7254 63.4335C34.6271 63.362 34.6504 61.2899 34.6807 61.0199C34.9382 61.1057 34.94 61.8012 35.0383 61.9585C35.5979 62.8542 36.8047 62.6844 37.5413 62.0032Z" fill="#BFA49A"/>
<path d="M13.0482 39.8341C13.1734 38.2519 14.0154 37.0397 14.7467 35.7221C14.5536 37.1273 14.0405 38.4485 14.0315 39.8788C13.5649 40.0379 13.143 39.8216 13.0482 39.8341Z" fill="#8C9C9F"/>
<path d="M16.5345 4.2562C15.2294 3.97015 15.7908 4.4475 15.6853 4.52437C15.6263 4.56728 14.8969 4.58337 14.255 4.79255C13.5345 5.02854 13.9314 5.57383 12.6907 4.97133C13.7634 3.68052 15.0846 3.70733 16.5345 4.2562Z" fill="#E6E896"/>
<path d="M4.19843 18.0225C5.07804 17.681 5.03513 16.5851 5.44991 15.8771C5.48924 16.0845 7.38792 18.566 4.19843 18.0225Z" fill="#593331"/>
<path d="M13.495 24.1012C14.1655 25.165 12.5832 26.0285 11.6178 25.9784C11.6965 25.5225 11.5105 24.8199 12.4223 23.9224C12.6976 23.9617 13.4414 24.0976 13.495 24.1012Z" fill="#D87E57"/>
<path d="M13.7632 24.1012C14.9682 25.2812 12.8908 25.9587 13.4057 26.2466C13.0678 26.1286 12.8532 25.8622 12.7799 26.4254C12.3544 26.2823 11.8449 26.4897 11.4391 26.6935C11.4069 25.9427 11.6107 26.0177 11.6178 25.9784C12.5833 26.0285 14.1655 25.1649 13.4951 24.1012C13.5845 24.1065 13.6738 24.0976 13.7632 24.1012Z" fill="#1C0906"/>
<path d="M7.50592 62.7184C8.07982 62.3948 8.10306 61.7565 8.31045 61.1987C8.83964 61.812 9.06134 62.5414 9.29375 63.2994C9.17218 63.4675 7.98148 63.1457 7.50592 62.7184Z" fill="#BFA49A"/>
<path d="M8.31039 61.1987C8.103 61.7565 8.07976 62.3948 7.50586 62.7184C6.66916 61.9675 7.11075 59.8078 8.31039 61.1987Z" fill="#FDFEFE"/>
<path d="M32.5357 61.02C32.8861 61.4937 33.0542 61.685 33.2508 62.2715C33.0524 63.2351 31.9511 63.396 31.1054 63.3442C29.8808 63.2691 29.5643 62.6827 29.6752 61.4669C29.6984 61.2202 29.7771 61.1433 29.8539 60.9306L29.8986 61.2881C31.1126 60.868 31.0607 60.4765 32.5357 61.02Z" fill="#F5EBD7"/>
<path d="M32.5357 61.02C31.0607 60.4765 31.1126 60.868 29.8986 61.2882L29.8539 60.9306C30.5494 59.0212 31.6936 59.8793 32.5357 61.02Z" fill="#FDFEFE"/>
<path d="M31.1054 63.3441C31.1501 64.0182 30.2973 63.505 29.9433 63.7911C28.2467 63.6052 29.1799 62.5593 29.6752 61.4669C29.5643 62.6826 29.8808 63.2691 31.1054 63.3441Z" fill="#A08683"/>
<path d="M29.9433 63.7911C30.2973 63.505 31.1501 64.0181 31.1054 63.3441C31.951 63.396 33.0523 63.2351 33.2508 62.2714C33.3867 62.6737 33.7675 63.4246 33.2955 63.7017C33.1113 63.809 30.3545 63.8358 29.9433 63.7911Z" fill="#BFA49A"/>
<path d="M35.3961 23.833C34.3538 24.1888 34.1214 26.4682 36.0219 25.7102C36.3294 25.5868 36.5118 25.1256 36.737 24.9057C36.7227 25.4224 36.8121 25.9087 36.3795 26.2466C36.3079 26.302 35.9379 26.302 35.7537 26.4253C35.0261 26.2752 34.293 26.3181 33.6977 25.7996C33.6941 25.451 33.6709 25.4831 33.8765 24.9951C34.15 24.6911 34.3556 24.3425 34.5916 24.0118C35.128 23.9975 34.976 23.5487 35.3961 23.833Z" fill="#1C0906"/>
<path d="M36.0219 25.7102C34.1214 26.4683 34.3539 24.1888 35.3962 23.833C35.4731 23.8062 35.6107 23.7543 35.6643 23.7436C35.4784 24.4802 35.6947 25.0809 36.0219 25.7102Z" fill="#8D4840"/>
<path d="M36.5583 23.7436C36.8014 24.1012 36.7478 24.5088 36.7371 24.9057C36.5118 25.1256 36.3294 25.5868 36.0219 25.7102C35.6948 25.0809 35.4784 24.4802 35.6644 23.7436C35.8539 23.706 36.2633 23.7561 36.5583 23.7436Z" fill="#8D4840"/>
<path d="M23.954 22.9391C23.6358 22.1578 23.0744 21.457 22.4343 22.4027C22.2127 21.8771 22.9171 21.3372 23.4624 21.5088C24.2401 22.2114 23.9397 22.8604 23.954 22.9391Z" fill="#A94624"/>
<path d="M27.5295 19.7209C28.2768 23.4486 30.3739 23.8401 33.7869 23.9224C33.6135 24.3246 33.5348 24.7841 33.3399 25.1738C31.9061 28.0558 27.6457 29.6559 24.5795 29.6434C22.0658 29.6327 17.6731 28.3526 15.3275 27.3192C14.6982 27.0421 13.8597 26.4057 13.4056 26.2465C12.8907 25.9587 14.9681 25.2811 13.7631 24.1011C16.6684 24.2317 20.2637 23.3163 20.6016 23.386C20.775 23.4218 21.1523 24.0082 21.7637 23.833C22.2553 23.6917 22.0873 22.914 22.4341 22.4027C23.0742 21.4569 23.6356 22.1578 23.9538 22.939C24.5634 26.0856 26.3191 21.2907 23.2833 20.5255C22.781 20.3985 22.6344 21.0064 22.7917 20.0785C24.3739 20.0392 25.9436 19.4134 27.5295 19.7209Z" fill="#F4D666"/>
<path d="M12.0647 23.833C11.0063 24.9003 10.9062 25.5851 10.8132 27.0511C10.4681 26.5022 10.1177 25.6709 10.0087 25.0398C9.49735 22.0791 10.2858 23.3807 10.7685 23.5648C11.1904 23.7239 11.6356 23.7454 12.0647 23.833Z" fill="#ECDF5F"/>
<path d="M27.44 19.0058C27.4847 19.2722 27.4972 19.56 27.5294 19.7209C25.9436 19.4134 24.3739 20.0392 22.7916 20.0785C22.822 19.8944 23.0115 19.5118 23.0598 19.274C24.6027 19.1846 25.729 18.743 27.44 19.0058Z" fill="#F6DFAF"/>
<path d="M34.5914 24.0118C34.3554 24.3425 34.1498 24.6911 33.8763 24.9951C33.7761 25.1077 33.6349 25.1881 33.5634 25.442L33.3399 25.1738C33.5348 24.7841 33.6134 24.3246 33.7869 23.9224C34.0354 23.9277 34.384 24.0171 34.5914 24.0118Z" fill="#C27C4E"/>
<path d="M20.9594 40.1917C21.898 41.765 20.2907 41.7024 20.3784 40.9515L20.9594 40.1917Z" fill="#549285"/>
<path d="M12.0203 29.8222C13.2843 30.6893 14.4964 31.3705 15.9982 31.7441L13.2718 34.2918C12.1544 33.3728 9.39038 32.8168 10.2324 32.057C12.2563 31.2131 12.9786 32.2179 14.9255 31.9229C13.8904 31.3365 12.5656 31.0057 12.0203 29.8222Z" fill="#00908F"/>
<path d="M13.0482 34.56C12.5118 35.0874 11.3783 36.927 11.0816 37.1523L9.83008 37.0629C9.85153 37.0379 9.84617 36.7965 10.2323 36.5266C10.5828 36.2816 11.7019 36.1243 11.171 35.9902C9.72281 34.4348 12.1543 34.7566 13.0482 34.56Z" fill="#CCD742"/>
<path d="M13.0482 34.56C12.1543 34.7566 9.72284 34.4348 11.171 35.9902C10.0858 36.4211 8.38375 35.4288 8.98089 35.0069L10.6346 34.5153C9.79078 33.2298 10.4684 34.1488 11.6626 34.3812C12.1328 34.4724 13.3951 34.206 13.0482 34.56Z" fill="#4CBECF"/>
<path d="M10.3218 38.5826C9.82118 41.0623 8.79138 39.7304 9.02559 39.3424L10.3218 38.5826Z" fill="#079EA1"/>
<path d="M11.0817 37.1523C10.5793 37.5331 9.97856 37.4723 9.4279 37.6887C9.05603 37.6189 9.74077 37.163 9.83017 37.0629L11.0817 37.1523Z" fill="#16A788"/>
<path d="M21.451 43.231C21.4313 43.1309 20.9665 42.6195 21.0934 42.3818C21.1202 42.3317 21.4903 42.2977 21.6297 42.1583C21.8586 42.9288 22.504 42.843 21.451 43.231Z" fill="#56232A"/>
<path d="M35.1279 38.225C35.2656 38.554 35.8824 40.0629 35.4408 40.1916C34.942 39.8019 33.5528 39.0653 33.5189 40.1469C36.8889 40.5742 36.0433 42.8305 33.9211 44.393C33.24 43.3561 35.2745 42.7947 32.8931 43.231C32.8967 43.197 32.6482 42.7804 32.7143 42.5605C32.7644 42.3925 35.2316 40.8603 32.4462 40.281C33.0308 39.4837 33.3133 38.9491 32.9378 37.9568C31.8115 38.4235 32.3764 38.0194 31.6416 36.1243C31.3359 35.3377 30.653 34.256 30.8371 34.0236C31.3502 34.6136 32.3192 35.4038 32.9825 36.2137C34.141 37.6279 33.737 37.576 33.787 37.644C33.8299 37.7012 34.0373 37.6011 34.7257 38.672L35.1279 38.225Z" fill="#2A5C59"/>
<path d="M32.4461 40.281C35.2315 40.8603 32.7643 42.3924 32.7143 42.5605C32.6481 42.7804 32.8966 43.197 32.893 43.2309C32.7876 44.4038 32.2691 44.874 32.0885 44.6165C33.2131 41.7864 31.7703 43.0075 31.284 42.5605C30.7101 42.0331 31.436 41.3251 31.284 40.4598C31.2697 40.374 31.2929 40.2792 31.284 40.1916C31.6827 40.1451 32.0545 40.1988 32.4461 40.281Z" fill="#549285"/>
<path d="M31.284 40.1916C31.293 40.2792 31.2697 40.374 31.284 40.4598C30.3651 39.9574 30.964 41.7828 29.4515 41.7113C29.0027 41.5164 30.1362 40.3275 31.284 40.1916Z" fill="#549285"/>
<path d="M31.5075 43.1416L31.731 43.1863C31.554 44.6988 30.0075 44.3323 31.5075 43.1416Z" fill="#F4D666"/>
<path d="M30.4348 42.2477L30.6583 42.6499C29.8877 44.1195 29.405 42.8627 30.4348 42.2477Z" fill="#CCD742"/>
<path d="M28.6918 61.4669C28.538 62.6004 28.8974 63.5676 28.4683 63.4335C28.1232 63.3513 28.5595 61.7369 28.6024 61.4669H28.6918Z" fill="#2A5C59"/>
<path d="M30.7924 8.27885C32.2226 8.09471 33.4777 9.71449 33.3847 11.05C32.2155 11.7723 31.6881 8.03213 29.6303 10.4243C28.9992 9.75382 29.9914 8.38255 30.7924 8.27885Z" fill="#3B181A"/>
<path d="M30.9711 6.40163C32.716 6.15849 34.1141 9.73237 34.0104 11.1394C33.5349 8.93678 31.7667 6.42488 29.4962 8.50234C29.5677 7.81223 30.2345 6.50533 30.9711 6.40163Z" fill="#F4D666"/>
<path d="M30.7478 11.2287C30.4135 10.9659 30.224 11.0464 30.3008 10.5136C31.0052 10.0577 31.4147 10.19 31.7311 11.0053C31.7222 11.3449 31.2377 11.2055 30.7478 11.2287Z" fill="#FDFEFE"/>
<path d="M30.3008 10.5136C30.2239 11.0464 30.4134 10.9659 30.7478 11.2287C29.9611 11.2645 29.1584 11.2538 30.3008 10.5136Z" fill="#62161D"/>
<path d="M28.2449 5.86522C27.6477 6.10657 27.5744 6.21742 26.8146 6.044C26.811 6.0297 26.5965 5.98142 26.6358 5.82052C26.6448 5.78655 27.0291 5.62028 27.0828 5.28417C27.1507 4.85688 26.9183 4.81218 26.904 4.70312C26.8396 4.22398 26.7663 4.29192 26.7252 4.16677C26.7216 4.15605 26.8986 4.15068 26.8146 3.94329C26.7127 3.69121 26.4642 3.47846 26.3676 3.27286L26.0101 2.11076C27.2741 2.59169 28.3915 3.35331 29.4963 4.12208L28.2449 5.86522Z" fill="#2A5C59"/>
<path d="M26.3675 3.27289C26.2746 3.07265 25.6488 2.30567 26.01 2.11079L26.3675 3.27289Z" fill="#2A5C59"/>
<path d="M35.4855 56.1928V55.9246C35.4945 56.0694 35.4945 56.0515 35.4855 56.1928Z" fill="#84B28E"/>
<path d="M13.4058 26.2466C13.8599 26.4057 14.6984 27.0421 15.3277 27.3193C17.6733 28.3526 22.066 29.6327 24.5797 29.6434C28.4379 30.06 32.6339 29.7167 35.9325 27.498C35.9253 27.5106 35.9343 27.6375 35.8431 27.7662C33.6011 30.9289 26.2675 30.8198 22.8366 30.2692C21.5261 30.0582 17.7484 28.9748 16.4451 28.4813C13.6668 27.4301 12.9803 26.4933 12.78 26.4253C12.8533 25.8622 13.0679 26.1286 13.4058 26.2466Z" fill="#090C0B"/>
<path d="M33.6977 25.7996C33.7031 26.2662 33.8783 26.8669 34.1894 27.3193C34.4504 27.3997 35.4927 26.5988 35.7537 26.4253C35.9379 26.302 36.308 26.302 36.3795 26.2466C36.8443 26.2555 36.24 27.0135 35.9325 27.498C32.634 29.7167 28.4379 30.06 24.5798 29.6434C27.6459 29.656 31.9063 28.0558 33.3402 25.1739L33.5636 25.442C33.6352 25.1882 33.7764 25.1077 33.8765 24.9951C33.6709 25.4832 33.6942 25.451 33.6977 25.7996Z" fill="#B9745B"/>
<path d="M26.7252 4.16681C26.7663 4.29196 26.8396 4.22402 26.904 4.70316C25.7258 3.94333 25.8885 4.08099 26.7699 5.23951C23.5697 3.82712 27.6549 5.74189 26.457 7.42961C26.1298 7.89087 25.5345 7.24546 25.4737 7.42961C27.435 8.5613 26.5071 10.0488 25.5184 9.88788C23.5947 8.44152 25.8813 11.4308 26.8146 9.75379C27.4153 8.67394 26.6358 7.97668 26.6358 7.87656C26.6358 7.76929 27.1686 7.82472 26.8146 6.04403C27.5744 6.21745 27.6477 6.10661 28.2448 5.86525C29.1477 5.50232 28.9761 5.27348 29.4516 4.97133C30.4796 4.31877 31.7061 4.14714 32.7144 4.97133C33.6173 5.70792 32.7913 5.93855 32.8038 6.08873C32.8092 6.16203 33.712 6.84856 33.4296 7.02734C32.1066 5.16084 30.1811 4.88015 29.2282 7.25082C28.8348 8.23056 28.6274 11.479 28.0214 11.8545C27.6692 12.0726 24.0828 12.1799 23.5518 12.1227C23.1424 12.078 21.8784 11.2556 19.7079 11.3181C18.8605 3.00293 12.5226 3.44095 11.7074 11.1841L11.4839 11.3181C11.1621 11.0714 11.5161 6.38372 12.6907 4.97133C13.9314 5.57383 13.5345 5.02854 14.255 4.79255C14.8969 4.58337 15.6263 4.56728 15.6853 4.52437C15.7908 4.4475 15.2294 3.97015 16.5345 4.2562C17.2604 4.53153 18.1561 5.14297 18.7246 5.68647C19.0232 5.52199 17.4767 4.20256 17.2497 4.07742C18.2455 2.95108 20.8253 2.43261 20.4678 1.66384C20.9219 1.52796 22.0017 0.866466 22.3897 0.859315C22.9815 0.848588 23.0655 1.4046 23.82 1.0381C24.7067 2.17516 24.2812 1.44394 24.982 1.57445C26.0154 1.76575 25.6078 2.64715 25.6525 2.87063C25.7008 3.1102 26.1745 3.40519 26.2782 3.58576C26.3033 3.63046 25.6775 3.86109 26.7252 4.16681Z" fill="#549285"/>
<path d="M26.904 4.70314C26.9183 4.81219 27.1507 4.85689 27.0828 5.28418C27.0291 5.62029 26.6447 5.78656 26.6358 5.82053C26.5965 5.98144 26.811 6.02971 26.8146 6.04401C27.1686 7.82469 26.6358 7.76927 26.6358 7.87654C26.6358 7.97666 27.4153 8.67391 26.8146 9.75377C25.8813 11.4308 23.5947 8.4415 25.5184 9.88785C26.5071 10.0488 27.435 8.56128 25.4737 7.42958C25.5345 7.24544 26.1298 7.89084 26.457 7.42958C27.6549 5.74187 23.5697 3.8271 26.7699 5.23949C25.8885 4.08097 25.7258 3.94331 26.904 4.70314Z" fill="#091811"/>
<path d="M33.4297 48.0581C32.938 51.8036 30.208 55.8281 26.5465 57.0867C24.4994 57.7911 21.5191 57.918 19.574 56.9079C17.5162 55.8406 16.5007 53.3197 15.9983 51.1868C16.3773 52.0307 17.0352 52.8746 17.7861 53.4216L17.2498 53.9133C22.9869 59.3215 31.438 55.1594 32.7145 47.8793L33.4297 48.0581Z" fill="#8D4840"/>
<path d="M30.2116 35.7221L29.9434 35.8115C29.9077 35.6523 29.7718 35.6434 29.7646 35.6327C29.0906 34.6976 23.9935 34.7674 22.4792 34.56C20.6878 34.315 18.8982 33.8019 17.1604 33.3085C18.6944 30.8842 18.3332 31.9211 21.4065 32.504C25.7492 33.3264 28.3916 32.8222 28.7366 32.9509C29.4589 33.2209 30.0114 35.0606 30.2116 35.7221Z" fill="#8D4840"/>
<path d="M29.7646 35.6327C27.0453 35.7221 24.3475 35.9652 21.63 35.6327C20.1461 34.8621 18.4423 34.3794 16.8922 33.7555C16.978 33.5981 17.0656 33.4587 17.1604 33.3085C18.8982 33.8019 20.6878 34.3151 22.4792 34.56C23.9935 34.7674 29.0906 34.6976 29.7646 35.6327Z" fill="#A5614F"/>
<path d="M30.2115 35.7221C30.3349 36.1297 31.1823 39.1726 31.1055 39.3424C31.0339 39.5033 30.149 39.6321 29.9434 39.7447C30.0256 38.9205 30.0614 36.3353 29.9434 35.8115L30.2115 35.7221Z" fill="#A5614F"/>
<path d="M33.519 46.0021L32.6251 46.9854C32.5697 46.8138 31.6489 45.8323 31.91 45.5552C32.078 45.5355 32.5661 46.2345 33.2955 44.84C33.4457 45.2155 33.4886 45.6034 33.519 46.0021Z" fill="#8D4840"/>
<path d="M33.519 46.0021C33.5709 46.6797 33.519 47.3841 33.4296 48.0581L32.7145 47.8793C32.7306 47.6112 32.7056 47.2393 32.6251 46.9854L33.519 46.0021Z" fill="#A5614F"/>
<path d="M21.3619 43.8567C20.9739 44.7953 20.5627 43.8871 20.1551 44.2143C19.878 44.436 20.4429 44.8561 20.0657 45.1082C19.608 45.3317 18.6748 44.0319 18.1885 45.7339C16.7439 44.6326 17.0872 46.0897 16.8476 46.1809C16.7797 46.2059 16.465 45.8001 15.5514 46.5385C15.5532 46.4866 15.353 45.7983 15.462 45.5104C15.5747 45.2155 20.3106 43.1094 21.3619 43.8567Z" fill="#97695C"/>
<path d="M21.6299 35.6327C24.2259 36.9825 25.6812 38.5773 26.904 41.2197C28.3933 44.4378 29.5643 48.0903 28.0661 51.4997C26.1621 55.8334 21.2759 55.9622 17.7861 53.4216C17.0352 52.8746 16.3773 52.0307 15.9983 51.1868C15.6228 49.5939 15.4744 48.1779 15.5513 46.5385C16.4649 45.8001 16.7795 46.2059 16.8475 46.1809C17.087 46.0897 16.7438 44.6326 18.1884 45.734C18.6746 44.0319 19.6079 45.3317 20.0656 45.1082C20.4428 44.8561 19.8779 44.436 20.155 44.2143C20.5626 43.8871 20.9738 44.7953 21.3618 43.8567C21.4065 43.7477 21.4565 43.2614 21.4512 43.231C22.5042 42.843 21.8588 42.9288 21.6299 42.1583C23.1514 40.6404 20.9148 39.43 20.9148 39.2531C20.9148 39.1565 21.9517 38.4074 21.183 37.5546C19.7777 35.9974 16.9744 40.113 15.596 40.4598L15.3725 40.3258C15.2456 38.2322 15.8785 35.6094 16.8922 33.7555C18.4422 34.3794 20.146 34.8621 21.6299 35.6327Z" fill="#F6DFAF"/>
<path d="M17.1158 48.3263C18.9036 48.8644 18.3476 50.0766 16.9817 48.6392L17.1158 48.3263Z" fill="#090C0B"/>
<path d="M29.7646 35.6327C29.7717 35.6434 29.9076 35.6524 29.9434 35.8115C30.0614 36.3353 30.0256 38.9205 29.9434 39.7447C27.1865 41.2662 29.0942 42.0367 29.1389 42.203C29.1746 42.3371 28.6257 42.6535 28.7813 43.1863C28.817 43.3079 29.2443 43.5206 29.5858 43.8567C29.0906 45.4354 30.6961 45.2065 30.3903 44.6613C30.7193 44.9634 31.7151 44.9831 30.7479 45.5105C30.9446 46.1148 31.3665 45.6177 31.91 45.5552C31.649 45.8323 32.5697 46.8138 32.6251 46.9854C32.7056 47.2393 32.7306 47.6112 32.7145 47.8794C31.438 55.1594 22.9869 59.3215 17.2498 53.9133L17.7861 53.4216C21.276 55.9622 26.1621 55.8334 28.0662 51.4997C29.5644 48.0903 28.3933 44.4378 26.9041 41.2197C25.6812 38.5773 24.2259 36.9825 21.63 35.6327C24.3475 35.9652 27.0453 35.7221 29.7646 35.6327Z" fill="#B9745B"/>
<path d="M30.3903 44.6613C30.696 45.2066 29.0905 45.4354 29.5858 43.8567C29.8486 44.116 30.1239 44.4181 30.3903 44.6613Z" fill="#6D3B35"/>
<path d="M31.7759 48.2369L31.7312 48.5498C30.2723 50.014 29.2908 49.138 31.7759 48.2369Z" fill="#090C0B"/>
<path d="M12.7801 26.4253C12.9803 26.4933 13.6669 27.4301 16.4451 28.4814C15.9356 28.6101 16.118 28.8175 16.0429 28.8389C15.7479 28.9247 11.5304 28.8496 11.4392 26.6935C11.845 26.4897 12.3546 26.2823 12.7801 26.4253Z" fill="#C27C4E"/>
<path d="M2.4106 41.3538C2.36054 41.3699 2.23897 41.436 2.23182 41.4432C1.62574 40.855 0.860549 42.2745 1.47199 42.1583C1.59356 41.8651 1.82419 41.79 2.05303 41.6219C2.27294 41.8079 2.78426 43.1005 2.76817 43.231C2.7199 43.6493 0.515497 46.0772 3.30452 43.8567C3.39033 43.9747 4.22704 44.9723 4.28783 45.0188C3.43324 47.5504 3.56197 47.4896 5.00296 45.3764C5.11381 45.4354 6.43502 45.6893 7.23775 46.4491C6.58877 47.1338 6.17936 47.9777 5.98627 48.9074C10.5935 44.0373 7.57744 46.7977 7.59532 52.2596C7.47911 52.2488 7.35218 52.2756 7.23775 52.2596C8.36766 51.6535 5.76637 51.2369 4.15374 50.2035C3.32955 49.6761 2.66626 48.9038 1.96364 48.2369C0.966031 45.7214 0.705007 42.9735 1.3379 40.3258C2.09594 37.1488 1.90643 39.0099 2.05303 40.147C2.10667 40.5671 2.27473 40.9587 2.4106 41.3538Z" fill="#549285"/>
<path d="M7.23794 46.4491C6.4352 45.6893 5.11399 45.4354 5.00315 45.3764C4.86549 45.3013 4.3202 45.0421 4.28802 45.0189C4.22723 44.9724 3.39052 43.9748 3.30471 43.8568C3.27789 43.821 3.13844 43.0093 2.76836 43.231C2.78445 43.1005 2.27313 41.8079 2.05322 41.622C2.14261 41.5558 2.16586 41.5058 2.23201 41.4432C2.23916 41.436 2.36073 41.3699 2.41079 41.3538C2.71472 42.2316 3.60327 43.5707 4.4221 44.0355C6.06691 44.9688 8.87381 44.4843 8.93638 44.706C8.77369 45.5784 7.80111 45.8556 7.23794 46.4491Z" fill="#2A5C59"/>
<path d="M7.23797 52.2596C7.35239 52.2757 7.47933 52.2489 7.59554 52.2596C7.59911 53.1428 7.85656 54.0599 7.90841 54.9413C6.46026 54.0492 4.11641 52.3561 3.48352 50.8293C4.31129 51.5212 6.17064 52.1094 7.23797 52.2596Z" fill="#8C9C9F"/>
<path d="M7.23798 52.2596C6.17064 52.1094 4.31129 51.5212 3.48353 50.8293C2.70582 50.1785 2.32322 49.1452 1.96387 48.237C2.66649 48.9038 3.32977 49.6762 4.15396 50.2036C5.76659 51.2369 8.36789 51.6535 7.23798 52.2596Z" fill="#549285"/>
<path d="M5.00312 45.3764C3.56213 47.4896 3.4334 47.5504 4.28799 45.0188C4.32017 45.0421 4.86546 45.3013 5.00312 45.3764Z" fill="#090C0B"/>
<path d="M3.30469 43.8568C0.515667 46.0772 2.72007 43.6494 2.76834 43.231C3.13842 43.0093 3.27787 43.821 3.30469 43.8568Z" fill="#090C0B"/>
<path d="M2.23194 41.4432C2.16579 41.5057 2.14255 41.5558 2.05316 41.622C1.82431 41.79 1.59368 41.8651 1.47211 42.1583C0.86067 42.2745 1.62586 40.855 2.23194 41.4432Z" fill="#090C0B"/>
<path d="M40.8489 43.4991C39.8227 44.6684 38.185 45.641 36.7369 46.1809C36.6707 45.9038 36.2524 45.0921 36.5134 44.9294C36.7083 44.8078 38.9806 44.5325 40.8489 43.4991Z" fill="#2A5C59"/>
<path d="M45.5867 38.9402C45.4544 39.5284 44.5247 40.4098 44.514 40.5045C44.4764 40.8442 45.2541 40.281 44.3352 43.4097C44.2225 43.7959 44.3745 43.871 44.3352 43.9908C44.2976 44.1034 43.5664 45.2745 43.3519 45.6445C40.7309 42.2959 40.5646 43.5313 42.9049 46.3597C41.5283 48.3764 39.7029 49.98 37.6308 51.2762C37.6058 49.3901 37.1624 47.9687 36.7369 46.1809C38.185 45.641 39.8227 44.6684 40.8489 43.4991C43.427 42.0742 43.1981 40.6189 44.0223 42.2477C45.6367 41.3502 44.0062 40.8764 43.9776 40.7727C43.9115 40.5367 45.5044 39.2656 45.3632 36.169C45.3971 36.9664 45.7565 38.1857 45.5867 38.9402Z" fill="#549285"/>
<path d="M38.8377 45.9127C39.4473 45.6606 41.2387 48.5676 40.3573 48.8626C40.0248 48.9449 38.1744 45.9306 38.8377 45.9127Z" fill="#090C0B"/>
<path d="M43.3519 45.6445C43.1678 45.9628 43.1141 46.0522 42.905 46.3597C40.5647 43.5313 40.7309 42.2959 43.3519 45.6445Z" fill="#090C0B"/>
<path d="M35.7537 26.4253C35.4927 26.5988 34.4504 27.3997 34.1893 27.3193C33.8783 26.8669 33.7031 26.2662 33.6977 25.7996C34.293 26.3181 35.0261 26.2752 35.7537 26.4253Z" fill="#8D4840"/>
<path d="M9.20444 11.7651C9.20802 12.1817 7.86356 11.7187 6.83556 12.1227C6.13652 12.3962 6.16155 12.8807 5.71816 13.2848C5.67168 11.3378 7.77775 11.8331 9.20444 11.7651Z" fill="#FDFEFE"/>
<path d="M5.53925 13.9105C5.54998 13.6674 5.64473 13.5637 5.62864 13.3742C5.7377 13.3849 5.71267 13.2883 5.71803 13.2848C6.16141 12.8807 6.13638 12.3962 6.83543 12.1227C7.86343 11.7186 9.20788 12.1817 9.20431 11.7651C12.8408 11.5935 18.2972 11.4093 21.7638 11.9439C22.0767 11.9922 22.7668 12.4391 23.0153 12.4802C23.2585 12.5214 27.6905 12.5267 27.9319 12.4802C28.3788 12.3944 28.8508 11.8152 29.2727 11.6757C31.1929 11.041 39.8085 12.2728 42.5921 12.1227L42.905 12.4355C43.2232 17.6006 40.8543 15.6536 40.3126 16.2794C39.7405 16.9409 40.9866 22.3473 35.5302 22.8497C29.7036 23.386 28.0517 22.1131 27.7978 16.19C19.8991 15.0011 24.0988 17.9599 21.3616 21.4641C19.9313 23.2966 16.0356 23.3163 13.8974 23.1178C8.17988 22.5869 9.12564 16.5815 8.84674 16.19C8.53745 15.7555 5.36046 17.5255 5.53925 13.9105Z" fill="#094462"/>
<path d="M39.4187 16.6817C39.3079 18.0279 38.7733 21.1977 37.3627 21.5982C35.8878 18.1137 36.3669 18.4445 36.5582 15.9665C36.6262 15.0816 37.091 13.7049 36.29 13.106C36.3008 13.1006 36.4617 12.9683 36.4688 12.9272C39.476 13.0792 39.6458 13.9016 39.4187 16.6817Z" fill="#98CFCD"/>
<path d="M12.7801 17.4862C13.0804 18.0512 13.3432 17.8885 13.7634 18.4248C13.9761 18.6966 14.2175 19.5744 14.4338 19.6316C14.7574 19.7174 19.3414 18.7109 21.0935 19.3634C21.0863 19.4224 21.106 19.4975 21.0935 19.5422C18.9838 19.7657 15.9785 19.2901 14.1209 20.3467C13.4022 20.7562 13.2074 21.1781 12.9588 22.0452C12.907 22.0327 12.8301 22.0577 12.7801 22.0452C12.6352 21.9612 12.4797 21.9469 12.3331 21.8664C12.0971 20.8652 11.6752 17.6811 12.7801 17.4862Z" fill="#4CBECF"/>
<path d="M35.2174 19.4528C35.7698 19.9892 35.9683 21.3604 36.5582 21.5088V21.5982C36.4742 21.6107 36.4635 21.6751 36.3795 21.6876C36.3866 21.5803 36.3026 21.5893 36.2007 21.5982C35.246 20.9546 34.1268 20.6685 33.072 20.3467C31.9313 19.9981 30.839 19.5047 29.5857 19.6316C29.5821 19.5529 29.4534 19.5029 29.4963 19.3187C31.7436 18.246 33.0094 19.8551 33.2061 19.8998C34.538 20.2001 33.805 18.0798 35.2174 19.4528Z" fill="#079EA1"/>
<path d="M36.5582 15.9665C36.3669 18.4445 35.8878 18.1137 37.3628 21.5982C37.3538 21.6 37.3932 21.7663 37.3181 21.777C36.6101 21.8753 36.6029 21.5911 36.5582 21.5982V21.5088L35.4855 18.2907C35.5106 18.2282 35.6429 18.1441 35.7537 18.0226C35.8753 18.6465 36.0809 16.6763 36.2007 15.609L36.5582 15.9665Z" fill="#090C0B"/>
<path d="M10.0089 14.8044C9.65487 16.7585 10.3915 20.8116 12.333 21.8664C12.4796 21.9468 12.6352 21.9611 12.78 22.0452C12.7603 22.0398 12.6459 22.2293 12.3777 22.1346C10.0106 21.3032 9.32054 17.1572 9.47251 14.9832C9.94628 14.9832 9.74247 14.8366 10.0089 14.8044Z" fill="#0A1A1A"/>
<path d="M39.4188 16.6817C39.6458 13.9016 39.476 13.0792 36.4689 12.9272C35.9379 12.9004 35.3372 12.5125 35.4855 13.3742L35.3068 12.7931C35.3997 12.4981 36.097 13.0363 36.1113 12.4803C39.8443 12.7842 40.2179 12.3945 39.5976 16.7264L39.4188 16.6817Z" fill="#0A1319"/>
<path d="M11.9755 14.2681C12.1007 14.8313 12.6585 17.2574 12.7801 17.4862C11.6752 17.6811 12.0971 20.8652 12.3331 21.8664C10.3915 20.8116 9.65492 16.7586 10.0089 14.8045C10.059 14.5273 10.0643 14.4415 10.1877 14.1787L11.9755 14.2681Z" fill="#4B9D91"/>
<path d="M11.9755 14.2681L10.1877 14.1787C10.4791 13.5637 11.264 13.1668 11.9308 13.1954C12.0488 13.2794 11.9308 14.0697 11.9755 14.2681Z" fill="#61B6AB"/>
<path d="M33.072 20.3467V20.4361C33.0398 21.0494 33.2472 21.4624 32.7144 21.8664C31.3539 21.7859 29.6751 21.2603 29.5857 19.6316C30.839 19.5047 31.9313 19.9981 33.072 20.3467Z" fill="#E6E896"/>
<path d="M36.0218 21.5982C34.9116 21.7234 33.8425 21.9325 32.7144 21.8664C33.2471 21.4623 33.0397 21.0494 33.0719 20.4361L36.0218 21.5982Z" fill="#B9802D"/>
<path d="M36.2006 15.609C36.0809 16.6763 35.8752 18.6465 35.7537 18.0226C34.9509 17.1108 35.5463 16.1364 35.8431 14.3575C35.8431 14.3486 35.9968 14.395 35.8431 14.1787C36.3329 14.0625 36.4885 13.0434 36.2006 15.609Z" fill="#0A6E80"/>
<path d="M35.8431 14.1787C35.9969 14.395 35.8431 14.3486 35.8431 14.3575L35.5302 15.4302C34.5469 14.5971 34.2323 15.373 33.6083 15.4302L33.3401 14.9832C33.9856 14.8348 34.4254 14.463 34.9939 14.2681C35.2335 14.1859 35.6304 14.2288 35.8431 14.1787Z" fill="#594E52"/>
<path d="M36.5582 21.5088C35.9682 21.3604 35.7698 19.9892 35.2173 19.4528C35.5052 19.2383 35.3747 18.5625 35.4855 18.2907L36.5582 21.5088Z" fill="#0A6E80"/>
<path d="M36.2007 21.5982C36.1417 21.6036 36.0809 21.5911 36.0219 21.5982L33.072 20.4361V20.3467C34.1268 20.6686 35.246 20.9546 36.2007 21.5982Z" fill="#549285"/>
<path d="M36.4689 12.9272C36.4617 12.9683 36.3008 13.1006 36.2901 13.106C36.0219 13.2347 35.6304 13.4868 35.4856 13.3742C35.3372 12.5124 35.9379 12.9004 36.4689 12.9272Z" fill="#FDFEFE"/>
<path d="M36.1113 12.4803C36.097 13.0363 35.3998 12.4982 35.3068 12.7931L35.4856 13.3742C35.6304 13.4868 36.0219 13.2347 36.2901 13.106C37.0911 13.7049 36.6262 15.0816 36.5583 15.9666L36.2007 15.609C36.4886 13.0434 36.333 14.0625 35.8431 14.1787C35.6304 14.2288 35.2335 14.1859 34.9939 14.2681C34.4254 14.463 33.9856 14.8349 33.3402 14.9832C33.1846 15.019 32.7073 14.9189 32.625 15.0279C32.9183 15.4892 33.047 15.4803 33.6084 15.4302C34.2323 15.373 34.547 14.5971 35.5303 15.4302L35.8431 14.3575C35.5464 16.1364 34.951 17.1108 35.7538 18.0226C35.6429 18.1441 35.5106 18.2282 35.4856 18.2907C35.3747 18.5625 35.5052 19.2383 35.2174 19.4528C33.805 18.0798 34.538 20.2001 33.2061 19.8998C33.0094 19.8551 31.7436 18.246 29.4963 19.3187C29.4534 19.5029 29.5822 19.5529 29.5857 19.6316C29.6751 21.2603 31.3539 21.786 32.7144 21.8664C33.8426 21.9326 34.9117 21.7234 36.0219 21.5982C36.0809 21.5911 36.1417 21.6036 36.2007 21.5982C36.3026 21.5893 36.3867 21.5804 36.3795 21.6876C33.6352 22.0863 29.3944 23.0571 28.96 19.14C28.8366 18.0279 29.1692 13.1489 30.0774 12.5697C31.0214 11.9672 34.8151 12.3748 36.1113 12.4803Z" fill="#090C0B"/>
<path d="M32.759 13.0166C35.9789 12.8021 33.6404 15.0101 32.4908 14.7151C32.3835 14.6882 31.7381 13.7836 30.4795 14.134C30.7888 13.2848 31.9777 13.0685 32.759 13.0166Z" fill="#847874"/>
<path d="M30.9264 14.6257C30.8388 14.6346 30.7477 14.6203 30.6583 14.6257C32.1654 13.9177 32.6571 16.2061 32.8484 16.1453C32.9234 16.1221 33.1291 15.348 34.0551 16.2794L34.0998 16.5029C32.2423 16.6388 34.3001 17.1572 33.4741 18.9165C33.2774 17.842 32.2137 14.4916 30.9264 14.6257Z" fill="#E3B74A"/>
<path d="M30.6582 14.6257C30.7476 14.6203 30.8388 14.6346 30.9264 14.6257C33.3847 16.721 31.4198 15.162 29.9878 15.7878C29.8859 15.2389 30.1898 14.8456 30.6582 14.6257Z" fill="#F4D666"/>
<path d="M30.1666 15.8772C30.9908 15.9898 29.6839 16.8122 29.4515 18.6483C29.2816 18.6215 29.5713 16.013 30.1666 15.8772Z" fill="#F9F1CF"/>
<path d="M33.7422 16.9499C34.4914 16.5422 35.1296 19.1096 34.2339 18.5142L33.7422 16.9499Z" fill="#D3A348"/>
<path d="M31.4181 16.6817C31.9634 16.4725 32.2602 17.7419 31.9545 17.8438C31.529 17.6936 31.0784 17.1429 31.4181 16.6817Z" fill="#A6ADA5"/>
<path d="M30.7923 17.665L31.284 18.246C30.399 18.6769 30.222 18.4445 30.7923 17.665Z" fill="#E3986F"/>
<path d="M33.34 14.9832L33.6082 15.4302C33.0468 15.4802 32.9181 15.4892 32.6249 15.0279C32.7071 14.9189 33.1845 15.019 33.34 14.9832Z" fill="#DEE9E2"/>
<path d="M21.2722 19.3634C20.3229 22.5333 16.9564 22.637 14.0762 22.4027C12.8927 22.3062 13.0178 22.0577 12.9588 22.0452C13.2073 21.1781 13.4022 20.7562 14.1209 20.3467C13.6006 20.8563 13.4808 21.432 13.6292 22.1346C16.1286 22.3455 20.1906 22.5797 21.0934 19.5422C21.106 19.4975 21.0863 19.4224 21.0934 19.3634C21.1292 19.3759 21.2114 19.3563 21.2722 19.3634Z" fill="#0A1A1A"/>
<path d="M21.0936 19.5422C20.1907 22.5797 16.1287 22.3455 13.6293 22.1346C13.481 21.4319 13.6007 20.8562 14.121 20.3467C15.9786 19.2901 18.9839 19.7657 21.0936 19.5422Z" fill="#ECDF5F"/>
<path d="M21.2723 19.3634C21.2115 19.3563 21.1292 19.3759 21.0935 19.3634C19.3414 18.7109 14.7574 19.7174 14.4338 19.6316C14.2175 19.5744 13.9761 18.6966 13.7634 18.4248C13.3432 17.8885 13.0804 18.0512 12.7801 17.4862C12.6585 17.2574 12.1007 14.8313 11.9755 14.2681C11.9308 14.0697 12.0488 13.2794 11.9308 13.1954C11.264 13.1668 10.4791 13.5637 10.1877 14.1787C10.0643 14.4415 10.059 14.5273 10.0089 14.8045C9.74252 14.8366 9.94633 14.9832 9.47256 14.9832C7.75087 14.9815 9.66564 12.9219 10.6793 12.6591C11.8093 12.3676 18.9999 12.4731 19.8867 12.7484C21.1489 13.14 21.7282 16.9981 21.6298 18.1566C21.5941 18.5714 21.3867 18.979 21.2723 19.3634Z" fill="#090C0B"/>
<path d="M12.5564 13.0166C13.0266 12.9773 12.914 13.2026 12.5117 13.0613L12.5564 13.0166Z" fill="#BFA49A"/>
<path d="M15.5511 16.9499C15.5529 16.8605 15.5475 16.7711 15.5511 16.6818C15.5601 16.4726 15.6673 16.0435 15.4617 16.5924C14.8324 18.2658 15.7442 19.3313 14.7913 18.9165C13.6971 18.4392 13.0106 15.1371 17.3389 15.3409C17.3103 15.4017 17.4855 15.4768 17.4283 15.5644C17.3282 15.7163 15.9641 16.267 16.0428 18.7378C15.4421 18.3266 15.78 17.5453 15.5511 16.9499Z" fill="#F4D666"/>
<path d="M15.5511 16.9499C15.78 17.5453 15.4421 18.3265 16.0428 18.7378C15.9641 16.267 17.3283 15.7163 17.4284 15.5643C17.4856 15.4767 17.3104 15.4017 17.339 15.3409C17.3479 15.3212 17.6608 15.1943 17.6072 14.9833C17.6679 14.5006 17.5124 14.6418 17.0708 14.6257L16.8026 14.6704L16.9814 14.7151C16.8384 14.8599 16.8026 14.7688 16.7132 14.8045C16.5202 14.8814 16.3449 14.8885 16.3557 15.1621C15.2937 14.8617 18.6513 13.6102 19.7079 14C20.3783 14.2467 20.9701 16.2098 19.8419 14.6704C20.6501 17.8867 20.8503 17.0161 19.2609 15.609C15.6799 14.935 16.4772 18.9058 16.2216 19.0059C15.392 18.795 15.5333 17.6597 15.5511 16.9499Z" fill="#F4D666"/>
<path d="M14.7912 13.0167C15.1256 12.9881 18.4956 12.9791 18.501 13.2401C16.4057 13.966 14.8538 15.3551 12.8693 13.5083C12.8926 13.283 14.5195 13.0399 14.7912 13.0167Z" fill="#847874"/>
<path d="M18.2776 16.1454C18.6459 16.1311 19.5183 16.3868 19.4844 16.9052C17.3711 15.4607 17.1423 17.9529 16.9367 17.9332C16.4343 17.1216 17.507 16.174 18.2776 16.1454Z" fill="#FDFEFE"/>
<path d="M20.7805 15.1621C21.3115 16.3492 21.4957 19.3385 20.7358 18.6931C21.1184 17.5775 20.861 16.326 20.7805 15.1621Z" fill="#C39362"/>
<path d="M13.0928 14.5363C14.7823 15.2139 16.2198 14.4273 16.2662 14.581C15.6298 15.3176 13.5934 15.1835 13.0928 14.5363Z" fill="#A5A3A1"/>
<path d="M17.6071 14.9833C17.2048 15.2998 16.917 15.2855 16.445 15.1621L16.7132 14.8045C16.8026 14.7688 16.8383 14.86 16.9814 14.7151C16.9849 14.7098 16.9617 14.615 17.0707 14.6257C17.5123 14.6418 17.6679 14.5006 17.6071 14.9833Z" fill="#CBE4CC"/>
<path d="M18.7245 17.3969C20.1995 17.463 18.3008 18.3319 18.3223 17.7098L18.7245 17.3969Z" fill="#D6B69A"/>
<path d="M18.7245 18.3802L18.948 18.4249C17.8324 19.0238 17.2138 18.9416 18.7245 18.3802Z" fill="#BCB7B4"/>
<path d="M19.7078 13.1061H19.976C20.8073 13.9142 20.119 13.5459 19.7078 13.1061Z" fill="#C98E72"/>
<path d="M16.7133 14.8045L16.4451 15.1621C16.4147 15.1549 16.3789 15.171 16.3557 15.1621C16.345 14.8885 16.5202 14.8814 16.7133 14.8045Z" fill="#174340"/>
<path d="M20.1548 18.4696C20.566 18.5572 19.8813 18.8558 19.8419 18.6931L20.1548 18.4696Z" fill="#DACEC5"/>
<path d="M15.5511 16.6818L15.4617 16.5924C15.6673 16.0435 15.5601 16.4726 15.5511 16.6818Z" fill="#593611"/>
<path d="M17.0708 14.6257C16.9617 14.615 16.985 14.7098 16.9814 14.7151L16.8026 14.6704L17.0708 14.6257Z" fill="#354147"/>
</svg>
