<svg width="57" height="61" viewBox="0 0 57 61" fill="none" xmlns="http://www.w3.org/2000/svg">
<path d="M20.6064 20.8462C20.8796 20.8748 21.2801 20.9063 21.3215 20.9892C21.2515 21.0479 21.0512 21.291 20.964 21.3468C20.5807 21.5899 20.7223 21.6157 20.1774 21.6328C19.5982 21.0894 18.5727 20.6489 17.8891 21.2038C17.1254 21.823 17.6889 23.0416 17.2455 23.5993C16.7764 24.19 16.0885 23.2761 15.4578 24.2072C14.8457 25.111 15.5307 26.6742 14.7069 26.853C14.1978 26.9631 13.5628 26.3868 13.1695 27.2821C12.7805 28.1688 13.5885 29.556 13.3125 29.9637C13.0508 30.3512 12.2313 29.8807 11.8823 30.4642C11.4976 31.1078 12.1698 32.7825 12.0968 33.1101C11.951 33.7665 10.6338 33.1758 10.6667 34.433C10.6781 34.8577 11.1057 35.6586 11.1672 35.8632C11.4032 37.126 9.78424 36.388 10.0231 37.7224C10.1075 38.1901 10.7396 38.8737 10.4521 39.4744C10.3177 39.7547 9.65123 39.852 9.59402 40.1895C9.52966 40.5699 10.0102 40.936 10.0946 41.3336C10.1432 41.5625 9.9959 41.7083 10.0231 41.8699C9.6498 42.299 9.06771 42.0759 9.16497 42.7281C9.15353 42.7052 9.03911 42.8568 8.95044 42.3348C10.7468 41.5839 9.7542 41.1277 9.37949 40.4755C9.3609 40.4426 9.68126 40.2867 9.02195 39.8677C9.27366 39.3442 9.83143 39.3743 9.73704 38.7593C9.70844 38.5705 8.2096 37.0045 10.4521 36.0419C8.95187 32.8226 11.3074 33.0586 11.3818 32.7525C11.4461 32.4922 9.90866 29.4702 12.6689 29.3916C11.4175 25.4629 14.1277 26.2881 14.3494 26.2094C14.8113 26.0464 14.1105 24.7964 14.7427 23.7423C15.4292 22.5968 16.5633 23.4949 16.7449 23.0273C16.8179 22.8399 16.3531 20.0467 18.7115 20.2026C19.4866 20.2541 20.0902 20.8891 20.2131 20.9177C20.3991 20.9606 20.4877 20.8333 20.6064 20.8462Z" fill="#0B1520"/>
<path d="M27.9719 2.03928C27.8389 2.15512 27.7016 2.37966 27.6144 2.53984C27.4628 2.81873 27.4771 2.82874 27.3999 3.11192C27.3198 3.40653 27.1853 3.64251 27.2568 3.97003C27.2111 3.97718 27.1596 3.96431 27.1138 3.97003C26.0898 3.65253 25.0057 3.1491 24.468 4.39908C24.1376 5.16566 24.2806 6.33269 23.9317 6.47285C23.5684 6.61873 22.9177 5.968 22.3942 6.97342C21.8007 8.1147 22.6345 8.71824 22.3942 9.9053C21.9237 10.5832 21.2772 9.97537 20.8925 10.9064C20.4735 11.9161 21.6877 13.0689 21.6791 13.5165C21.6748 13.7825 21.4274 13.8683 21.2501 13.9813C21.1943 14.0171 20.6623 13.9828 20.2489 14.7679C20.216 15.2885 20.6093 15.6146 20.8925 15.9836C19.8356 15.9936 20.6265 15.0668 19.9629 15.1612C20.3076 13.7511 20.5164 14.1687 20.6422 14.0528C21.3116 13.4379 20.8353 13.4507 20.821 13.4092C20.4949 12.431 19.7198 11.5986 20.1774 10.5131C20.5664 9.59208 21.7649 9.64214 21.8221 9.44049C21.8922 9.19592 20.2632 5.69626 23.5384 5.79351C23.7772 1.49152 26.413 3.35648 26.649 3.25493C26.7777 3.19916 26.6261 2.62279 27.3283 1.82475C27.9762 2.20232 27.7374 1.2112 28.7228 1.53871C28.8372 1.73751 28.5311 1.55015 27.9719 2.03928Z" fill="#0B1520"/>
<path d="M8.23535 48.6633C8.23535 48.6633 8.26395 48.6976 8.16384 48.7348C8.03655 48.782 7.78627 48.6805 7.55601 48.8063C7.16414 49.0209 7.36293 49.6916 7.30573 49.7717C7.2285 49.8804 6.54773 49.7503 6.41186 49.8075C6.26598 49.869 6.14442 51.3306 3.65876 50.4511C3.45567 50.2823 2.96369 50.135 2.65763 49.9505C2.50031 49.5314 2.83926 50.0148 3.01517 49.5214C5.98567 51.0617 5.63813 49.0523 6.05432 48.9494C6.14299 48.9279 6.45906 49.1639 6.48337 49.1639C6.89955 49.1696 7.07261 47.9139 7.8778 47.0186C7.89496 47 8.05085 47.0572 8.09233 46.9829C8.18243 46.8212 7.94216 46.7798 7.94931 46.7683C8.71303 45.6127 8.68872 46.1176 8.77167 46.089C9.28367 45.9074 8.83603 45.4297 8.80742 45.0879C10.0102 46.98 7.64754 45.2867 8.73591 47.5549C8.65296 47.6579 7.52455 47.3361 8.23535 48.6633Z" fill="#0B1520"/>
<path d="M20.821 13.4093C20.8353 13.4507 21.3115 13.4379 20.6422 14.0528C20.5163 14.1687 20.3075 13.7511 19.9629 15.1612C20.6265 15.0668 19.8356 15.9936 20.8925 15.9836C21.1628 16.3354 21.9351 16.866 21.8221 17.3065C21.7992 17.3966 20.9282 18.0702 20.8925 18.5937C20.851 19.1929 21.7177 20.0753 21.8221 20.6317C21.6505 20.7418 21.4774 20.8577 21.3215 20.9892C21.2801 20.9063 20.8796 20.8748 20.6064 20.8462C21.3573 20.0339 20.4062 19.6749 20.2489 19.1658C19.8985 18.0359 21.0355 17.2779 21.0355 17.1635C21.0355 16.9175 17.7446 14.9238 20.821 13.4093Z" fill="#0C0D10"/>
<path d="M9.165 42.728C9.4682 43.3201 10.0717 43.9151 9.34378 44.5158C8.93045 44.8576 8.75311 44.4414 8.80746 45.0879C8.83606 45.4297 9.28371 45.9073 8.7717 46.089C8.68875 46.1176 8.71306 45.6127 7.94934 46.7683C7.94219 46.7798 8.18246 46.8212 8.09236 46.9828C8.05089 47.0572 7.895 47 7.87784 47.0186C7.59609 45.7929 8.24539 45.8945 8.30689 45.6957C8.3927 45.4168 7.93933 44.9563 8.09236 44.48C8.16244 44.2612 8.8189 44.1353 8.87896 43.9079C8.96478 43.5819 8.49281 43.1557 8.44991 42.9068C8.27829 41.9143 9.18932 41.704 9.23651 41.4766C9.32518 41.0504 8.61867 40.7072 9.02198 39.8677C9.6813 40.2867 9.36094 40.4426 9.37953 40.4755C9.75424 41.1277 10.7468 41.5839 8.95047 42.3347C9.03915 42.8568 9.15356 42.7052 9.165 42.728Z" fill="#0C0D10"/>
<path d="M24.7898 54.1695H26.1485C26.8421 54.9547 23.9031 55.1178 24.7898 54.1695Z" fill="#5A6371"/>
<path d="M30.1888 2.61136H30.2603C29.7797 3.02325 29.0189 4.03582 28.7586 4.61362C28.7056 4.73089 28.7128 4.7881 28.6871 4.89965C28.607 5.24862 28.298 5.34301 28.8301 5.2572C28.3982 6.58155 29.8527 5.20428 30.2603 5.54324C28.2809 6.0009 28.4883 6.07241 27.6859 8.58238C25.9297 14.0743 25.4062 22.152 24.1105 25.5301C23.1165 28.123 22.5416 27.591 21.8579 28.0687C20.8597 28.7652 20.3376 30.776 20.1059 31.9302C19.9229 31.7099 20.6222 28.7094 21.9294 27.8541C22.2584 27.6396 22.8576 27.7983 23.2524 26.9603C23.1851 26.8273 22.5988 27.2892 22.8948 26.5312C22.4071 26.3281 22.4 26.7929 21.8937 26.71C23.5269 24.968 23.4869 24.3673 23.9674 22.1334C24.3936 20.1483 24.6325 18.116 25.0401 16.1266C25.6722 13.0374 26.6276 8.84554 27.8289 5.97229C28.2823 4.88821 28.8329 3.80127 29.6882 2.9689C29.814 2.84591 30.0515 2.61565 30.1888 2.61136Z" fill="#0B1520"/>
<path d="M12.5259 40.9403C12.2098 42.3147 11.848 43.6834 11.3818 45.0163C10.6438 47.1287 9.73275 49.397 7.91356 50.8086C6.98966 51.5251 5.67103 52.1916 4.48111 52.0243C4.12929 51.9742 3.40419 51.4507 3.15819 51.5952C2.34585 51.1547 1.46485 50.3381 0.941406 49.5929C1.62503 50.0806 2.19425 50.6885 2.94367 51.0946C3.16677 51.2162 3.28405 51.2305 3.30121 51.2376C3.57295 51.3592 3.96625 51.6109 4.26659 51.6667C6.73652 52.1301 8.73449 49.5743 9.66554 47.5907C10.3549 46.1204 10.6223 44.5615 11.1672 43.0498C12.2241 40.1165 13.2768 37.1904 14.7427 34.433C15.8525 33.3346 16.6234 31.8729 17.6746 30.6787C18.4612 29.7863 19.408 29.044 20.2489 28.2117C20.3504 28.4577 19.9171 28.8424 19.6768 29.2486C19.5667 29.4359 19.6868 29.5918 19.6768 29.6061C18.8688 30.8303 14.7026 34.2399 13.8846 38.9023C13.4241 39.3371 13.8946 40.1037 13.1695 39.9749C13.3111 39.8662 13.0994 39.1755 12.9907 39.1526C12.267 39.8634 12.8992 40.0608 12.8835 40.118C12.862 40.1952 12.5559 39.922 12.5259 40.9403Z" fill="#0B1520"/>
<path d="M23.9674 22.1334C23.4869 24.3673 23.5269 24.968 21.8937 26.71C21.3902 27.2477 20.7738 27.6925 20.2489 28.2117C19.408 29.044 18.4612 29.7863 17.6746 30.6787C16.6234 31.873 15.8526 33.3346 14.7427 34.433C15.3148 33.3546 16.6906 31.0163 17.3886 30.1067C19.1749 27.7769 21.6319 26.3782 22.6803 23.4921C23.1279 23.3934 23.6042 22.1963 23.9674 22.1334Z" fill="#02455C"/>
<path d="M2.65765 49.9505C2.96371 50.135 3.4557 50.2823 3.65878 50.4511C4.03206 50.7614 3.67881 50.4854 3.73029 51.0231C3.18968 50.9688 2.77207 50.6642 2.94369 51.0946C2.19427 50.6885 1.62506 50.0806 0.941433 49.5929C0.929991 49.5758 0.734056 49.4514 0.655396 49.3069C0.987198 48.6261 1.64794 49.3427 2.65765 49.9505Z" fill="#0EA0C4"/>
<path d="M30.1887 2.61135C30.0514 2.61564 29.814 2.8459 29.6881 2.9689H29.4736C30.4619 2.57703 28.5883 2.17229 27.6144 2.53984C27.7016 2.37966 27.8389 2.15512 27.9719 2.03928C28.7571 1.58019 29.7411 1.78471 30.1887 2.61135Z" fill="#58BEBC"/>
<path d="M28.1149 3.75551C24.9685 7.06353 24.4322 12.9716 23.7529 17.2708C23.7414 17.3394 23.7643 17.4166 23.7529 17.4853C23.7114 17.5039 23.4726 17.717 23.4668 17.7356C23.4211 17.8643 22.8433 20.0196 22.7517 20.3814C22.6659 20.7261 23.1894 21.6328 21.3931 22.777C21.0269 23.0101 17.8419 24.3487 17.6388 24.3502C17.6074 24.3502 17.5373 24.17 17.3885 24.2072C18.1837 23.7166 17.4658 21.9618 18.1752 21.4183C18.2738 21.4383 20.0773 21.6357 20.1774 21.6328C20.7223 21.6157 20.5807 21.5899 20.964 21.3468C21.4903 21.1709 21.9451 21.2853 21.8221 20.6317C21.7177 20.0754 20.851 19.1929 20.8925 18.5937C20.9283 18.0702 21.7992 17.3966 21.8221 17.3065C21.9351 16.866 21.1628 16.3354 20.8925 15.9836C20.6093 15.6146 20.216 15.2885 20.2489 14.7679C20.6951 14.7408 20.9654 14.2845 21.25 13.9813C21.4274 13.8683 21.6748 13.7825 21.6791 13.5165C21.6877 13.0689 20.4735 11.9161 20.8925 10.9064C21.0598 11.1639 21.2858 10.6876 21.4288 10.6204C21.9294 10.3858 22.2383 10.6733 22.3942 9.9053C22.6345 8.71825 21.8007 8.11471 22.3942 6.97342C22.9963 6.31411 24.2034 6.8919 24.3607 6.83041C24.724 6.68882 24.8284 5.1385 25.1115 4.64937C25.286 4.34761 25.8052 4.25893 25.6121 4.04155C26.1155 3.97719 26.6061 4.02867 27.1138 3.97004C27.1596 3.96432 27.2111 3.97719 27.2568 3.97004C27.6673 3.90568 27.7417 3.76695 28.1149 3.75551Z" fill="#058C9C"/>
<path d="M15.9584 30.4285C13.0036 34.1269 11.9324 38.3388 10.5237 42.7281C10.5165 42.0702 10.2319 43.1071 10.0231 41.8699C9.99593 41.7083 10.1432 41.5625 10.0946 41.3336C10.0102 40.936 9.52969 40.5699 9.59405 40.1895C9.65125 39.852 10.3177 39.7547 10.4522 39.4744C10.7396 38.8737 10.1075 38.1901 10.0231 37.7224C10.3048 36.5425 11.592 37.2762 11.1672 35.8632C11.1058 35.6587 10.6781 34.8578 10.6667 34.433C11.8123 33.0729 12.8134 34.7505 12.5974 31.1078C15.0845 30.7374 13.9604 28.9339 14.2421 27.2821C14.2865 27.2821 14.86 27.438 15.136 27.3536C15.7138 27.1748 16.0356 24.6505 16.1729 24.4574C16.2959 24.2844 16.4046 24.3816 16.5304 24.3502C16.7822 24.2873 17.1297 24.3673 17.3886 24.2072C17.5373 24.17 17.6074 24.3502 17.6388 24.3502C17.8419 24.3488 21.0269 23.0101 21.3931 22.777C21.3931 22.8628 21.333 23.1531 21.3216 23.1703C21.1299 23.4549 18.8187 25.4057 18.5327 25.7446C18.4984 25.7847 18.5141 26.1079 18.4612 26.1737C18.0693 26.6542 17.5988 27.0904 17.2455 27.6039C16.7407 28.3375 15.4063 30.0924 15.9584 30.4285Z" fill="#058C9C"/>
<path d="M14.2421 27.2821C13.9604 28.9339 15.0845 30.7374 12.5974 31.1078C12.8134 34.7505 11.8123 33.0729 10.6667 34.433C10.6338 33.1758 11.951 33.7665 12.0969 33.1101C12.1698 32.7825 11.4976 31.1078 11.8823 30.4642C12.2313 29.8807 13.0508 30.3512 13.3125 29.9637C13.5886 29.5561 12.7805 28.1688 13.1695 27.2821C13.5742 27.0947 13.8488 27.272 14.2421 27.2821Z" fill="#0EA1AD"/>
<path d="M10.5236 42.7281C10.3549 43.2558 10.2662 43.8479 10.0946 44.3728C9.83999 45.1522 8.87748 48.3072 8.37834 48.6991C8.29968 48.7606 8.29539 48.6404 8.23533 48.6633C7.52452 47.3361 8.65294 47.6579 8.73589 47.5549C7.64752 45.2867 10.0102 46.98 8.8074 45.0879C8.75305 44.4414 8.9304 44.8576 9.34372 44.5158C10.0717 43.9151 9.46815 43.3202 9.16495 42.7281C9.06769 42.0759 9.64978 42.299 10.0231 41.8699C10.2319 43.1071 10.5165 42.0702 10.5236 42.7281Z" fill="#0EA1AD"/>
<path d="M16.5304 24.3502C16.4046 24.3816 16.2959 24.2844 16.1729 24.4574C16.0356 24.6505 15.7138 27.1748 15.136 27.3536C14.86 27.438 14.2865 27.2835 14.2421 27.2821C13.8488 27.272 13.5742 27.0947 13.1695 27.2821C13.5628 26.3868 14.1978 26.9631 14.7069 26.853C15.5307 26.6742 14.8457 25.111 15.4578 24.2072C15.9383 24.0112 16.692 23.6051 16.5304 24.3502Z" fill="#0EA1AD"/>
<path d="M18.1752 21.4183C17.4658 21.9618 18.1838 23.7166 17.3886 24.2072C17.1297 24.3673 16.7822 24.2872 16.5305 24.3502C16.6921 23.605 15.9384 24.0112 15.4578 24.2072C16.0885 23.2761 16.7765 24.19 17.2456 23.5993C17.6889 23.0416 17.1254 21.823 17.8891 21.2038C17.9592 21.2152 18.158 21.4154 18.1752 21.4183Z" fill="#20B2B9"/>
<path d="M20.1774 21.6328C20.0773 21.6357 18.2738 21.4383 18.1751 21.4183C18.158 21.4154 17.9592 21.2152 17.8891 21.2038C18.5727 20.6489 19.5982 21.0894 20.1774 21.6328Z" fill="#58BEBC"/>
<path d="M10.0231 37.7224C9.78431 36.388 11.4033 37.126 11.1673 35.8632C11.5921 37.2762 10.3049 36.5425 10.0231 37.7224Z" fill="#58BEBC"/>
<path d="M20.964 21.3468C21.0512 21.291 21.2515 21.0479 21.3215 20.9892C21.4774 20.8577 21.6505 20.7418 21.8221 20.6317C21.9451 21.2853 21.4903 21.1709 20.964 21.3468Z" fill="#C5E5EA"/>
<path d="M25.6121 4.04155C25.8052 4.25894 25.2861 4.34761 25.1116 4.64938C24.8284 5.1385 24.724 6.68882 24.3607 6.83041C24.2034 6.89191 22.9963 6.31411 22.3942 6.97343C22.9177 5.96801 23.5684 6.61874 23.9317 6.47286C24.2806 6.33271 24.1376 5.16568 24.468 4.3991C24.9628 4.1102 25.1059 4.10734 25.6121 4.04155Z" fill="#0EA1AD"/>
<path d="M29.4736 2.9689C29.282 2.93744 29.1618 3.04184 28.973 3.04041C28.4982 3.03612 27.7602 2.78727 27.3998 3.11192C27.4771 2.82874 27.4628 2.81873 27.6144 2.53985C28.5883 2.17229 30.4619 2.57703 29.4736 2.9689Z" fill="#0EA1AD"/>
<path d="M28.9731 3.04042C28.7142 3.30214 28.3681 3.48949 28.115 3.75551C27.7417 3.76695 27.6673 3.90568 27.2568 3.97004C27.1853 3.64252 27.3198 3.40654 27.3999 3.11192C27.7603 2.78727 28.4982 3.03613 28.9731 3.04042Z" fill="#0EA1AD"/>
<path d="M27.1138 3.97003C26.6061 4.02866 26.1155 3.97718 25.6121 4.04154C25.1058 4.10732 24.9628 4.11018 24.468 4.39908C25.0057 3.1491 26.0898 3.65253 27.1138 3.97003Z" fill="#58BEBC"/>
<path d="M20.8925 10.9064C21.2772 9.97538 21.9237 10.5832 22.3942 9.9053C22.2383 10.6733 21.9294 10.3858 21.4288 10.6204C21.2858 10.6876 21.0598 11.1639 20.8925 10.9064Z" fill="#58BEBC"/>
<path d="M21.25 13.9813C20.9654 14.2845 20.6951 14.7408 20.2489 14.7679C20.6622 13.9828 21.1943 14.0171 21.25 13.9813Z" fill="#20B2B9"/>
<path d="M9.66553 47.5907C8.73448 49.5744 6.73651 52.1301 4.26658 51.6667C3.96624 51.6109 3.57294 51.3592 3.30121 51.2377C3.84182 51.3235 4.43248 51.8255 4.65988 51.0946C4.9259 51.0946 5.3807 51.1275 5.55375 51.0946C6.08864 50.9945 8.26109 49.3984 8.16384 48.7348C8.26395 48.6977 8.23106 48.6648 8.23535 48.6633C8.29541 48.6404 8.29971 48.7606 8.37837 48.6991C8.8775 48.3072 9.84001 45.1522 10.0946 44.3728C10.874 45.5141 9.76278 46.488 9.66553 47.5907Z" fill="#02768A"/>
<path d="M8.16384 48.7348C8.26109 49.3984 6.08864 50.9945 5.55375 51.0946C5.3807 51.1275 4.9259 51.0946 4.65988 51.0946C4.32522 51.0961 4.05491 51.056 3.73026 51.0231C3.67878 50.4854 4.03203 50.7614 3.65875 50.4511C6.14441 51.3306 6.26598 49.869 6.41186 49.8075C6.54773 49.7503 7.22849 49.8804 7.30572 49.7717C7.36293 49.6916 7.16414 49.0209 7.55601 48.8063C7.78627 48.6805 8.03655 48.782 8.16384 48.7348Z" fill="#12ACC4"/>
<path d="M4.58849 54.3841C6.43772 54.9218 8.35131 55.0863 10.0589 54.0265C11.4405 53.1699 12.3716 51.1862 12.383 49.593L14.4568 48.4488C14.6413 48.8936 15.4036 50.7857 15.3864 51.1304C15.3749 51.3592 14.012 54.8017 13.8489 55.4567C10.7526 56.4908 7.09417 56.4092 4.37396 54.4914L4.58849 54.3841Z" fill="#A2ADAB"/>
<path d="M14.4568 48.4488L12.383 49.593C12.3916 48.4316 11.7337 46.3564 11.3819 45.1594V45.0164C11.8481 43.6834 12.21 42.3147 12.526 40.9403C12.4159 44.7246 13.4571 46.0432 14.4568 48.4488Z" fill="#549285"/>
<path d="M12.3832 49.593C12.3717 51.1862 11.4407 53.1698 10.0591 54.0265C8.35147 55.0863 6.43788 54.9218 4.58865 54.3841C2.20453 53.6919 1.04036 51.6238 0.65564 49.3069C0.7343 49.4514 0.930235 49.5758 0.941677 49.593C1.46512 50.3381 2.34612 51.1547 3.15846 51.5952C7.14153 53.7519 10.6412 48.5489 11.382 45.1594C11.7339 46.3564 12.3917 48.4316 12.3832 49.593Z" fill="#549285"/>
<path d="M11.382 45.1594C10.6412 48.5489 7.14151 53.7519 3.15845 51.5952C3.40444 51.4508 4.12954 51.9742 4.48137 52.0243C5.67128 52.1916 6.98991 51.5251 7.91381 50.8086C9.73301 49.397 10.644 47.1287 11.382 45.0164V45.1594Z" fill="#071816"/>
<path d="M29.4736 2.96891H29.6881C28.8329 3.80128 28.2823 4.88822 27.8289 5.9723C27.2211 6.4743 26.0726 9.23598 25.8266 10.0841C25.6522 10.6833 24.8484 14.5634 24.8255 15.054C24.3135 15.6303 24.1719 17.2951 23.7529 17.2708C24.4322 12.9716 24.9685 7.06353 28.1149 3.75551C28.3681 3.4895 28.7142 3.30214 28.973 3.04042C29.1618 3.04185 29.282 2.93745 29.4736 2.96891Z" fill="#006479"/>
<path d="M24.8255 15.054C24.8084 15.4258 24.7383 15.8706 25.04 16.1266C24.6324 18.116 24.3936 20.1483 23.9674 22.1334C23.6041 22.1963 23.1279 23.3934 22.6802 23.4921C22.7231 23.3748 22.7861 23.2532 22.8233 23.1345C23.3968 21.2996 23.4568 19.3746 23.7529 17.4853C23.7643 17.4166 23.7414 17.3394 23.7529 17.2708C24.1719 17.2951 24.3135 15.6303 24.8255 15.054Z" fill="#02455C"/>
<path d="M27.8289 5.97229C26.6275 8.84553 25.6722 13.0374 25.04 16.1266C24.7383 15.8706 24.8083 15.4258 24.8255 15.054C24.8484 14.5634 25.6522 10.6833 25.8266 10.0841C26.0726 9.23597 27.2211 6.47429 27.8289 5.97229Z" fill="#02455C"/>
<path d="M22.8232 23.1345C22.786 23.2532 22.7231 23.3748 22.6802 23.4921C21.6319 26.3782 19.1748 27.7769 17.3885 30.1067C16.6906 31.0163 15.3148 33.3546 14.7427 34.433C13.2767 37.1904 12.2241 40.1165 11.1672 43.0499C10.6223 44.5616 10.3549 46.1205 9.66553 47.5907C9.76278 46.488 10.874 45.5141 10.0946 44.3728C10.2662 43.8479 10.3549 43.2558 10.5236 42.7281C11.9324 38.3388 13.0036 34.1269 15.9583 30.4285C17.1497 28.9382 20.0501 26.3596 21.8936 24.0999C22.1954 23.7309 22.3069 23.1574 22.8232 23.1345Z" fill="#006479"/>
<path d="M3.73028 51.0231C4.05493 51.056 4.32523 51.0961 4.6599 51.0946C4.4325 51.8255 3.84183 51.3235 3.30122 51.2377C3.28406 51.2305 3.16678 51.2162 2.94367 51.0946C2.77205 50.6642 3.18967 50.9688 3.73028 51.0231Z" fill="#058C9C"/>
<path d="M54.9309 16.8417C55.5201 15.7276 55.2098 15.5159 55.2885 15.3043C55.3399 15.1655 55.7332 15.1612 55.789 14.8394L56.2181 14.9467C56.0822 15.8649 55.9664 15.3901 55.7175 15.7333C55.4529 16.098 55.6145 17.122 54.9309 16.8417Z" fill="#CED1D0"/>
<path d="M30.2602 5.54324C29.5008 6.52578 31.0454 7.02492 31.7619 7.04494C31.8091 8.37501 33.8214 9.13301 34.5508 6.97343C34.6723 7.0764 34.8411 7.2752 34.9798 7.33097C35.0056 7.34099 35.0728 7.32525 35.1229 7.33097C35.1286 7.55122 35.0799 8.65104 35.3016 8.68965C35.5219 8.52375 35.469 8.41649 35.4804 8.40361C35.7664 8.08182 35.7764 7.98314 35.8022 7.97456C35.9338 7.93022 36.0053 8.18766 36.1955 8.3321C37.108 10.0726 34.6881 11.008 33.8714 9.40474L33.1921 10.9779C32.9089 10.988 31.9107 11.3841 31.6547 11.55C30.6535 12.2008 31.4787 11.776 31.7262 11.693C34.5808 10.7391 34.7424 11.8246 36.124 12.8372C36.3886 13.2419 36.5616 13.3535 36.9821 13.1232C37.3439 12.9259 37.9403 11.9376 38.5553 12.8372C39.2289 13.8212 38.5296 15.6318 40.3073 13.5523C40.7678 13.5294 40.5476 13.7482 40.5576 13.7668C40.5661 14.0786 40.3845 14.3775 40.4861 14.6964C40.7135 15.4187 41.1911 15.0525 41.4872 14.7679C41.7203 14.5448 41.5701 14.286 42.0593 14.5177C42.0278 15.9536 42.5441 16.2768 43.3464 14.9825C43.5767 14.7965 43.6368 14.7779 43.9185 14.8394C43.9471 15.0011 43.571 16.2153 44.3476 16.6272C45.0712 16.7802 45.649 15.2957 46.3498 15.2685C46.4199 15.8606 46.2998 17.5239 47.2794 17.1993C47.5383 17.1134 47.6041 16.9347 47.78 16.7702C48.2176 16.3626 48.4064 15.7147 48.8526 16.1266C48.9814 16.6386 48.9413 16.9089 49.2817 17.4138C49.941 18.392 50.0726 17.5883 50.2828 17.3423C50.8377 16.693 51.1281 16.1209 51.999 16.9132C52.0605 17.1664 52.1792 17.4939 52.2136 17.6998C52.2293 17.7899 52.2036 17.8929 52.2136 17.9859C48.5938 19.2516 41.2584 17.4896 37.0894 17.4853C32.4384 16.9504 29.3106 14.9167 30.0099 9.8338C29.1046 11.5786 29.3621 14.3989 30.5463 15.9478C31.4058 17.072 32.9676 17.4567 32.2267 17.4138C28.6455 15.8863 28.1364 11.1467 29.3664 7.90305C26.8764 11.3898 28.431 16.9475 31.1898 19.8093C29.1104 24.7735 29.538 30.3984 27.7574 35.4699C27.5915 35.9404 27.1424 36.6827 26.9708 37.1861C26.885 37.4392 27.2211 38.2058 26.363 38.0084C24.6396 36.5182 26.7749 34.2099 26.4702 32.0374C26.1899 31.7442 26.0555 32.2019 25.9697 32.2877C25.9368 32.2777 25.8295 32.2233 25.8267 32.2162C25.7494 31.9616 25.7022 30.9019 24.9328 30.5715C25.3504 31.7099 25.093 32.0832 24.754 33.1458C24.1576 34.104 23.7085 36.2364 23.6099 36.4352C23.0735 37.5222 21.0269 36.0334 23.6456 37.4364C24.5681 37.9312 25.768 38.9824 26.8635 38.7235C27.6988 38.5262 29.4851 36.2622 31.7977 38.223C32.8546 39.1197 33.5825 40.9789 33.1921 42.3348C32.846 43.5361 33.1592 41.2235 32.3697 40.7973C32.2525 40.8931 32.7216 43.2758 31.6547 43.3001C31.4344 43.2014 31.6504 41.6897 30.8681 41.0118C30.2617 40.9546 30.8223 41.654 30.6178 42.7281H29.8312C29.2991 40.5184 28.7929 41.7355 29.0446 43.2644C27.9276 44.2526 28.5512 41.9729 27.2926 41.7269C26.3029 41.5324 26.2328 42.2704 26.1484 42.299C25.7866 42.4234 19.9915 40.374 19.6769 38.6163C19.4823 37.5308 21.1929 30.9805 21.5719 29.4273C20.9368 30.1567 20.5793 31.1993 20.1059 31.9302C20.3376 30.776 20.8596 28.7652 21.8579 28.0687C22.5415 27.591 23.1165 28.123 24.1104 25.5301C25.4062 22.152 25.9296 14.0743 27.6859 8.58239C28.4882 6.07241 28.2808 6.0009 30.2602 5.54324Z" fill="#549285"/>
<path d="M46.5643 7.18796C46.8232 6.99631 47.0377 6.73316 47.3509 6.61588C47.5668 6.87188 47.3323 7.16078 47.4582 7.47399C47.5697 7.56839 49.3031 6.26692 48.4235 7.36673C48.4092 7.87874 49.5048 7.6828 49.7822 7.47399C48.9484 8.55235 49.9023 7.61129 50.2828 7.33097C52.8929 7.69138 54.0127 8.78404 55.2884 11.0137C55.6274 11.6072 55.9105 12.6427 56.218 12.6942C56.1637 13.7268 55.4572 13.046 55.3957 13.0517C55.2655 13.0617 55.0839 13.5051 54.7521 13.5523C54.3245 13.6123 54.2844 13.3921 54.18 13.4093C53.8797 13.4607 53.3205 13.7282 52.8929 13.7668C50.2599 14.0014 50.5202 13.5566 50.39 13.5523C50.2985 13.5494 49.3002 14.2588 48.8168 13.3378C47.278 14.2788 47.5654 12.4153 46.457 13.2662C45.2929 12.1536 45.8063 13.0174 45.0983 12.9087C44.4548 12.81 45.1985 12.0663 44.0972 12.5512C43.7483 11.3126 42.9187 13.0117 42.4525 11.4785C40.9022 12.1879 41.9748 10.7806 40.5218 11.264C39.7638 10.1399 40.0269 10.7134 39.7352 10.6919C38.5939 10.6104 39.4091 9.54919 38.3765 10.2629C37.085 9.05721 38.4337 9.51344 39.2703 9.40474C40.1828 9.28604 41.0738 9.06865 41.8447 8.54663C42.4268 8.1519 42.6442 7.90305 42.9173 7.25947C44.3575 7.6828 44.901 6.57155 44.8481 7.61701C44.7093 8.26202 45.1699 6.90478 45.7777 6.54437C46.5829 6.74603 45.4416 8.02175 46.5643 7.18796Z" fill="#549285"/>
<path d="M56.2181 12.6942C55.9106 12.6427 55.6274 11.6072 55.2885 11.0137C54.0128 8.78404 52.8929 7.69138 50.2828 7.33097C50.4001 7.24516 50.4888 7.0149 50.6761 6.97343C52.9601 6.45999 56.3282 10.5846 56.2181 12.6942Z" fill="#D9D9D9"/>
<path d="M35.2659 5.61475C35.2659 5.70056 35.0971 6.1811 35.1229 7.33097C35.0728 7.32525 35.0056 7.34098 34.9799 7.33097C33.3094 3.08618 32.0694 5.52894 31.2256 5.90079C30.6536 6.1525 31.34 5.14136 32.0122 4.82815C32.5228 4.58931 33.9787 4.37335 34.6223 4.25607C35.5376 4.38765 35.1186 4.83387 35.1229 5.57899C35.1229 5.63763 35.2659 5.6076 35.2659 5.61475Z" fill="#2A5C59"/>
<path d="M45.0626 7.04493C45.0369 7.25803 44.8696 7.40534 44.8481 7.61701C44.901 6.57154 44.3576 7.68279 42.9174 7.25946C43.4909 5.90793 43.2992 4.76522 43.3464 4.61362C44.0544 5.10989 44.8195 6.13247 45.0626 7.04493Z" fill="#2A5C59"/>
<path d="M23.6099 36.4352C23.7085 36.2364 24.1576 34.104 24.754 33.1458C24.8641 32.9685 25.123 32.7153 25.2188 32.5022C25.9053 32.4779 25.1073 33.5477 24.8255 34.6117C24.4766 35.9332 25.02 37.0173 23.6099 36.4352Z" fill="#549285"/>
<path d="M28.8301 5.2572C28.298 5.34301 28.607 5.24862 28.6871 4.89966C29.8913 4.57786 31.0397 4.08302 32.2625 3.82702C33.2837 3.61249 34.4822 3.45517 33.8 3.75551C32.4656 3.86706 29.4193 5.16281 28.8301 5.2572Z" fill="#02455C"/>
<path d="M49.9968 7.25945C49.9296 7.36529 49.8409 7.39818 49.7823 7.47398C49.5048 7.68279 48.4093 7.87872 48.4236 7.36672C49.3032 6.2669 47.5698 7.56837 47.4582 7.47398C47.3324 7.16077 47.5669 6.87187 47.351 6.61587C47.3953 6.59871 47.4983 6.65591 47.494 6.54436C47.5169 6.54865 47.5426 6.54007 47.5655 6.54436C48.3964 6.70311 49.2159 6.93051 49.9968 7.25945Z" fill="#2A5C59"/>
<path d="M49.9967 7.25946C49.2159 6.93052 48.3964 6.70312 47.5654 6.54437C48.4951 6.03379 49.0914 6.52721 49.1744 6.54437C49.2516 6.5601 49.7465 6.31411 50.2113 6.86616C50.2728 7.16364 50.0082 7.24087 49.9967 7.25946Z" fill="#D9D9D9"/>
<path d="M34.2649 6.75891C33.9574 7.94597 32.5629 8.31353 32.1911 6.83042C32.4914 5.60046 33.0692 6.86904 33.228 6.90193C33.7586 7.01063 33.9116 5.8579 32.6917 5.82929C33.4983 5.60905 33.7543 6.28838 34.2649 6.75891Z" fill="#757A7B"/>
<path d="M32.1911 6.83041C32.5629 8.31352 33.9573 7.94596 34.2648 6.7589C34.3463 6.8347 34.4651 6.90049 34.5509 6.97343C33.8215 9.13301 31.8092 8.37501 31.762 7.04494C31.7434 6.52006 31.9851 6.41566 32.048 6.32985C32.018 6.49718 32.1567 6.69312 32.1911 6.83041Z" fill="#549285"/>
<path d="M32.6916 5.82928C33.9116 5.85789 33.7586 7.01062 33.228 6.90192C33.0692 6.86903 32.4914 5.60045 32.1911 6.83041C32.1567 6.69312 32.018 6.49718 32.048 6.32985C32.2325 6.07814 32.3827 5.91367 32.6916 5.82928Z" fill="#A2ADAB"/>
<path d="M34.6938 2.25382C34.1217 2.81302 34.4964 3.16771 34.4793 3.2192C34.4049 3.43658 32.57 3.551 32.2625 3.82702C31.0397 4.08303 29.8912 4.57787 28.687 4.89966C28.7128 4.78811 28.7056 4.7309 28.7585 4.61363C29.2405 4.83531 29.661 3.60249 31.3686 2.8974C33.265 2.11366 34.3448 2.64712 34.5508 2.18231C34.6023 2.19804 34.6981 2.14513 34.6938 2.25382Z" fill="#549285"/>
<path d="M32.048 1.68176C32.0723 1.68319 32.0952 1.68033 32.1195 1.68176C33.8114 1.82907 33.5425 1.88771 34.5508 2.18233C34.3448 2.64714 33.2651 2.11368 31.3686 2.89742C29.661 3.6025 29.2405 4.83532 28.7585 4.61364C29.0188 4.03585 29.7797 3.02328 30.2602 2.61138C30.7079 2.22809 31.4544 1.73611 32.048 1.68176Z" fill="#2A5C59"/>
<path d="M33.4066 1.46723C33.9 1.50728 34.731 1.76185 35.0513 2.14657C35.0342 2.18804 34.7124 2.23524 34.6938 2.25383C34.6981 2.14514 34.6022 2.19805 34.5508 2.18232C33.5425 1.8877 33.8114 1.82907 32.1194 1.68176C32.3225 1.4801 33.0662 1.44006 33.4066 1.46723Z" fill="#D9D9D9"/>
<path d="M46.5643 6.32983V7.18795C45.4416 8.02174 46.5829 6.74602 45.7777 6.54436C46.0394 6.38847 46.2583 6.32983 46.5643 6.32983Z" fill="#2A5C59"/>
<path d="M41.1296 12.2651C41.0309 12.74 40.9193 13.2162 40.8435 13.6953C40.8035 13.9542 40.7563 14.2173 40.772 14.4819C40.5103 14.2359 40.8464 14.336 40.5575 13.7668C40.5475 13.7482 40.7677 13.5294 40.3072 13.5523C38.5295 15.6318 39.2289 13.8212 38.5552 12.8372L39.1988 12.6942C39.0515 15.0283 39.7838 13.4937 39.9139 12.4082C41.2082 13.0589 40.7763 12.4797 41.1296 12.2651Z" fill="#190B09"/>
<path d="M33.1921 10.9779C33.8071 10.9551 34.9669 11.5343 36.0167 11.264C35.8379 11.7931 35.8093 12.3552 36.124 12.8372C34.7424 11.8246 34.5808 10.7391 31.7261 11.693C31.4787 11.776 30.6535 12.2008 31.6546 11.55C31.9106 11.3841 32.9089 10.988 33.1921 10.9779Z" fill="#843C24"/>
<path d="M49.7822 16.9848C49.5405 17.5196 49.5734 17.2322 49.4961 17.2708C49.4532 15.4173 48.5594 13.9284 50.3543 14.8037C50.4029 14.9668 49.898 16.7273 49.7822 16.9848Z" fill="#FBFCFC"/>
<path d="M51.9989 16.9132C51.128 16.1209 50.8376 16.693 50.2827 17.3423C50.0539 17.5568 50.2455 16.919 50.2827 16.7702C50.8405 14.5506 51.5356 14.9896 51.9989 16.9132Z" fill="#DED9D2"/>
<path d="M38.9843 12.2651C38.99 12.2823 39.0872 12.1593 39.1988 12.5512C39.1931 12.5969 39.2016 12.647 39.1988 12.6942L38.5552 12.8372C37.9402 11.9376 37.3438 12.9259 36.982 13.1233C36.6688 13.1075 37.1193 12.391 37.3395 11.9076C37.9159 11.8647 38.4866 11.9434 38.9843 12.2651Z" fill="#DED9D2"/>
<path d="M47.7084 15.054C47.634 15.393 47.3151 16.3769 47.0648 16.6272C46.9547 15.8163 46.8703 15.044 47.0648 14.2316C48.0102 14.0228 47.8586 14.3704 47.7084 15.054Z" fill="#FBFCFC"/>
<path d="M46.3497 15.2685C45.6489 15.2957 45.0711 16.7802 44.3475 16.6272C45.8277 15.9836 44.7165 13.6824 46.3497 14.6607C46.3669 14.8581 46.3268 15.0726 46.3497 15.2685Z" fill="#DED9D2"/>
<path d="M39.9139 12.4082C39.7837 13.4937 39.0515 15.0283 39.1988 12.6942C39.2017 12.647 39.1931 12.5969 39.1988 12.5512C39.2818 11.9062 39.1773 11.407 39.6636 11.4785C40.0841 11.8046 39.9725 11.919 39.9139 12.4082Z" fill="#FBFCFC"/>
<path d="M48.8526 16.1266C48.4063 15.7148 48.2176 16.3626 47.7799 16.7702C47.3852 16.826 47.8443 15.1455 48.1375 15.1255C48.1661 15.1298 48.6109 15.014 48.7095 15.1613C48.7367 15.2013 48.7596 15.7562 48.8526 16.1266Z" fill="#DED9D2"/>
<path d="M38.9843 12.2651C38.4866 11.9433 37.916 11.8647 37.3396 11.9076C37.5327 11.4828 37.4984 10.2657 38.6983 11.5858C39.2246 12.165 38.9686 12.2137 38.9843 12.2651Z" fill="#3A1212"/>
<path d="M41.4871 13.6953H40.8435C40.9193 13.2162 41.0309 12.74 41.1295 12.2651C42.042 12.0678 41.8432 12.6856 41.4871 13.6953Z" fill="#FBFCFC"/>
<path d="M48.1374 15.1255C47.8443 15.1455 47.3852 16.826 47.7799 16.7702C47.604 16.9347 47.5382 17.1135 47.2793 17.1993C46.9146 17.1635 47.1091 16.9533 47.0648 16.6272C47.3151 16.3769 47.634 15.393 47.7084 15.054C47.9601 14.8652 48.1131 15.1227 48.1374 15.1255Z" fill="#3A1212"/>
<path d="M50.2827 17.3423C50.0725 17.5883 49.9409 18.392 49.2816 17.4138C49.263 17.1835 49.3588 17.338 49.4961 17.2708C49.5734 17.2322 49.5405 17.5196 49.7822 16.9847L50.2827 16.7702C50.2455 16.919 50.0539 17.5568 50.2827 17.3423Z" fill="#3A1212"/>
<path d="M41.4871 13.6953C41.3469 14.0943 41.2639 14.9439 40.772 14.4819C40.7562 14.2173 40.8034 13.9542 40.8435 13.6953H41.4871Z" fill="#BBC7D2"/>
<path d="M47.494 6.54436C47.4982 6.65592 47.3953 6.59871 47.3509 6.61587C47.0377 6.73315 46.8232 6.9963 46.5643 7.18795V6.32983C46.992 6.32983 47.3524 6.51862 47.494 6.54436Z" fill="#D9D9D9"/>
<path d="M35.4804 8.40361C35.469 8.41648 35.5219 8.52375 35.3016 8.68965C35.0799 8.65103 35.1286 7.55122 35.1229 7.33097C35.0971 6.1811 35.2659 5.70056 35.2659 5.61475C35.3746 4.90252 35.6177 7.32239 35.4804 8.40361Z" fill="#190B09"/>
<path d="M55.789 14.8394C55.7332 15.1612 55.3399 15.1655 55.2885 15.3042C55.2098 15.5159 55.5201 15.7276 54.9309 16.8417C54.6234 17.4224 54.0256 18.0631 53.465 18.4149C49.9481 20.6217 44.246 18.372 42.3095 18.987C40.3874 19.5977 40.3259 22.0161 39.771 22.9557C39.4949 23.4248 38.7226 23.9569 38.6983 24.0284C38.6182 24.2729 38.6711 27.3221 38.4123 29.177C38.3308 29.7634 37.916 30.6001 37.9117 30.6787C37.9017 30.8747 38.3451 31.8114 38.4123 32.1804C38.4738 32.518 38.3465 33.2774 38.4123 33.5391C38.5853 34.2256 43.7826 37.5751 44.133 40.7615C44.502 44.121 41.809 43.7063 41.5944 43.8007C41.2512 43.9523 42.4168 47.2961 42.5598 47.841C42.8187 48.8306 44.1788 54.5285 44.3475 54.8489C44.5592 55.2493 44.8252 55.1063 45.0626 55.3494C45.157 55.4467 46.2425 57.2473 46.1353 57.7807C45.9837 58.5359 42.8358 59.4083 42.2738 58.6389C41.623 57.7464 42.2852 55.451 42.2738 55.2779C42.2409 54.7573 39.8596 46.744 39.6279 45.1951C39.4263 44.7046 38.7384 46.0904 37.7329 44.5873L37.4827 44.623C36.8419 46.1991 37.3125 47.1373 37.1966 48.6991C37.1094 49.8775 36.0982 53.0526 36.1955 53.7047C36.2227 53.8906 37.0851 55.1192 37.2681 55.4209C37.4898 55.7856 37.5942 56.3792 37.6257 56.4221C37.8574 56.7482 38.664 56.6766 38.9128 57.9953C39.2976 60.039 37.4312 60.2578 35.8737 60.1048C35.7335 60.0905 35.3688 59.8045 35.1586 59.8188C35.0985 59.8231 34.6838 60.1391 34.0145 60.1763C33.1778 60.2235 31.7147 59.9646 31.3686 59.9618C31.2413 59.9618 30.1844 60.4781 28.8658 60.0333C27.3941 59.537 27.9176 58.3771 27.9004 57.4232C27.9004 57.3603 27.6759 57.2873 27.7574 56.2075C27.8017 55.624 28.9845 52.1444 28.7228 51.9527C27.2039 52.3546 24.0232 51.8741 23.7886 51.9527C23.5841 52.0214 22.686 53.5245 22.7517 54.0623C22.7803 54.294 24.6639 57.4389 24.754 58.2813C25.0272 60.8456 21.9094 59.9561 20.6422 59.9618C20.6265 59.9618 20.3719 60.1048 20.3562 60.1048C19.4981 60.1062 18.64 60.1019 17.7819 60.1048C17.7161 60.1048 17.2398 59.8917 17.2098 59.8903C17.0396 59.8845 15.1904 60.6526 13.9204 59.7472C12.7991 58.9478 13.753 57.3503 13.7058 56.2433C9.9902 57.7092 4.30235 56.5208 1.72802 53.4187C1.05011 52.602 -0.890647 49.3612 0.47661 48.5918C1.36905 48.0898 2.29151 49.1453 3.01519 49.5214C2.83928 50.0148 2.50032 49.5314 2.65764 49.9505C1.64793 49.3427 0.987186 48.6261 0.655383 49.3069C1.0401 51.6238 2.20427 53.6918 4.58839 54.3841L4.37386 54.4913C7.09408 56.4092 10.7525 56.4907 13.8488 55.4567C14.0119 54.8017 15.3748 51.3592 15.3863 51.1304C15.4035 50.7857 14.6412 48.8936 14.4567 48.4488C13.457 46.0432 12.4158 44.7246 12.5259 40.9403C12.556 39.922 12.862 40.1952 12.8835 40.118C12.8992 40.0608 12.2671 39.8634 12.9907 39.1526C13.0994 39.1755 13.3111 39.8662 13.1695 39.9749C13.8946 40.1037 13.4241 39.3371 13.8846 38.9023C14.7027 34.2399 18.8688 30.8303 19.6768 29.6061C19.6869 29.5918 19.5667 29.4359 19.6768 29.2486C19.9171 28.8424 20.3505 28.4577 20.2489 28.2117C20.7738 27.6925 21.3902 27.2477 21.8936 26.71C22.3999 26.7929 22.4071 26.3281 22.8948 26.5312C22.5987 27.2892 23.1851 26.8273 23.2523 26.9603C22.8576 27.7983 22.2583 27.6396 21.9294 27.8541C20.6222 28.7094 19.9228 31.7099 20.1059 31.9302C20.5793 31.1993 20.9368 30.1567 21.5718 29.4273C21.1928 30.9805 19.4823 37.5308 19.6768 38.6163C19.9915 40.374 25.7866 42.4234 26.1484 42.299C26.2328 42.2704 26.3029 41.5324 27.2926 41.7269C28.5511 41.9729 27.9276 44.2526 29.0446 43.2644C28.7928 41.7355 29.2991 40.5184 29.8312 42.728C29.8726 42.8997 29.8369 43.4317 30.0099 43.5146C30.5749 43.5776 30.5477 43.0956 30.6178 42.728C30.8223 41.654 30.2616 40.9546 30.868 41.0118C31.6504 41.6897 31.4344 43.2014 31.6546 43.3001C32.7216 43.2758 32.2525 40.8931 32.3697 40.7973C33.1592 41.2235 32.846 43.5361 33.1921 42.3347C33.5825 40.9789 32.8546 39.1197 31.7977 38.223C29.4851 36.2622 27.6988 38.5262 26.8635 38.7235C25.768 38.9824 24.5681 37.9312 23.6456 37.4364C21.0269 36.0334 23.0735 37.5222 23.6099 36.4352C25.02 37.0173 24.4765 35.9332 24.8255 34.6117C25.1073 33.5477 25.9053 32.4779 25.2188 32.5022C25.123 32.7153 24.8641 32.9685 24.754 33.1458C25.093 32.0832 25.3504 31.7099 24.9328 30.5715C25.7022 30.9018 25.7494 31.9616 25.8266 32.2162C25.8195 32.3864 25.8538 32.4035 25.9697 32.2877C26.0555 32.2019 26.1899 31.7442 26.4702 32.0374C26.7749 34.2099 24.6396 36.5182 26.363 38.0084C27.2211 38.2058 26.885 37.4392 26.9708 37.1861C27.1424 36.6827 27.5915 35.9404 27.7574 35.4699C29.538 30.3984 29.1103 24.7735 31.1898 19.8093C28.431 16.9475 26.8764 11.3898 29.3664 7.90304C28.1364 11.1467 28.6455 15.8863 32.2267 17.4138C32.9676 17.4567 31.4058 17.072 30.5463 15.9478C29.3621 14.3989 29.1046 11.5786 30.0099 9.83379C29.3106 14.9167 32.4384 16.9504 37.0894 17.4853C41.2583 17.4896 48.5938 19.2516 52.2136 17.9858C53.3491 17.5883 54.1958 17.2193 53.465 15.8406C53.1561 16.5342 53.0745 17.4781 52.2136 17.6998C52.1792 17.4939 52.0605 17.1664 51.999 16.9132C51.5357 14.9896 50.8406 14.5505 50.2828 16.7702L49.7822 16.9847C49.8981 16.7273 50.4029 14.9667 50.3543 14.8037C48.5594 13.9284 49.4533 15.4172 49.4962 17.2708C49.3589 17.338 49.2631 17.1835 49.2817 17.4138C48.9413 16.9089 48.9813 16.6386 48.8526 16.1266C48.7597 15.7562 48.7368 15.2013 48.7096 15.1612C48.6109 15.0139 48.1661 15.1298 48.1375 15.1255C48.1132 15.1226 47.9602 14.8652 47.7085 15.054C47.8586 14.3703 48.0102 14.0228 47.0649 14.2316C46.8704 15.044 46.9548 15.8163 47.0649 16.6272C47.1092 16.9533 46.9147 17.1635 47.2794 17.1992C46.2997 17.5239 46.4199 15.8606 46.3498 15.2685C46.3269 15.0726 46.367 14.858 46.3498 14.6607C44.7165 13.6824 45.8278 15.9836 44.3475 16.6272C43.5709 16.2153 43.9471 15.0011 43.9185 14.8394C43.8699 14.5677 43.7597 14.6492 43.5252 14.5534C43.3321 14.6979 43.3593 14.9624 43.3464 14.9825C42.5441 16.2768 42.0278 15.9536 42.0592 14.5176C41.5701 14.286 41.7203 14.5448 41.4872 14.7679C40.9079 15.3271 41.0853 14.5892 40.486 14.6964C40.3845 14.3775 40.5661 14.0786 40.5576 13.7668C40.8464 14.336 40.5104 14.2359 40.7721 14.4819C41.2641 14.9438 41.347 14.0943 41.4872 13.6953C41.8433 12.6856 42.0421 12.0677 41.1296 12.2651C40.7764 12.4796 41.2083 13.0589 39.914 12.4081C39.9726 11.919 40.0842 11.8046 39.6637 11.4785C39.1774 11.407 39.2818 11.9061 39.1989 12.5511C39.0873 12.1593 38.9901 12.2823 38.9843 12.2651C38.9686 12.2136 39.2246 12.165 38.6983 11.5858C37.4984 10.2657 37.5327 11.4828 37.3396 11.9076C37.1194 12.391 36.6689 13.1075 36.9821 13.1232C36.5616 13.3535 36.3886 13.2419 36.124 12.8372C35.8093 12.3552 35.8379 11.7931 36.0167 11.264C34.967 11.5343 33.8071 10.9551 33.1921 10.9779L33.8714 9.40474C34.6881 11.008 37.1079 10.0726 36.1955 8.3321C37.6099 9.4076 37.5341 9.13586 39.2704 9.40474C38.4337 9.51343 37.0851 9.0572 38.3765 10.2628C39.4091 9.54918 38.5939 10.6104 39.7352 10.6919C40.027 10.7134 39.7638 10.1399 40.5218 11.264C41.9749 10.7806 40.9022 12.1879 42.4525 11.4785C42.9188 13.0117 43.7483 11.3126 44.0973 12.5511C45.1985 12.0663 44.4548 12.81 45.0984 12.9087C45.8063 13.0174 45.2929 12.1536 46.4571 13.2662C47.5655 12.4153 47.278 14.2788 48.8169 13.3377C49.3003 14.2588 50.2985 13.5494 50.3901 13.5523C50.5202 13.5566 50.2599 14.0014 52.8929 13.7668C53.3205 13.7282 53.8797 13.4607 54.1801 13.4093C54.2845 13.3921 54.3245 13.6123 54.7521 13.5523C55.0839 13.5051 55.2656 13.0617 55.3957 13.0517C55.4572 13.046 56.1637 13.7268 56.2181 12.6942C56.3282 10.5846 52.9601 6.45999 50.6761 6.97342C50.4888 7.0149 50.4001 7.24516 50.2828 7.33097C49.9024 7.61128 48.9484 8.55235 49.7822 7.47399C49.8409 7.39819 49.9296 7.36529 49.9968 7.25946C50.0082 7.24087 50.2728 7.16364 50.2113 6.86616C49.7465 6.31411 49.2516 6.5601 49.1744 6.54437C49.0915 6.5272 48.4951 6.03379 47.5655 6.54437C47.5426 6.54008 47.5168 6.54866 47.4939 6.54437C47.3524 6.51862 46.992 6.32984 46.5643 6.32984C46.2583 6.32984 46.0395 6.38848 45.7777 6.54437C45.1699 6.90477 44.7094 8.26202 44.8481 7.617C44.8696 7.40534 45.0369 7.25803 45.0626 7.04493C45.2571 5.45313 43.6468 3.64538 43.3464 4.61362C43.2992 4.76522 43.4909 5.90793 42.9174 7.25946C42.6442 7.90304 42.4268 8.15189 41.8447 8.54663C36.9177 9.59209 35.7621 9.23454 35.3374 4.0773C35.2115 3.96574 35.0156 4.18456 34.6223 4.25607C33.9787 4.37334 32.5228 4.5893 32.0122 4.82814C31.34 5.14135 30.6535 6.1525 31.2256 5.90078C32.0694 5.52893 33.3094 3.08618 34.9798 7.33097C34.8411 7.27519 34.6723 7.0764 34.5508 6.97342C34.465 6.90048 34.3463 6.83469 34.2647 6.75889C33.7542 6.28836 33.4982 5.60903 32.6915 5.82927C32.3826 5.91365 32.2324 6.07813 32.0479 6.32984C31.985 6.41565 31.7433 6.52005 31.7619 7.04493C31.0454 7.02491 29.5008 6.52577 30.2602 5.54324C29.8526 5.20428 28.3981 6.58155 28.83 5.2572C29.4193 5.16281 32.4656 3.86706 33.7999 3.7555C34.4821 3.45517 33.2836 3.61249 32.2625 3.82701C32.57 3.55099 34.4049 3.43657 34.4793 3.21919C34.4964 3.1677 34.1217 2.81301 34.6938 2.25381C34.7124 2.23522 35.0342 2.18802 35.0513 2.14655C34.731 1.76183 33.9 1.50725 33.4066 1.46721C33.0262 1.03243 31.812 1.03672 31.4044 1.64598C31.6303 1.60737 31.8291 1.66314 32.0479 1.68174C31.4544 1.73608 30.7079 2.22807 30.2602 2.61136H30.1887C29.7411 1.78471 28.7571 1.58019 27.9719 2.03928C28.5311 1.55016 28.8372 1.73751 28.7228 1.53872C27.7374 1.21121 27.9762 2.20232 27.3283 1.82475C28.7442 0.214366 30.1286 1.69747 30.296 1.68174C30.3789 1.67459 30.6678 1.16973 30.9396 0.966644C32.4427 -0.150331 34.2676 1.17116 34.4435 1.10966C34.6094 1.05246 34.4836 0.559041 34.8011 0.39457C35.2373 0.168601 40.5933 0.118544 41.2369 0.251551C41.6173 0.330211 42.2409 1.04101 42.4525 1.10966C42.5212 1.13255 43.0218 0.63198 43.5252 1.75325C44.2531 1.94346 44.216 1.19118 44.6693 0.966644C45.5389 0.536158 50.0826 1.12539 50.2828 1.43145C50.1469 2.38682 50.8735 3.13337 50.6404 4.0773C50.6132 4.18599 49.4833 5.16567 50.5331 5.97229C51.7302 6.0438 50.6203 4.34903 52.3208 4.61362C53.7839 4.84245 53.0373 6.87045 53.0717 7.00918C53.136 7.26661 55.4157 8.1805 56.5041 10.9422C57.5081 13.4879 56.6829 13.7225 56.6471 13.8741C56.5485 14.2902 56.8903 15.7347 56.2181 15.5188L56.1823 13.9098C55.37 13.8984 55.8162 14.6793 55.789 14.8394Z" fill="#0C0D10"/>
<path d="M19.0333 33.7179C18.7845 34.1784 18.6114 35.6787 18.4612 36.2922C18.2024 37.3506 18.2167 38.253 17.3171 39.0453C17.36 39.3957 18.1394 38.8337 18.3897 37.7939L18.5327 37.8654C18.4398 38.5119 18.8131 38.6534 18.3182 39.1168C18.4384 40.1251 22.962 40.7 23.6099 46.4823C23.7529 47.758 23.986 50.5411 22.8591 51.3092C21.1471 52.4748 20.1102 51.2763 19.9629 51.7025C20.8825 52.3303 18.6228 52.1687 17.4243 51.8812C15.5008 50.8586 15.7439 48.7463 15.6724 48.4845C15.5279 47.9554 12.0411 45.0621 14.1707 38.1157C15.189 34.7934 17.5116 32.0503 19.8557 29.5703C19.4995 30.9362 19.0591 32.2934 19.0333 33.7179Z" fill="#549285"/>
<path d="M33.4782 53.1684C32.6043 53.6261 31.2843 53.7877 32.7631 54.0265C32.9805 54.0608 33.185 54.0995 33.4067 54.098C32.2396 54.9805 30.9424 55.6469 29.6882 56.3863C28.8086 56.3863 28.0921 57.6334 29.0803 54.4556C29.6024 54.8746 30.3689 54.9032 31.0111 54.8846C34.7653 53.8206 29.1175 55.3838 29.6167 52.06C31.3901 51.7754 33.1278 51.4193 34.5508 50.2365C35.243 50.554 33.4453 52.5091 32.5485 52.8466C32.55 53.0826 33.5397 52.8952 33.4782 53.1684Z" fill="#549285"/>
<path d="M33.9073 53.955C34.3964 54.0952 36.0254 55.5897 36.4101 56.0288C37.0565 56.7667 35.9725 56.0288 35.0872 57.602C34.2534 55.9773 32.2197 56.1417 31.5832 57.8165C31.3244 57.0757 30.4691 56.3863 29.6882 56.3863C30.9425 55.6469 32.2397 54.9804 33.4067 54.098C33.4482 54.0665 33.554 54.0422 33.5497 53.955C33.6155 53.9607 33.5612 53.8549 33.9073 53.955Z" fill="#549285"/>
<path d="M34.8369 51.9527C33.2179 52.5391 33.8601 52.193 35.1229 52.0958C35.1959 52.09 35.306 51.9055 35.4805 52.1315C35.0843 53.0583 35.6192 53.4888 34.6939 54.2053L34.8011 54.3841C34.9942 54.4513 35.6893 53.709 36.4101 56.0288C36.0254 55.5897 34.3964 54.0952 33.9073 53.955C34.1718 53.7648 34.0403 53.2585 33.9788 52.9181C33.7371 52.6221 33.6927 53.0568 33.4782 53.1684C33.5397 52.8952 32.55 53.0826 32.5486 52.8466C33.4453 52.5091 35.2431 50.554 34.5508 50.2365C34.8812 49.9619 35.2888 49.5343 35.552 49.1996C36.2456 48.3144 36.6847 46.8341 36.3386 49.2711C36.2871 49.6358 35.7994 51.5852 35.5877 51.7382C35.5563 51.7611 34.9928 51.897 34.8369 51.9527Z" fill="#549285"/>
<path d="M24.6109 45.5884C24.5308 45.1308 24.5695 44.8519 24.5394 44.4443C25.911 44.9262 27.088 44.6331 27.221 44.6588C27.3512 44.6831 28.0076 45.5069 29.6881 45.4454C30.652 46.6725 32.5528 45.9002 32.2624 44.7303C34.7424 44.4571 34.3362 42.8782 34.4792 42.7996C37.7601 47.0772 30.8637 51.5652 26.5059 48.9494C25.2989 48.2257 24.8426 46.9128 24.6109 45.5884Z" fill="#F6C398"/>
<path d="M24.6109 45.5884C24.8426 46.9128 25.2989 48.2257 26.5059 48.9494C30.8637 51.5652 37.7601 47.0772 34.4792 42.7996C34.771 42.6394 36.8948 43.1714 36.982 43.4074C36.3814 49.4199 29.6781 51.7783 24.3607 51.2377C24.8112 49.3841 24.5208 47.4777 24.6109 45.5884Z" fill="#A2ADAB"/>
<path d="M29.6881 45.4454C28.0077 45.5069 27.3512 44.6831 27.221 44.6588C27.088 44.633 25.911 44.9262 24.5395 44.4443C24.5266 44.2612 24.3006 43.1728 24.4322 43.0856C25.3418 43.5104 26.1312 43.416 26.2199 43.4431C26.3472 43.4817 26.7062 44.0881 27.0065 44.3012C27.9719 44.9877 29.1389 44.6874 29.4378 44.8018C29.6509 44.8833 29.6667 45.4182 29.6881 45.4454Z" fill="#9D4E3E"/>
<path d="M34.4792 42.7996C34.3362 42.8782 34.7423 44.4571 32.2624 44.7303C32.2138 44.5329 31.7833 44.2998 32.0836 44.0867C32.1995 44.0052 33.192 44.1196 34.0144 42.6565L34.4792 42.7996Z" fill="#9D4E3E"/>
<path d="M39.485 20.5602C37.9375 20.543 36.4115 20.2699 34.9441 19.7736L34.8369 20.0239C36.2642 20.6918 37.8274 21.2209 39.4135 20.9177C39.4177 20.9506 39.5851 20.7447 39.5565 21.2038C39.0974 21.1466 38.6583 21.2853 38.1978 21.2753C35.0085 21.2066 32.9619 18.904 32.6558 18.9155C32.5943 18.9183 31.8378 19.6778 31.762 19.7736C33.1264 17.594 33.3466 18.3134 34.5151 18.4149C36.7504 18.608 38.9944 18.495 41.2369 18.6294C40.8651 19.2029 39.7181 19.9094 39.485 20.5602Z" fill="#A2ADAB"/>
<path d="M39.4851 20.5602C39.4565 20.6417 39.3836 20.6946 39.4136 20.9177C37.8276 21.2209 36.2644 20.6918 34.837 20.0239L34.9443 19.7736C36.4117 20.2699 37.9377 20.543 39.4851 20.5602Z" fill="#A2ADAB"/>
<path d="M29.5095 16.7702C30.2803 17.501 31.2157 17.9186 32.1911 18.3076C31.3315 19.6778 29.9428 17.6898 29.5095 16.7702Z" fill="#549285"/>
<path d="M18.5328 37.8654L18.3898 37.7939C18.4598 37.5007 18.5628 36.5811 18.4613 36.2922C18.6114 35.6787 18.7845 34.1784 19.0334 33.7179C19.0605 33.6678 19.4038 33.2717 19.4267 33.2888C19.6126 33.4318 18.7101 36.624 18.5328 37.8654Z" fill="#174340"/>
<path d="M39.2705 37.6509C39.0402 36.8514 38.9887 35.191 38.4124 34.862L38.4481 34.6475C39.5565 35.6744 40.6921 36.6941 41.7733 37.7582C41.6145 37.9741 40.8036 37.2447 39.2705 37.6509Z" fill="#549285"/>
<path d="M39.2706 37.6509C39.202 37.6695 38.5455 38.0871 38.484 37.9727C38.5155 36.9287 38.6213 35.8975 38.4125 34.8621C38.9889 35.191 39.0404 36.8514 39.2706 37.6509Z" fill="#2A5C59"/>
<path d="M54.7522 14.1959C55.0311 14.2888 55.3357 16.3368 54.6092 16.6272C54.4862 14.8824 53.5523 14.296 54.7522 14.1959Z" fill="#FBFCFC"/>
<path d="M36.3386 41.0833C37.0737 41.6697 37.477 41.7298 36.6603 41.9414C36.2456 40.3468 36.4272 42.4234 35.0871 42.585C33.9559 42.7209 34.4636 42.3018 34.4078 41.7269C35.0972 41.2993 34.2862 40.5827 34.6581 40.4397C35.3117 40.6099 36.0554 41.1806 36.3386 41.0833Z" fill="#978788"/>
<path d="M34.2648 39.7247C34.7954 40.1337 35.3947 40.4154 35.9453 40.7973C35.981 40.823 36.1627 40.773 36.1956 40.7973C36.2084 40.8073 36.1155 40.9046 36.3386 41.0833C36.0554 41.1806 35.3117 40.6099 34.6581 40.4397C34.2863 40.5828 35.0972 41.2993 34.4078 41.7269C34.3578 41.202 34.2162 40.1966 34.0503 39.7247C34.1261 39.7161 34.2319 39.7404 34.2648 39.7247Z" fill="#FBFCFC"/>
<path d="M45.0627 7.04494C44.8196 6.13248 44.0544 5.1099 43.3465 4.61362C43.6468 3.64539 45.2572 5.45314 45.0627 7.04494Z" fill="#174340"/>
<path d="M34.694 57.9595C34.8069 58.2026 34.9257 58.2999 34.9085 58.6031C34.2778 58.7776 32.3356 58.9792 32.1196 58.3886C32.1997 57.9395 32.327 57.8122 32.6202 57.5305C33.69 57.2444 33.8187 57.4318 34.694 57.9595Z" fill="#41454D"/>
<path d="M34.9086 58.6031C34.8571 59.4998 32.1125 59.0736 32.0482 58.9249C32.0353 58.7418 32.0882 58.5659 32.1197 58.3886C32.3357 58.9792 34.2778 58.7776 34.9086 58.6031Z" fill="#2E2F37"/>
<path d="M34.6939 57.9595C33.8187 57.4318 33.69 57.2444 32.6202 57.5305C33.4011 56.7825 34.2391 56.9899 34.6939 57.9595Z" fill="#79797F"/>
<path d="M23.8242 57.8165C23.9429 58.1269 24.0859 58.4672 23.8957 58.8176C22.8845 58.6303 21.7475 58.9864 21.3214 58.4601C21.4 57.9209 21.533 57.918 21.6074 57.8165C21.7647 58.0596 21.995 57.4661 22.3582 57.3874C23.3708 57.1701 23.6526 58.0339 23.8242 57.8165Z" fill="#41454D"/>
<path d="M23.8957 58.8176C23.7856 59.3311 22.0136 59.0522 21.4287 59.1037C21.1012 58.9778 21.2842 58.7118 21.3214 58.4601C21.7476 58.9864 22.8846 58.6303 23.8957 58.8176Z" fill="#2E2F37"/>
<path d="M23.8242 57.8165C23.6526 58.0339 23.3708 57.1701 22.3583 57.3875C21.995 57.4661 21.7647 58.0597 21.6074 57.8165C22.2081 56.9927 23.4037 56.7124 23.8242 57.8165Z" fill="#969798"/>
<path d="M33.4067 1.46721C33.0663 1.44004 32.3226 1.48009 32.1195 1.68174C32.0952 1.68031 32.0723 1.68317 32.048 1.68174C31.8292 1.66315 31.6304 1.60737 31.4044 1.64599C31.812 1.03673 33.0262 1.03244 33.4067 1.46721Z" fill="#4897C6"/>
<path d="M30.6178 42.7281C30.5478 43.0956 30.5749 43.5776 30.01 43.5147C29.837 43.4317 29.8727 42.8997 29.8312 42.7281H30.6178Z" fill="#2A5C59"/>
<path d="M20.392 58.1025C20.4821 58.3557 20.6036 58.5216 20.535 58.8176C19.6197 58.5587 18.0407 59.1251 17.6746 58.4601C17.6904 58.1039 17.8248 57.9366 18.0322 57.6735C19.0605 56.9955 19.5839 57.2945 20.392 58.1025Z" fill="#41454D"/>
<path d="M20.535 58.8176L20.3563 59.1036C18.5843 58.9692 17.6261 59.537 17.6747 58.4601C18.0408 59.1251 19.6197 58.5587 20.535 58.8176Z" fill="#2E2F37"/>
<path d="M20.392 58.1025C19.5839 57.2945 19.0605 56.9956 18.0322 57.6735C18.8045 56.6952 20.0044 57.0127 20.392 58.1025Z" fill="#8A898E"/>
<path d="M31.1897 57.9595C31.9748 59.5871 30.4603 58.8877 29.0086 59.0322C28.4966 58.8934 28.5195 57.4261 29.2589 57.1729C29.5378 57.4261 29.9082 57.2659 30.2243 57.3874C30.6877 57.5648 30.9494 58.1841 31.1897 57.9595Z" fill="#41454D"/>
<path d="M31.1897 57.9595C30.9494 58.1841 30.6877 57.5648 30.2243 57.3875C29.9082 57.2659 29.5378 57.4261 29.2589 57.1729C30.0684 56.8955 30.8335 57.2201 31.1897 57.9595Z" fill="#B0AFAD"/>
<path d="M37.9832 57.6735C38.1963 57.9939 38.4594 58.6303 38.0547 58.8892C37.4783 58.5273 36.2626 59.2381 35.6234 58.2456C35.6691 57.9481 36.0009 57.5362 36.2669 57.3875C37.6986 57.2159 37.7829 58.0725 37.9832 57.6735Z" fill="#41454D"/>
<path d="M38.0547 58.8892C37.597 59.2353 35.7321 59.1337 35.6234 58.9249C35.6448 58.7104 35.5933 58.4472 35.6234 58.2456C36.2627 59.2381 37.4783 58.5273 38.0547 58.8892Z" fill="#2E2F37"/>
<path d="M37.9831 57.6735C37.7829 58.0725 37.6985 57.2159 36.2669 57.3875C36.8833 57.0414 37.5555 57.0328 37.9831 57.6735Z" fill="#969798"/>
<path d="M36.9821 23.5636C37.1466 23.5493 37.5813 23.605 37.7687 23.5636C37.7229 24.1414 37.8931 24.7621 37.6257 25.2798C37.517 25.2598 37.3782 25.2998 37.2681 25.2798C35.6434 24.9938 34.3262 24.0856 33.0491 23.0988C34.4721 23.7066 35.4804 23.6894 36.9821 23.5636Z" fill="#BEBDB6"/>
<path d="M38.1978 21.2753C38.3608 21.9732 37.6558 23.216 36.9821 23.5636C35.4805 23.6894 34.4722 23.7066 33.0491 23.0988C34.3263 24.0856 35.6435 24.9938 37.2682 25.2798C37.2224 26.9202 37.2281 28.7523 36.267 30.1424C36.0783 30.1782 35.1815 30.7974 33.4067 30.5357C34.332 30.8232 35.4676 31.308 36.4101 31.3581C37.0022 33.7651 35.8237 34.6675 35.9095 34.8263H36.4816C36.6303 35.8803 36.3529 39.2212 35.0514 39.5101C34.4722 39.6388 34.1289 39.3213 33.6927 39.0096C32.909 37.741 30.5392 36.0805 29.0089 36.3637C28.6256 36.4352 27.49 37.5136 27.3999 37.1861C28.504 34.9149 29.0589 32.5151 29.4737 30.0352C29.5952 29.9236 31.3715 31.0492 31.762 30.8218C31.3873 30.6015 29.601 29.2857 29.5452 29.034C29.4851 28.7609 30.3661 24.2744 30.4748 23.5278C30.5763 23.3748 31.3329 23.7223 31.6905 23.8496C31.7992 23.8882 32.1624 24.4231 32.6916 23.9569C32.9104 23.4677 32.5071 23.4577 32.2625 23.2775C31.9908 23.0773 30.7365 22.3751 30.6893 22.0976C30.6622 21.936 31.2314 20.4501 31.762 19.7736C31.8378 19.6778 32.5943 18.9183 32.6558 18.9155C32.9619 18.904 35.0085 21.2066 38.1978 21.2753Z" fill="#F6C398"/>
<path d="M36.6245 39.4386C36.1912 39.8005 35.6391 39.7161 35.1228 39.7247L35.0513 39.5101C36.3528 39.2212 36.6303 35.8803 36.4815 34.8263H35.9094C35.8236 34.6675 37.0021 33.7651 36.41 31.3581C36.6789 31.3724 36.6131 31.2866 36.6245 31.2866C36.8934 31.2837 37.055 31.1807 37.1609 31.2151C37.6285 31.3666 37.3868 37.1889 37.1966 38.0442C37.0836 38.5519 36.7976 38.9566 36.6245 39.4386Z" fill="#354147"/>
<path d="M37.6256 25.2798C37.7186 25.297 37.9288 25.2398 37.9832 25.3156C38.1148 25.5015 37.7057 29.117 37.4111 29.8206C37.3625 29.9379 37.0965 30.0595 37.0536 30.1424C36.8147 30.1696 36.4758 30.1038 36.267 30.1424C37.2281 28.7523 37.2223 26.9202 37.2681 25.2798C37.3782 25.2998 37.517 25.2598 37.6256 25.2798Z" fill="#354147"/>
<path d="M39.5564 21.2038C39.4835 22.3679 38.9343 23.3076 37.7687 23.5636C37.5814 23.605 37.1466 23.5493 36.9821 23.5636C37.6557 23.216 38.3608 21.9732 38.1978 21.2753C38.6583 21.2853 39.0974 21.1466 39.5564 21.2038Z" fill="#354147"/>
<path d="M37.0536 30.1424C36.9592 30.3255 36.7604 30.9948 36.6245 31.2866C36.6131 31.2866 36.6789 31.3724 36.41 31.3581C35.4675 31.308 34.3319 30.8232 33.4066 30.5357C35.1815 30.7974 36.0782 30.1782 36.267 30.1424C36.4758 30.1038 36.8148 30.1696 37.0536 30.1424Z" fill="#BEBDB6"/>
<path d="M36.1955 40.7973C36.1626 40.773 35.9809 40.823 35.9452 40.7973C35.3946 40.4154 34.7953 40.1337 34.2647 39.7247C34.5836 39.5774 34.5808 39.7332 35.1228 39.7247C35.6391 39.7161 36.1912 39.8005 36.6245 39.4386C36.4672 39.8791 36.4086 40.3725 36.1955 40.7973Z" fill="#151515"/>
<path d="M31.6904 23.8496L32.2625 23.2775C32.5071 23.4577 32.9104 23.4677 32.6916 23.9569C32.1624 24.4231 31.7991 23.8882 31.6904 23.8496Z" fill="#549285"/>
<path d="M35.0514 39.5101L35.1229 39.7247C34.5808 39.7332 34.5837 39.5774 34.2648 39.7247C34.2319 39.7404 34.126 39.7161 34.0502 39.7247C34.0331 39.676 33.7284 39.0682 33.6927 39.0096C34.1289 39.3213 34.4721 39.6388 35.0514 39.5101Z" fill="#9D4E3E"/>
<path d="M36.7319 9.0472C37.5271 9.47625 37.9261 9.64501 36.7319 9.61927V9.0472Z" fill="#2A5C59"/>
<path d="M31.4045 44.8733H30.6179C30.3576 44.7575 31.5575 44.3542 31.4045 44.8733Z" fill="#61444F"/>
<path d="M31.4044 44.8733C31.7391 45.2337 30.6721 45.3238 30.6178 44.8733H31.4044Z" fill="#C5A4A6"/>
<path d="M34.8369 51.9528L35.1229 52.0958C33.8601 52.193 33.2179 52.5391 34.8369 51.9528Z" fill="#291D11"/>
<path d="M36.8749 10.0483C38.0376 9.85096 36.8134 12.1836 36.5174 12.5512C36.0811 12.544 36.3071 10.1442 36.8749 10.0483Z" fill="#FBFCFC"/>
<path d="M52.3926 14.5534C53.378 14.2244 52.8373 17.0448 52.6071 17.0562C52.4097 16.261 51.5874 14.4476 52.3926 14.5534Z" fill="#FBFCFC"/>
<path d="M44.5981 13.4807C45.891 13.2948 44.804 15.5731 44.3836 16.0551C44.1261 15.9635 44.4608 13.8097 44.5981 13.4807Z" fill="#FBFCFC"/>
<path d="M52.2138 17.9858C52.2037 17.8929 52.2295 17.7899 52.2138 17.6998C53.0747 17.4781 53.1562 16.5342 53.4652 15.8406C54.196 17.2193 53.3493 17.5882 52.2138 17.9858Z" fill="#2A5C59"/>
<path d="M43.0604 14.4104L42.4168 14.0529C42.5012 13.1247 42.557 12.6212 43.1677 12.9087C43.4523 12.9702 43.1591 14.0829 43.0604 14.4104Z" fill="#FBFCFC"/>
<path d="M43.0604 14.4104C42.5956 15.9479 42.3067 15.2685 42.4168 14.0529L43.0604 14.4104Z" fill="#BBC7D2"/>
<path d="M41.4874 14.7679C41.1913 15.0525 40.7137 15.4187 40.4863 14.6964C41.0855 14.5891 40.9082 15.3271 41.4874 14.7679Z" fill="#3A1212"/>
<path d="M43.9188 14.8394C43.637 14.7779 43.5769 14.7965 43.3467 14.9824C43.3596 14.9624 43.3324 14.6978 43.5255 14.5534C43.76 14.6492 43.8701 14.5677 43.9188 14.8394Z" fill="#843C24"/>
<path d="M25.9697 32.2877C25.8539 32.4035 25.8196 32.3864 25.8267 32.2162C25.8296 32.2233 25.9368 32.2777 25.9697 32.2877Z" fill="#174340"/>
<path d="M18.3897 37.7939C18.1394 38.8337 17.36 39.3957 17.3171 39.0453C18.2167 38.253 18.2024 37.3506 18.4612 36.2922C18.5628 36.5811 18.4612 37.5007 18.3897 37.7939Z" fill="#291D11"/>
<path d="M21.3216 52.5248C20.7667 53.0855 20.5794 53.1655 19.7484 53.1684C19.092 53.1698 17.8177 52.901 19.1049 53.2399C18.9418 53.4387 19.2278 53.709 19.3909 53.8835C19.604 54.1109 19.7327 54.0837 19.7484 54.098C20.6194 54.9104 21.5676 55.7385 22.8233 55.8143C23.4812 57.4675 22.3757 55.431 20.8568 57.745C20.1189 56.0431 17.7104 55.9544 17.0668 57.745C16.6592 56.628 15.6367 56.1446 14.5283 56.6366C14.8987 54.4727 14.8486 55.1678 15.8512 55.0276C17.2413 54.8331 15.6209 54.7402 15.2076 54.241C18.2482 54.3655 16.3746 54.1967 15.7797 53.8835C14.9344 53.4387 15.2519 52.3389 17.0311 53.2042C15.0446 51.8026 16.183 52.5448 17.8534 52.4533C18.8188 52.4004 19.1363 51.9156 21.3216 52.5248Z" fill="#549285"/>
<path d="M22.8232 55.8143C21.5675 55.7385 20.6193 54.9104 19.7483 54.0981C21.2414 54.3569 22.2254 54.3097 22.8232 55.8143Z" fill="#549285"/>
<path d="M20.5349 53.812C20.8953 53.4802 20.1673 53.4888 19.7483 53.383V53.1684C20.5792 53.1656 20.7666 53.0855 21.3215 52.5248C21.3644 52.5363 21.8335 52.4834 22.1796 52.7036C22.0895 52.8609 21.8607 53.7348 21.8221 53.7763C21.5918 54.0294 20.8309 53.8249 20.5349 53.812Z" fill="#549285"/>
<path d="M19.7483 53.3829C20.1673 53.4888 20.8953 53.4802 20.5349 53.812C20.2074 53.7977 19.6596 53.7662 19.3907 53.8835C19.2277 53.709 18.9417 53.4387 19.1047 53.2399C19.3192 53.2957 19.5323 53.3286 19.7483 53.3829Z" fill="#174340"/>
<path d="M19.7484 53.1684V53.383C19.5324 53.3286 19.3193 53.2957 19.1048 53.2399C17.8176 52.901 19.0919 53.1699 19.7484 53.1684Z" fill="#21130B"/>
<path d="M47.9948 2.25381C48.0191 2.26239 48.0849 2.42687 48.4238 2.53985C48.2679 2.93601 48.8414 3.39081 48.9959 4.29183C49.3892 6.59443 48.7227 5.61475 48.1735 5.54324C47.9147 5.50892 46.7977 5.99804 45.921 4.0773C44.8984 1.83763 46.0054 1.56589 47.9948 2.25381Z" fill="#262227"/>
<path d="M45.5992 1.18117C46.0826 1.07534 49.8254 1.31132 49.9255 1.64598C50.0842 2.17515 48.4467 1.46721 47.6014 1.3957C45.1344 1.18689 44.7768 1.59163 45.2059 3.43371C45.5734 5.01121 46.8963 6.04952 46.4573 6.25833C45.3818 6.09243 45.0314 3.02182 44.9198 2.86164C44.5823 2.37824 42.9891 3.07903 43.3466 2.28957C43.9702 1.77041 44.598 2.48693 44.6695 2.46834C44.7739 2.44116 44.8941 1.33563 45.5992 1.18117Z" fill="#0B6799"/>
<path d="M41.8449 8.54662C41.0741 9.06864 40.1831 9.28602 39.2706 9.40473C37.5344 9.13585 37.6102 9.40759 36.1957 8.33209C36.0055 8.18764 35.934 7.93021 35.8024 7.97454C35.7767 7.98313 35.7666 8.08181 35.4806 8.4036C35.6179 7.32238 35.3748 4.90251 35.2661 5.61474C35.2661 5.60759 35.1231 5.63762 35.1231 5.57898C35.1188 4.83386 35.5378 4.38764 34.6225 4.25606C35.0158 4.18455 35.2117 3.96574 35.3376 4.07729C35.7624 9.23454 36.9179 9.59208 41.8449 8.54662Z" fill="#549285"/>
<path d="M49.2819 3.54098C50.3645 3.70259 50.1686 2.62567 49.2104 3.11193C49.2662 2.50124 49.7496 2.58848 50.2115 2.93316C50.5905 3.62823 49.6766 3.93285 49.6394 4.0773C49.6094 4.19458 50.4403 6.01091 49.4249 6.15107C49.6294 5.26722 49.3877 4.41483 49.2819 3.54098Z" fill="#03527C"/>
<path d="M52.6429 5.68626C52.7258 6.01663 52.8603 7.00775 52.3568 6.72314C52.8974 5.69341 51.6475 5.77493 50.8194 6.54437C50.3589 6.1668 51.2513 6.04094 51.7133 5.68626C52.1223 5.60617 52.2138 5.50176 52.6429 5.68626Z" fill="#0B6799"/>
<path d="M49.2819 3.54098C49.2691 3.44087 49.1761 3.49093 49.2104 3.11193C50.1687 2.62566 50.3646 3.70259 49.2819 3.54098Z" fill="#C5E5EA"/>
<path d="M52.6429 5.68625C52.2138 5.50176 52.1223 5.60616 51.7133 5.68625C51.9535 5.50176 52.3597 4.56356 52.6429 5.68625Z" fill="#C5E5EA"/>
<path d="M48.4238 2.53985C48.0849 2.42687 48.0191 2.2624 47.9948 2.25382C49.0431 2.16944 49.3048 2.83304 48.4238 2.53985Z" fill="#FBFCFC"/>
<path d="M36.6247 4.97117C36.762 5.67768 36.835 6.34558 37.1968 6.97343C37.2168 7.00775 37.1753 7.12217 37.1968 7.1522C38.0077 8.32782 41.443 7.73286 42.0952 7.25947C43.0563 6.56154 43.6455 1.57877 40.808 0.966652C40.4276 0.883701 36.0283 0.820773 35.6236 1.28844C35.7938 2.7601 34.3307 0.863678 35.7309 0.609105C35.984 0.56334 40.625 0.56763 40.8795 0.609105C43.8901 1.09966 43.6598 7.11359 41.8091 7.83154C40.9653 8.15905 37.9162 8.30064 37.161 7.83154C36.0541 7.14362 36.2143 3.9729 35.9811 3.50523C35.7866 3.11479 35.1159 3.34076 34.837 2.79014C34.7054 2.34249 36.0369 1.97636 36.3744 2.18231C36.8221 2.70433 36.1899 3.15627 36.1957 3.2907C36.2 3.37937 36.3158 3.38652 36.6247 4.97117Z" fill="#0B6799"/>
<path d="M38.8416 1.61023C37.0038 2.34534 37.7904 3.64538 37.0539 3.32645C36.5676 3.1677 36.8765 1.88053 37.0896 1.75325C37.2784 1.63883 38.4912 1.63025 38.8416 1.61023Z" fill="#2A5C59"/>
<path d="M37.1968 5.68625C37.5343 7.19653 37.9162 7.58554 39.5566 7.54549C41.4044 7.56838 38.0549 8.2563 37.1968 6.97342C36.8349 6.34557 36.762 5.67767 36.6247 4.97116C36.9951 3.98147 36.8435 5.18569 37.1968 5.68625Z" fill="#190B09"/>
<path d="M41.4159 6.7589V6.61588L41.3086 6.32985C40.2975 6.72601 40.3618 6.4743 40.3075 6.47287C39.8899 6.46715 39.3049 6.51434 38.9488 6.47287C38.6656 6.43997 38.2638 6.07527 38.1265 6.32985C37.0195 4.98261 37.746 3.32503 36.9108 3.46948C36.6991 3.24351 36.9995 3.46662 37.0538 3.32646C37.7904 3.64539 37.0038 2.34535 38.8415 1.61024C40.5449 1.51298 41.9508 1.56018 42.3455 3.57674C42.6187 4.96974 42.0852 7.52691 41.4159 6.7589Z" fill="#262227"/>
<path d="M38.1264 6.32983C38.3867 6.6459 38.657 6.9162 39.0918 6.97341C40.2302 7.12501 41.3114 6.21684 41.4158 6.61586V6.75888C41.4859 7.35956 40.0629 7.53404 39.5566 7.54549C37.9162 7.58553 37.5343 7.19652 37.1968 5.68624C37.0366 4.96686 36.9823 4.20314 36.9108 3.46946C37.746 3.32501 37.0195 4.98259 38.1264 6.32983Z" fill="#A2ADAB"/>
<path d="M41.4158 6.61586C41.3114 6.21684 40.2302 7.12501 39.0918 6.97341C38.657 6.9162 38.3867 6.6459 38.1264 6.32983C38.2637 6.07525 38.6656 6.43995 38.9488 6.47285C39.3049 6.51432 39.8898 6.46713 40.3074 6.47285C40.3618 6.47285 40.2974 6.72599 41.3086 6.32983L41.4158 6.61586Z" fill="#0C0D10"/>
<path d="M33.9072 53.955C33.5611 53.8549 33.6155 53.9607 33.5497 53.955C33.308 53.9364 32.8346 53.8735 32.7631 54.0265C31.2843 53.7877 32.6043 53.6261 33.4782 53.1684C33.6927 53.0568 33.737 52.6221 33.9787 52.9181C34.0402 53.2585 34.1718 53.7648 33.9072 53.955Z" fill="#549285"/>
<path d="M33.5497 53.955C33.554 54.0422 33.4482 54.0666 33.4067 54.098C33.185 54.0995 32.9805 54.0608 32.7631 54.0265C32.8346 53.8735 33.308 53.9364 33.5497 53.955Z" fill="#174340"/>
<path d="M40.1641 38.08C40.9535 38.0213 42.5725 38.6277 42.9887 39.3314C43.3706 39.9778 43.628 42.0502 42.8814 42.585C43.0902 38.7693 42.3437 43.0842 41.63 42.6208C41.6929 40.2224 41.1952 39.8091 40.7004 42.3348C39.7236 43.1314 40.0911 40.8116 39.878 40.3683C38.7654 40.3582 39.9639 42.3948 38.7339 42.2275C37.5883 40.8259 38.0846 38.2344 40.1641 38.08Z" fill="#549285"/>
<path d="M38.1619 43.2286C40.7476 43.7435 38.4379 45.8487 37.9831 43.4074L38.1619 43.2286Z" fill="#775962"/>
<path d="M40.4501 44.2298C42.0405 47.6493 42.4467 51.5065 43.7038 55.0634C43.6566 55.1878 43.3076 55.2036 43.1675 55.2422C42.5239 52.7351 41.078 48.1957 40.6289 45.9102C40.5216 45.3625 40.4573 44.7904 40.4501 44.2298Z" fill="#A66970"/>
<path d="M44.4188 55.8143L43.1317 55.8858C43.2389 55.4954 43.9998 55.4796 44.4188 55.8143Z" fill="#D8CCCD"/>
<path d="M44.4188 55.8143C44.6319 55.9845 45.2798 57.1873 45.2054 57.4233C43.0931 58.0811 42.5324 58.433 43.1317 55.8858L44.4188 55.8143Z" fill="#5D5A64"/>
<path d="M43.9539 56.3149L43.9896 56.3506C44.2413 57.1687 43.5878 56.9013 43.9539 56.3149Z" fill="#0C0D10"/>
<path d="M16.459 59.1036C16.2145 59.1537 14.7042 59.1537 14.4568 58.9606C14.2251 58.7332 16.2559 58.6417 16.3518 58.6746C16.3761 58.6832 16.5505 59.0407 16.459 59.1036Z" fill="#41454D"/>
<path d="M16.459 59.1037C16.5505 59.0407 16.3761 58.6832 16.3518 58.6746C16.2559 58.6417 14.2251 58.7332 14.4568 58.9606C13.8332 58.8062 14.2823 57.3374 14.9931 57.1014C16.4547 56.6151 17.5502 58.8834 16.459 59.1037Z" fill="#41454D"/>
<path d="M15.1361 57.2444C15.9542 57.0399 16.7093 57.888 16.3518 57.9595C15.3278 57.1043 14.4768 57.7965 15.1361 57.2444Z" fill="#969798"/>
<path d="M23.7529 17.4853C23.4568 19.3746 23.3968 21.2996 22.8233 23.1345C22.307 23.1574 22.1954 23.7309 21.8936 24.0999C20.0501 26.3596 17.1497 28.9382 15.9584 30.4285C15.4063 30.0924 16.7407 28.3375 17.2455 27.6039C17.5988 27.0904 18.0693 26.6542 18.4612 26.1737C18.5141 26.1079 18.4984 25.7847 18.5327 25.7446C18.8187 25.4057 21.1299 23.4549 21.3216 23.1703C21.333 23.1531 21.3916 22.8628 21.3931 22.777C23.1894 21.6328 22.6659 20.7261 22.7517 20.3814C22.8433 20.0196 23.4211 17.8643 23.4668 17.7356C23.4726 17.717 23.7114 17.5039 23.7529 17.4853Z" fill="#02768A"/>
</svg>
