<svg width="347" height="94" viewBox="0 0 347 94" fill="none" xmlns="http://www.w3.org/2000/svg">
<path d="M190.783 0H347L322.507 94H166L190.783 0Z" fill="#F4D955"/>
<path d="M0.339844 73.0005V21.4805H10.9098V73.0005H0.339844Z" fill="#020617"/>
<path d="M37.3988 73.7705C31.2388 73.7705 26.4322 72.1138 22.9788 68.8005C19.5255 65.4871 17.7988 60.9838 17.7988 55.2905C17.7988 51.6038 18.5222 48.3838 19.9688 45.6305C21.4622 42.8771 23.5155 40.7305 26.1288 39.1905C28.7888 37.6038 31.8922 36.8105 35.4388 36.8105C38.9388 36.8105 41.8555 37.5571 44.1888 39.0505C46.5688 40.5438 48.3422 42.6438 49.5088 45.3505C50.7222 48.0105 51.3288 51.1138 51.3288 54.6605V57.1105H26.4788V51.8605H43.6288L42.4388 52.8405C42.4388 49.9005 41.8322 47.6838 40.6188 46.1905C39.4522 44.6505 37.7488 43.8805 35.5088 43.8805C33.0355 43.8805 31.1222 44.7905 29.7688 46.6105C28.4622 48.4305 27.8088 51.0438 27.8088 54.4505V55.5705C27.8088 59.0238 28.6488 61.5905 30.3288 63.2705C32.0555 64.9505 34.5288 65.7905 37.7488 65.7905C39.6622 65.7905 41.4588 65.5571 43.1388 65.0905C44.8655 64.5771 46.4988 63.7838 48.0388 62.7105L50.9788 69.7105C49.2055 71.0171 47.1522 72.0205 44.8188 72.7205C42.5322 73.4205 40.0588 73.7705 37.3988 73.7705Z" fill="#020617"/>
<path d="M71.8252 73.7705C68.7452 73.7705 66.0385 73.0238 63.7052 71.5305C61.3718 70.0371 59.5518 67.9138 58.2452 65.1605C56.9385 62.4071 56.2852 59.0938 56.2852 55.2205C56.2852 51.3938 56.9385 48.1038 58.2452 45.3505C59.5518 42.5971 61.3718 40.4971 63.7052 39.0505C66.0385 37.5571 68.7452 36.8105 71.8252 36.8105C74.6718 36.8105 77.2152 37.5105 79.4552 38.9105C81.7418 40.2638 83.2352 42.1071 83.9352 44.4405H83.1652L84.0052 37.5105H94.1552C94.0152 39.0505 93.8752 40.6138 93.7352 42.2005C93.6418 43.7405 93.5952 45.2571 93.5952 46.7505V73.0005H83.0952L83.0252 66.3505H83.8652C83.1185 68.5905 81.6252 70.3871 79.3852 71.7405C77.1452 73.0938 74.6252 73.7705 71.8252 73.7705ZM75.0452 65.7905C77.4718 65.7905 79.4318 64.9271 80.9252 63.2005C82.4185 61.4738 83.1652 58.8138 83.1652 55.2205C83.1652 51.6271 82.4185 48.9905 80.9252 47.3105C79.4318 45.6305 77.4718 44.7905 75.0452 44.7905C72.6185 44.7905 70.6585 45.6305 69.1652 47.3105C67.6718 48.9905 66.9252 51.6271 66.9252 55.2205C66.9252 58.8138 67.6485 61.4738 69.0952 63.2005C70.5885 64.9271 72.5718 65.7905 75.0452 65.7905Z" fill="#020617"/>
<path d="M102.194 73.0005V46.8905C102.194 45.3505 102.147 43.7871 102.054 42.2005C102.007 40.6138 101.89 39.0505 101.704 37.5105H111.854L113.044 47.8705H111.434C111.9 45.3505 112.647 43.2738 113.674 41.6405C114.747 40.0071 116.054 38.7938 117.594 38.0005C119.18 37.2071 120.977 36.8105 122.984 36.8105C123.87 36.8105 124.57 36.8571 125.084 36.9505C125.597 36.9971 126.11 37.1138 126.624 37.3005L126.554 46.6105C125.574 46.1905 124.734 45.9338 124.034 45.8405C123.38 45.7005 122.54 45.6305 121.514 45.6305C119.554 45.6305 117.92 46.0038 116.614 46.7505C115.354 47.4971 114.397 48.5938 113.744 50.0405C113.137 51.4871 112.834 53.2371 112.834 55.2905V73.0005H102.194Z" fill="#020617"/>
<path d="M131.043 73.0005V46.7505C131.043 45.2571 130.996 43.7405 130.903 42.2005C130.81 40.6138 130.67 39.0505 130.483 37.5105H140.633L141.403 44.0905H140.563C141.73 41.7571 143.386 39.9605 145.533 38.7005C147.68 37.4405 150.176 36.8105 153.023 36.8105C157.176 36.8105 160.28 38.0238 162.333 40.4505C164.433 42.8305 165.483 46.5405 165.483 51.5805V73.0005H154.913V52.0705C154.913 49.5038 154.446 47.6838 153.513 46.6105C152.58 45.5371 151.18 45.0005 149.313 45.0005C146.98 45.0005 145.113 45.7471 143.713 47.2405C142.313 48.6871 141.613 50.6471 141.613 53.1205V73.0005H131.043Z" fill="#020617"/>
<path d="M226.74 73.8384C219.133 73.8384 213.416 71.9951 209.59 68.3084C205.763 64.5751 203.85 58.9751 203.85 51.5084V23.6484H218.97V51.7184C218.97 54.8451 219.576 57.2251 220.79 58.8584C222.05 60.4918 224.033 61.3084 226.74 61.3084C229.446 61.3084 231.406 60.4918 232.62 58.8584C233.88 57.2251 234.51 54.8451 234.51 51.7184V23.6484H249.35V51.5084C249.35 58.9751 247.483 64.5751 243.75 68.3084C240.063 71.9951 234.393 73.8384 226.74 73.8384Z" fill="white"/>
<path fill-rule="evenodd" clip-rule="evenodd" d="M264 54L249.905 72.9984H267.475L273.5 65L264 54ZM268.704 48.1779L271.325 51.6484V51.5189L277.31 59.1503L287.145 72.9984H304.855L285.928 48.1723L304.505 23.6484H286.865L277.289 37.2325L267.825 23.6484H250.185L268.704 48.1779Z" fill="white"/>
</svg>
